<svg id="svg" version="1.1" xmlns="http://www.w3.org/2000/svg" xmlns:xlink="http://www.w3.org/1999/xlink" width="400" height="400" viewBox="0, 0, 400,400"><g id="svgg"><path id="path0" d="M37.377 166.115 C 37.268 166.399,37.229 169.594,37.290 173.215 L 37.400 179.800 56.800 180.010 C 67.889 180.130,76.631 180.387,77.207 180.610 C 82.502 182.661,82.545 190.006,77.274 192.042 C 76.765 192.239,67.540 192.400,56.774 192.400 L 37.200 192.400 37.200 199.600 L 37.200 206.800 57.763 206.800 L 78.326 206.800 80.352 207.851 C 85.347 210.443,84.717 216.984,79.229 219.505 C 77.979 220.079,75.256 220.180,57.500 220.312 L 37.200 220.464 37.200 227.632 L 37.200 234.800 58.476 234.800 C 70.778 234.800,80.690 234.633,81.976 234.403 C 83.199 234.185,85.640 233.826,87.400 233.604 C 92.201 233.000,93.280 232.787,94.660 232.166 C 95.354 231.855,96.041 231.600,96.188 231.600 C 97.009 231.600,102.800 226.853,102.800 226.180 C 102.800 226.052,103.250 225.357,103.800 224.636 C 104.350 223.914,104.800 223.037,104.800 222.686 C 104.800 222.335,104.964 221.946,105.164 221.822 C 106.458 221.023,106.613 211.403,105.371 209.009 C 105.057 208.404,104.800 207.737,104.800 207.528 C 104.800 206.205,99.520 200.809,97.643 200.214 C 97.179 200.066,96.800 199.778,96.800 199.573 C 96.800 199.368,96.451 199.200,96.024 199.200 C 95.597 199.200,95.136 199.020,95.000 198.800 C 94.864 198.580,94.425 198.400,94.025 198.400 C 92.220 198.400,92.318 197.297,94.208 196.353 C 97.863 194.528,100.724 191.360,102.126 187.587 C 102.854 185.629,103.092 178.627,102.444 178.227 C 102.249 178.106,101.964 177.512,101.812 176.907 C 101.483 175.594,99.041 172.105,97.729 171.073 C 97.216 170.669,96.540 170.082,96.226 169.769 C 95.913 169.456,95.464 169.200,95.229 169.200 C 94.993 169.200,94.800 169.041,94.800 168.847 C 94.800 168.652,94.485 168.396,94.100 168.278 C 93.715 168.160,92.410 167.698,91.200 167.253 C 87.246 165.797,83.540 165.600,60.159 165.600 C 42.102 165.600,37.535 165.703,37.377 166.115 M262.989 165.903 C 262.763 166.066,262.244 167.010,261.835 168.000 C 261.427 168.990,260.667 170.750,260.146 171.911 C 259.626 173.072,259.200 174.199,259.200 174.416 C 259.200 174.633,259.029 175.123,258.819 175.505 C 258.473 176.138,257.785 177.740,256.717 180.400 C 256.496 180.950,256.090 181.940,255.814 182.600 C 254.980 184.594,254.529 185.713,253.800 187.600 C 253.011 189.641,252.729 190.342,251.786 192.600 C 251.419 193.480,250.938 194.650,250.717 195.200 C 250.496 195.750,250.090 196.740,249.814 197.400 C 249.538 198.060,249.124 199.050,248.894 199.600 C 248.664 200.150,247.719 202.490,246.793 204.800 C 245.868 207.110,244.848 209.630,244.528 210.400 C 244.208 211.170,243.802 212.160,243.626 212.600 C 243.145 213.806,242.377 215.657,241.801 217.000 C 241.518 217.660,240.538 220.090,239.623 222.400 C 238.708 224.710,237.807 226.960,237.620 227.400 C 237.434 227.840,236.981 228.920,236.614 229.800 C 236.246 230.680,235.789 231.760,235.598 232.200 C 235.407 232.640,235.137 233.405,234.998 233.900 L 234.746 234.800 246.186 234.800 C 256.728 234.800,257.643 234.745,257.849 234.100 C 257.972 233.715,258.222 233.040,258.404 232.600 C 258.587 232.160,259.218 230.450,259.807 228.800 C 260.396 227.150,261.130 225.233,261.439 224.540 C 261.747 223.846,262.000 223.002,262.000 222.663 C 262.000 222.324,262.159 221.949,262.352 221.830 C 262.546 221.710,262.794 221.204,262.904 220.706 C 263.101 219.809,265.677 212.541,266.343 211.000 C 266.533 210.560,266.915 209.480,267.191 208.600 C 267.466 207.720,267.924 206.460,268.208 205.800 C 268.492 205.140,269.031 203.700,269.405 202.600 C 269.779 201.500,270.227 200.240,270.402 199.800 C 270.576 199.360,270.944 198.370,271.220 197.600 C 271.495 196.830,271.933 195.660,272.194 195.000 C 273.045 192.847,273.677 191.017,273.887 190.100 C 274.183 188.807,275.525 188.933,276.010 190.300 C 276.225 190.905,276.580 191.713,276.800 192.095 C 277.020 192.477,277.200 193.041,277.200 193.349 C 277.200 193.657,277.469 194.424,277.798 195.054 C 278.126 195.684,278.396 196.504,278.398 196.876 C 278.399 197.248,278.580 197.664,278.800 197.800 C 279.020 197.936,279.200 198.451,279.200 198.944 C 279.200 199.437,279.358 200.011,279.551 200.220 C 279.744 200.429,280.310 201.770,280.808 203.200 C 282.358 207.642,282.643 208.376,282.926 208.659 C 283.077 208.810,283.200 209.257,283.200 209.653 C 283.200 210.306,283.937 212.292,284.849 214.095 C 285.042 214.477,285.200 215.041,285.200 215.349 C 285.200 215.657,285.469 216.424,285.798 217.054 C 286.126 217.684,286.396 218.479,286.398 218.820 C 286.399 219.161,286.544 219.611,286.719 219.820 C 286.895 220.029,287.370 221.190,287.775 222.400 C 288.180 223.610,288.667 224.771,288.856 224.980 C 289.045 225.189,289.200 225.678,289.200 226.066 C 289.200 226.708,289.943 228.703,290.849 230.495 C 291.042 230.877,291.200 231.434,291.200 231.733 C 291.200 232.032,291.483 232.845,291.829 233.539 L 292.459 234.800 304.029 234.800 C 311.096 234.800,315.600 234.652,315.600 234.419 C 315.600 234.209,315.395 233.534,315.144 232.919 C 314.893 232.303,314.431 231.170,314.117 230.400 C 313.803 229.630,313.402 228.640,313.226 228.200 C 312.332 225.959,311.875 224.898,311.363 223.868 C 311.053 223.245,310.800 222.513,310.800 222.242 C 310.800 221.971,310.350 220.817,309.800 219.677 C 309.250 218.537,308.800 217.421,308.800 217.197 C 308.800 216.972,308.629 216.477,308.419 216.095 C 308.061 215.441,307.466 214.063,306.133 210.800 C 305.819 210.030,305.390 209.087,305.181 208.705 C 304.971 208.323,304.800 207.659,304.800 207.229 C 304.800 206.799,304.647 206.352,304.459 206.237 C 304.272 206.121,303.805 205.165,303.422 204.113 C 303.038 203.061,302.459 201.570,302.135 200.800 C 301.811 200.030,301.396 199.040,301.214 198.600 C 301.031 198.160,300.593 197.143,300.241 196.340 C 299.888 195.536,299.600 194.777,299.600 194.651 C 299.600 194.526,299.178 193.473,298.662 192.312 C 298.147 191.150,297.496 189.570,297.216 188.800 C 296.936 188.030,296.278 186.450,295.754 185.289 C 295.229 184.128,294.800 183.001,294.800 182.784 C 294.800 182.567,294.629 182.077,294.419 181.695 C 294.210 181.313,293.739 180.280,293.372 179.400 C 293.005 178.520,292.456 177.233,292.153 176.540 C 291.849 175.846,291.600 175.169,291.600 175.035 C 291.600 174.901,291.265 174.028,290.855 173.096 C 290.445 172.163,289.796 170.590,289.413 169.600 C 289.031 168.610,288.477 167.350,288.184 166.800 L 287.651 165.800 275.525 165.703 C 268.856 165.649,263.215 165.739,262.989 165.903 M157.867 166.726 C 157.500 167.131,157.200 167.676,157.200 167.937 C 157.200 168.198,157.034 168.723,156.831 169.105 C 156.628 169.487,155.708 171.690,154.786 174.000 C 153.865 176.310,152.848 178.830,152.528 179.600 C 152.208 180.370,151.802 181.360,151.626 181.800 C 151.451 182.240,151.119 183.050,150.890 183.600 C 150.660 184.150,149.267 187.570,147.793 191.200 C 146.320 194.830,144.852 198.430,144.530 199.200 C 144.209 199.970,143.796 200.960,143.614 201.400 C 143.431 201.840,142.981 202.920,142.614 203.800 C 141.193 207.204,141.426 206.629,138.793 213.200 C 136.404 219.162,135.281 221.857,134.753 222.895 C 134.559 223.277,134.400 223.767,134.400 223.984 C 134.400 224.201,133.974 225.328,133.454 226.489 C 132.933 227.650,132.195 229.410,131.813 230.400 C 131.430 231.390,130.956 232.513,130.759 232.895 C 129.763 234.822,129.641 234.800,141.551 234.800 C 153.699 234.800,153.367 234.863,153.849 232.454 C 153.989 231.755,154.260 231.086,154.452 230.968 C 154.643 230.850,154.800 230.431,154.800 230.038 C 154.800 229.385,155.474 227.671,156.426 225.905 C 156.632 225.523,156.800 224.945,156.800 224.619 C 156.800 224.075,157.596 221.991,158.449 220.305 C 158.642 219.923,158.800 219.359,158.800 219.051 C 158.800 218.743,159.069 217.976,159.398 217.346 C 159.726 216.716,159.996 215.885,159.998 215.500 C 159.999 215.115,160.180 214.800,160.400 214.800 C 160.620 214.800,160.800 214.489,160.800 214.108 C 160.800 213.427,162.344 208.997,163.439 206.540 C 163.747 205.846,164.000 205.002,164.000 204.663 C 164.000 204.324,164.180 203.936,164.400 203.800 C 164.620 203.664,164.800 203.224,164.800 202.822 C 164.800 202.420,165.069 201.576,165.398 200.946 C 165.726 200.316,165.996 199.521,165.998 199.180 C 165.999 198.839,166.144 198.389,166.319 198.180 C 166.495 197.971,166.970 196.810,167.375 195.600 C 167.780 194.390,168.267 193.229,168.456 193.020 C 168.645 192.811,168.800 192.224,168.800 191.716 C 168.800 190.784,170.181 189.244,170.713 189.583 C 170.995 189.762,171.422 190.830,172.640 194.400 C 172.978 195.390,173.512 196.767,173.827 197.460 C 174.142 198.154,174.400 198.869,174.400 199.051 C 174.400 199.336,175.860 203.416,176.815 205.800 C 176.992 206.240,177.614 207.950,178.198 209.600 C 179.579 213.501,180.397 215.634,180.841 216.495 C 181.038 216.877,181.200 217.441,181.200 217.749 C 181.200 218.057,181.469 218.824,181.798 219.454 C 182.126 220.084,182.396 220.885,182.398 221.233 C 182.399 221.582,182.523 221.990,182.674 222.141 C 182.951 222.418,183.410 223.597,184.800 227.600 C 186.190 231.603,186.649 232.782,186.926 233.059 C 187.077 233.210,187.200 233.663,187.200 234.067 C 187.200 234.761,187.824 234.800,199.000 234.800 C 205.490 234.800,210.801 234.665,210.801 234.500 C 210.803 234.147,209.096 229.892,207.748 226.889 C 207.226 225.728,206.800 224.601,206.800 224.384 C 206.800 224.167,206.629 223.677,206.419 223.295 C 206.073 222.662,205.385 221.060,204.317 218.400 C 204.096 217.850,203.680 216.860,203.391 216.200 C 203.103 215.540,202.555 214.139,202.174 213.087 C 201.793 212.035,201.328 211.079,201.141 210.963 C 200.953 210.848,200.800 210.401,200.800 209.971 C 200.800 209.541,200.629 208.877,200.419 208.495 C 200.210 208.113,199.760 207.125,199.419 206.300 C 198.633 204.396,197.645 202.032,197.204 201.000 C 197.016 200.560,196.551 199.339,196.172 198.287 C 195.792 197.235,195.328 196.279,195.141 196.163 C 194.953 196.048,194.800 195.601,194.800 195.171 C 194.800 194.741,194.629 194.077,194.419 193.695 C 194.068 193.054,193.707 192.221,192.125 188.400 C 191.807 187.630,191.396 186.640,191.214 186.200 C 191.031 185.760,190.584 184.680,190.221 183.800 C 189.858 182.920,189.390 181.887,189.181 181.505 C 188.971 181.123,188.800 180.572,188.800 180.280 C 188.800 179.988,188.350 178.817,187.800 177.677 C 187.250 176.537,186.800 175.421,186.800 175.197 C 186.800 174.972,186.629 174.477,186.419 174.095 C 186.210 173.713,185.781 172.770,185.467 172.000 C 184.178 168.845,183.545 167.369,183.238 166.800 C 182.685 165.778,158.788 165.708,157.867 166.726 M340.184 166.500 C 340.079 166.775,340.040 182.210,340.097 200.800 L 340.200 234.600 351.500 234.706 L 362.800 234.812 362.800 200.406 L 362.800 166.000 351.587 166.000 C 342.986 166.000,340.330 166.116,340.184 166.500 " stroke="none" fill="#241b16" fill-rule="evenodd"></path><path id="path1" d="M0.000 200.000 L 0.000 400.000 200.000 400.000 L 400.000 400.000 400.000 200.000 L 400.000 0.000 200.000 0.000 L 0.000 0.000 0.000 200.000 M88.068 165.420 C 96.989 167.606,102.299 172.708,103.548 180.297 C 104.559 186.439,100.782 194.073,95.489 196.585 C 94.074 197.256,93.819 198.000,95.004 198.000 C 96.118 198.000,99.797 200.364,101.972 202.477 C 109.309 209.607,108.985 221.682,101.260 229.009 C 98.437 231.686,95.440 233.116,90.800 234.002 C 85.043 235.101,82.508 235.200,60.254 235.200 L 36.800 235.200 36.800 227.443 C 36.800 220.738,36.886 219.653,37.433 219.443 C 37.781 219.309,46.304 219.200,56.374 219.200 C 80.305 219.200,80.281 219.203,82.300 215.683 C 83.063 214.353,82.940 210.906,82.100 210.071 C 80.135 208.120,81.192 208.212,58.439 208.000 L 37.000 207.800 36.891 200.029 C 36.808 194.080,36.902 192.182,37.291 191.935 C 37.571 191.758,46.373 191.609,56.851 191.606 C 80.118 191.599,80.064 191.611,80.143 186.129 C 80.174 184.006,80.094 183.817,78.621 182.544 L 77.067 181.200 57.566 181.200 C 46.841 181.200,37.781 181.091,37.433 180.957 C 36.885 180.747,36.800 179.644,36.800 172.757 L 36.800 164.800 61.168 164.800 C 81.827 164.800,85.921 164.894,88.068 165.420 M183.700 165.911 C 184.085 166.248,184.400 166.769,184.400 167.067 C 184.400 167.366,184.559 167.923,184.753 168.305 C 185.281 169.343,186.404 172.038,188.793 178.000 C 191.426 184.571,191.193 183.996,192.614 187.400 C 192.981 188.280,193.431 189.360,193.614 189.800 C 193.796 190.240,194.208 191.230,194.527 192.000 C 194.847 192.770,195.602 194.660,196.204 196.200 C 196.806 197.740,197.527 199.540,197.807 200.200 C 198.087 200.860,198.491 201.850,198.704 202.400 C 198.918 202.950,199.287 203.850,199.525 204.400 C 199.762 204.950,201.155 208.370,202.619 212.000 C 205.295 218.630,205.456 219.027,206.530 221.600 C 206.852 222.370,208.051 225.340,209.195 228.200 C 210.339 231.060,211.435 233.708,211.631 234.084 C 212.604 235.955,212.314 236.000,199.367 236.000 L 187.221 236.000 186.669 234.900 C 186.366 234.295,185.526 232.090,184.804 230.000 C 184.082 227.910,183.335 226.029,183.145 225.820 C 182.955 225.611,182.800 225.062,182.800 224.600 C 182.800 224.138,182.645 223.589,182.456 223.380 C 182.267 223.171,181.792 222.010,181.401 220.800 C 180.696 218.615,180.576 218.290,179.488 215.600 C 179.176 214.830,178.599 213.210,178.205 212.000 C 177.811 210.790,177.333 209.629,177.144 209.420 C 176.955 209.211,176.800 208.637,176.800 208.144 C 176.800 207.651,176.620 207.136,176.400 207.000 C 176.180 206.864,176.000 206.476,176.000 206.137 C 176.000 205.798,175.747 204.954,175.439 204.260 C 175.130 203.567,174.399 201.650,173.814 200.000 C 173.229 198.350,172.604 196.724,172.426 196.387 C 172.248 196.050,171.975 195.197,171.820 194.491 C 171.665 193.786,171.372 193.106,171.169 192.981 C 170.966 192.855,170.800 192.286,170.800 191.714 C 170.800 190.701,170.780 190.694,170.000 191.400 C 169.560 191.798,169.200 192.516,169.200 192.995 C 169.200 193.475,169.077 193.990,168.926 194.141 C 168.637 194.430,168.043 195.971,166.825 199.600 C 166.419 200.810,165.864 202.340,165.593 203.000 C 164.822 204.879,164.534 205.655,163.811 207.800 C 163.441 208.900,162.993 210.160,162.817 210.600 C 161.590 213.657,160.969 215.360,158.734 221.800 C 158.276 223.120,157.744 224.371,157.551 224.580 C 157.358 224.789,157.200 225.363,157.200 225.856 C 157.200 226.349,157.020 226.864,156.800 227.000 C 156.580 227.136,156.400 227.524,156.400 227.863 C 156.400 228.202,156.147 229.046,155.838 229.740 C 155.528 230.433,154.957 231.900,154.569 233.000 C 153.424 236.241,154.420 236.024,141.251 235.906 C 127.905 235.787,128.439 235.936,129.976 232.754 C 130.429 231.817,130.806 230.769,130.813 230.425 C 130.820 230.081,131.090 229.451,131.413 229.024 C 131.736 228.596,132.000 227.921,132.000 227.524 C 132.000 227.126,132.180 226.800,132.400 226.800 C 132.620 226.800,132.800 226.455,132.800 226.032 C 132.800 225.610,133.053 224.755,133.363 224.132 C 133.875 223.102,134.332 222.041,135.226 219.800 C 135.402 219.360,135.828 218.325,136.173 217.500 C 136.518 216.675,137.079 215.325,137.419 214.500 C 137.760 213.675,138.210 212.687,138.419 212.305 C 138.629 211.923,138.800 211.353,138.800 211.038 C 138.800 210.723,139.053 209.955,139.363 209.332 C 139.673 208.710,140.123 207.705,140.363 207.100 C 140.824 205.940,141.151 205.144,142.173 202.700 C 142.518 201.875,143.082 200.525,143.427 199.700 C 143.772 198.875,144.204 197.840,144.388 197.400 C 144.572 196.960,145.211 195.340,145.808 193.800 C 146.927 190.913,147.140 190.381,148.125 188.000 C 149.707 184.179,150.068 183.346,150.419 182.705 C 150.629 182.323,150.800 181.828,150.800 181.603 C 150.800 181.379,151.250 180.263,151.800 179.123 C 152.350 177.983,152.800 176.903,152.800 176.723 C 152.800 176.543,153.250 175.463,153.800 174.323 C 154.350 173.183,154.800 172.029,154.800 171.758 C 154.800 171.487,155.100 170.665,155.468 169.932 C 156.681 167.512,156.800 167.216,156.800 166.629 C 156.800 165.521,157.854 165.399,169.200 165.200 C 181.788 164.979,182.687 165.023,183.700 165.911 M288.469 165.462 C 288.871 165.826,289.200 166.429,289.200 166.802 C 289.200 167.176,289.650 168.327,290.200 169.362 C 290.750 170.396,291.200 171.488,291.200 171.789 C 291.200 172.089,291.453 172.845,291.763 173.468 C 292.073 174.090,292.504 175.050,292.722 175.600 C 293.670 177.991,294.466 179.849,294.819 180.495 C 295.029 180.877,295.200 181.372,295.200 181.597 C 295.200 181.821,295.650 182.937,296.200 184.077 C 296.750 185.217,297.200 186.440,297.200 186.795 C 297.200 187.150,297.367 187.611,297.570 187.820 C 297.774 188.029,298.499 189.640,299.182 191.400 C 300.404 194.548,300.670 195.208,301.519 197.200 C 302.705 199.979,303.260 201.340,304.783 205.200 C 306.597 209.797,306.885 210.513,307.519 212.000 C 308.444 214.167,309.155 215.917,310.201 218.600 C 311.391 221.651,311.615 222.207,312.614 224.600 C 312.981 225.480,313.431 226.560,313.614 227.000 C 314.554 229.265,315.256 230.929,315.765 232.100 C 317.130 235.241,318.104 234.987,304.248 235.106 C 290.824 235.221,290.848 235.225,290.813 232.980 C 290.806 232.529,290.650 231.989,290.466 231.780 C 290.282 231.571,289.818 230.500,289.435 229.400 C 289.052 228.300,288.591 227.040,288.411 226.600 C 288.232 226.160,287.782 224.900,287.411 223.800 C 286.635 221.495,286.359 220.773,285.455 218.686 C 285.095 217.854,284.800 216.855,284.800 216.466 C 284.800 216.078,284.650 215.589,284.466 215.380 C 284.282 215.171,283.818 214.100,283.435 213.000 C 283.052 211.900,282.591 210.640,282.411 210.200 C 282.232 209.760,281.782 208.500,281.411 207.400 C 280.635 205.095,280.359 204.373,279.455 202.286 C 279.095 201.454,278.800 200.455,278.800 200.066 C 278.800 199.678,278.642 199.189,278.449 198.980 C 278.256 198.771,277.496 196.849,276.759 194.708 C 275.530 191.135,274.404 189.420,274.398 191.113 C 274.396 191.491,274.126 192.316,273.798 192.946 C 273.469 193.576,273.200 194.420,273.200 194.822 C 273.200 195.224,273.020 195.664,272.800 195.800 C 272.580 195.936,272.399 196.352,272.398 196.724 C 272.396 197.096,272.126 197.916,271.798 198.546 C 271.469 199.176,271.200 199.995,271.200 200.366 C 271.200 200.737,271.050 201.211,270.866 201.420 C 270.682 201.629,270.218 202.700,269.835 203.800 C 269.452 204.900,268.991 206.160,268.811 206.600 C 268.632 207.040,268.182 208.300,267.811 209.400 C 267.035 211.705,266.759 212.427,265.855 214.514 C 265.495 215.346,265.200 216.293,265.200 216.619 C 265.200 216.945,265.038 217.523,264.841 217.905 C 264.644 218.287,264.175 219.410,263.800 220.400 C 263.425 221.390,262.979 222.476,262.810 222.813 C 262.640 223.150,262.375 224.003,262.220 224.709 C 262.065 225.414,261.772 226.094,261.569 226.219 C 261.366 226.345,261.200 226.799,261.200 227.229 C 261.200 227.659,261.042 228.323,260.849 228.705 C 259.966 230.452,259.200 232.485,259.200 233.082 C 259.200 235.127,258.744 235.200,245.938 235.200 C 232.877 235.200,233.124 235.249,234.366 232.895 C 234.568 232.513,235.030 231.480,235.393 230.600 C 235.757 229.720,236.204 228.640,236.386 228.200 C 236.569 227.760,236.980 226.770,237.299 226.000 C 237.619 225.230,238.112 223.970,238.395 223.200 C 238.678 222.430,239.335 220.866,239.855 219.725 C 240.375 218.583,240.800 217.456,240.800 217.219 C 240.800 216.983,240.971 216.477,241.181 216.095 C 241.390 215.713,241.840 214.725,242.181 213.900 C 242.521 213.075,243.079 211.725,243.419 210.900 C 243.760 210.075,244.210 209.087,244.419 208.705 C 244.629 208.323,244.800 207.828,244.800 207.603 C 244.800 207.379,245.250 206.263,245.800 205.123 C 246.350 203.983,246.800 202.735,246.800 202.349 C 246.800 201.963,246.966 201.545,247.169 201.419 C 247.372 201.294,247.657 200.653,247.801 199.995 C 247.945 199.338,248.229 198.800,248.432 198.800 C 248.634 198.800,248.800 198.455,248.800 198.032 C 248.800 197.610,249.100 196.665,249.468 195.932 C 250.644 193.584,250.800 193.219,250.800 192.803 C 250.800 192.579,251.250 191.463,251.800 190.323 C 252.350 189.183,252.800 188.041,252.800 187.785 C 252.800 187.529,253.250 186.473,253.800 185.438 C 254.350 184.404,254.800 183.295,254.800 182.973 C 254.800 182.652,254.971 182.077,255.181 181.695 C 255.390 181.313,255.840 180.325,256.181 179.500 C 256.521 178.675,257.079 177.325,257.419 176.500 C 257.760 175.675,258.210 174.687,258.419 174.305 C 258.629 173.923,258.800 173.433,258.800 173.216 C 258.800 172.859,259.209 171.887,261.627 166.500 L 262.390 164.800 275.063 164.800 C 286.295 164.800,287.820 164.875,288.469 165.462 M363.110 199.600 C 363.171 218.630,363.125 234.595,363.008 235.079 C 362.749 236.148,341.663 236.546,340.008 235.512 C 339.015 234.892,338.700 166.260,339.686 165.274 C 340.050 164.910,343.043 164.815,351.586 164.894 L 363.000 165.000 363.110 199.600 " stroke="none" fill="#fbfbfb" fill-rule="evenodd"></path><path id="path2" d="M36.806 165.500 C 36.811 166.013,36.899 166.063,37.137 165.688 C 37.482 165.145,84.773 165.199,88.200 165.747 C 89.598 165.970,89.548 165.929,87.800 165.419 C 84.467 164.447,36.798 164.522,36.806 165.500 M169.200 165.200 C 157.866 165.399,156.800 165.521,156.800 166.624 C 156.800 167.051,157.007 166.993,157.600 166.400 C 159.217 164.783,184.000 165.295,184.000 166.945 C 184.000 167.359,186.142 172.754,189.580 181.000 C 190.554 183.336,191.183 184.544,191.191 184.095 C 191.196 183.817,191.034 183.277,190.831 182.895 C 190.628 182.513,189.708 180.310,188.786 178.000 C 186.464 172.181,185.295 169.370,184.753 168.305 C 184.559 167.923,184.400 167.366,184.400 167.067 C 184.400 165.096,183.239 164.954,169.200 165.200 M262.262 165.100 C 262.159 165.265,267.864 165.350,274.939 165.290 L 287.802 165.179 288.490 166.290 C 288.931 167.001,289.183 167.171,289.189 166.762 C 289.220 164.897,288.526 164.800,275.092 164.800 C 268.137 164.800,262.364 164.935,262.262 165.100 M339.686 165.274 C 338.700 166.260,339.015 234.892,340.008 235.512 C 342.325 236.959,364.494 235.961,363.009 234.476 C 362.894 234.361,362.800 234.479,362.800 234.739 C 362.800 235.095,359.940 235.186,351.300 235.106 L 339.800 235.000 339.698 200.878 C 339.629 177.812,339.730 166.504,340.012 165.978 C 340.624 164.834,362.088 164.761,362.795 165.900 C 363.192 166.540,363.219 166.531,363.109 165.800 C 362.962 164.815,340.646 164.314,339.686 165.274 M261.285 166.973 C 260.586 168.508,260.692 169.217,261.413 167.833 C 261.748 167.191,261.965 166.496,261.896 166.288 C 261.827 166.080,261.552 166.388,261.285 166.973 M92.946 167.402 C 94.396 168.159,94.834 168.151,93.824 167.387 C 93.396 167.064,92.766 166.801,92.424 166.802 C 92.081 166.804,92.316 167.074,92.946 167.402 M95.020 168.320 C 95.229 168.496,96.254 169.317,97.298 170.145 C 99.581 171.955,101.418 174.530,102.426 177.332 C 102.836 178.469,103.178 179.027,103.186 178.571 C 103.204 177.506,101.107 173.299,99.910 172.000 C 98.488 170.456,95.503 168.000,95.048 168.000 C 94.794 168.000,94.783 168.121,95.020 168.320 M289.200 168.205 C 289.200 168.318,289.364 168.723,289.564 169.105 C 289.764 169.487,290.210 170.430,290.555 171.200 C 290.900 171.970,291.186 172.319,291.191 171.975 C 291.201 171.302,289.705 168.000,289.391 168.000 C 289.286 168.000,289.200 168.092,289.200 168.205 M155.299 170.391 C 154.572 171.555,154.687 172.339,155.430 171.279 C 155.776 170.784,156.001 170.202,155.929 169.986 C 155.856 169.769,155.573 169.951,155.299 170.391 M259.220 172.087 C 258.953 172.809,258.556 173.733,258.339 174.139 C 258.122 174.545,258.040 174.974,258.157 175.091 C 258.274 175.208,258.579 174.785,258.835 174.152 C 259.090 173.518,259.487 172.595,259.717 172.101 C 259.947 171.606,260.038 171.105,259.921 170.988 C 259.804 170.870,259.488 171.365,259.220 172.087 M291.213 172.905 C 291.206 173.073,291.358 173.523,291.552 173.905 C 291.746 174.287,292.184 175.230,292.526 176.000 C 292.869 176.770,293.160 177.096,293.174 176.724 C 293.188 176.352,293.020 175.936,292.800 175.800 C 292.580 175.664,292.400 175.238,292.400 174.853 C 292.400 174.182,291.239 172.277,291.213 172.905 M153.285 175.373 C 152.586 176.908,152.692 177.617,153.413 176.233 C 153.748 175.591,153.965 174.896,153.896 174.688 C 153.827 174.480,153.552 174.788,153.285 175.373 M257.248 176.921 C 256.957 177.625,256.459 178.830,256.140 179.600 C 255.822 180.370,255.390 181.313,255.181 181.695 C 254.971 182.077,254.804 182.707,254.809 183.095 C 254.819 183.873,255.260 182.995,257.018 178.695 C 257.626 177.208,258.046 175.912,257.950 175.817 C 257.855 175.721,257.538 176.218,257.248 176.921 M293.225 177.876 C 293.283 178.652,295.137 182.133,295.167 181.524 C 295.185 181.152,295.034 180.745,294.831 180.619 C 294.628 180.494,294.344 179.855,294.200 179.200 C 293.968 178.144,293.162 177.050,293.225 177.876 M151.285 180.173 C 150.586 181.708,150.692 182.417,151.413 181.033 C 151.748 180.391,151.965 179.696,151.896 179.488 C 151.827 179.280,151.552 179.588,151.285 180.173 M36.806 180.057 C 36.796 181.163,37.459 181.200,57.542 181.200 L 77.018 181.200 78.509 182.429 C 79.329 183.105,80.000 183.468,80.000 183.235 C 80.000 183.002,79.248 182.314,78.330 181.706 L 76.660 180.600 57.040 180.479 C 42.360 180.388,37.344 180.237,37.117 179.879 C 36.906 179.548,36.810 179.603,36.806 180.057 M103.280 182.400 C 103.274 184.795,103.344 185.153,103.628 184.175 C 103.833 183.470,103.836 182.196,103.636 181.175 C 103.310 179.515,103.287 179.595,103.280 182.400 M150.003 183.445 C 149.772 184.080,149.377 185.005,149.124 185.499 C 148.872 185.994,148.760 186.493,148.875 186.609 C 148.991 186.724,149.473 185.886,149.947 184.747 C 150.420 183.607,150.721 182.588,150.615 182.482 C 150.509 182.376,150.234 182.809,150.003 183.445 M295.426 183.000 C 295.572 183.440,295.788 184.160,295.908 184.600 C 296.173 185.578,297.200 187.139,297.200 186.564 C 297.200 186.336,296.741 185.261,296.181 184.175 C 295.620 183.089,295.280 182.560,295.426 183.000 M80.142 186.202 C 80.067 191.441,80.416 191.360,57.000 191.607 L 37.400 191.815 57.000 191.906 C 75.939 191.994,76.644 191.970,77.904 191.202 C 79.591 190.174,80.798 188.166,80.792 186.400 C 80.785 184.061,80.176 183.876,80.142 186.202 M253.299 186.391 C 253.024 186.830,252.801 187.507,252.802 187.895 C 252.804 188.368,253.005 188.217,253.413 187.433 C 254.125 186.069,254.031 185.218,253.299 186.391 M102.846 186.525 C 102.668 189.308,98.340 194.775,94.990 196.448 C 93.175 197.355,92.689 198.000,93.824 198.000 C 94.167 198.000,94.348 197.840,94.227 197.644 C 94.106 197.448,94.674 196.971,95.489 196.585 C 98.722 195.050,103.610 188.595,103.086 186.552 C 102.907 185.854,102.889 185.852,102.846 186.525 M192.009 186.637 C 192.004 186.877,192.730 188.857,193.623 191.037 C 195.717 196.152,195.796 196.342,196.548 198.000 C 197.593 200.309,197.281 198.648,196.157 195.926 C 195.583 194.537,194.966 193.040,194.784 192.600 C 192.813 187.821,192.020 186.117,192.009 186.637 M148.003 188.245 C 147.772 188.880,147.430 189.760,147.242 190.200 C 146.278 192.455,145.985 193.319,146.135 193.468 C 146.226 193.559,146.625 192.861,147.022 191.917 C 148.233 189.036,148.772 187.439,148.593 187.260 C 148.499 187.166,148.234 187.609,148.003 188.245 M297.200 187.725 C 297.200 187.882,297.365 188.323,297.566 188.705 C 297.972 189.475,298.626 191.040,299.994 194.514 C 300.495 195.787,301.001 196.732,301.120 196.614 C 301.238 196.496,301.130 195.994,300.879 195.499 C 300.629 195.005,299.865 193.160,299.182 191.400 C 298.075 188.546,297.200 186.925,297.200 187.725 M169.696 190.795 C 168.964 191.967,169.092 192.222,170.000 191.400 C 170.812 190.665,171.048 190.000,170.496 190.000 C 170.329 190.000,169.969 190.358,169.696 190.795 M274.155 190.700 C 274.034 191.085,273.763 191.828,273.552 192.352 C 273.342 192.875,273.262 193.395,273.374 193.507 C 273.612 193.745,274.400 191.809,274.400 190.987 C 274.400 190.652,274.642 190.518,275.000 190.655 C 275.330 190.782,275.600 191.166,275.600 191.509 C 275.600 191.853,275.706 192.027,275.837 191.897 C 275.967 191.767,275.954 191.287,275.810 190.830 C 275.489 189.819,274.457 189.738,274.155 190.700 M251.200 191.600 C 250.921 192.274,250.782 192.916,250.892 193.026 C 251.002 193.136,251.321 192.674,251.600 192.000 C 251.879 191.326,252.018 190.684,251.908 190.574 C 251.798 190.464,251.479 190.926,251.200 191.600 M170.816 191.654 C 170.807 192.014,171.069 192.824,171.398 193.454 C 172.166 194.928,172.180 194.106,171.416 192.346 C 171.094 191.606,170.824 191.294,170.816 191.654 M168.108 194.853 C 167.209 197.454,167.110 198.641,167.987 196.313 C 168.258 195.591,168.663 194.613,168.887 194.139 C 169.110 193.666,169.222 193.067,169.136 192.807 C 169.049 192.548,168.587 193.469,168.108 194.853 M276.163 193.034 C 276.327 193.455,276.830 194.880,277.280 196.200 C 277.730 197.520,278.283 198.780,278.508 199.000 C 278.786 199.272,278.820 199.143,278.613 198.600 C 278.446 198.160,278.214 197.440,278.097 197.000 C 277.980 196.560,277.751 196.020,277.588 195.800 C 277.426 195.580,277.168 194.817,277.015 194.105 C 276.863 193.392,276.542 192.688,276.301 192.539 C 276.009 192.359,275.963 192.523,276.163 193.034 M145.285 194.973 C 144.586 196.508,144.692 197.217,145.413 195.833 C 145.748 195.191,145.965 194.496,145.896 194.288 C 145.827 194.080,145.552 194.388,145.285 194.973 M272.832 194.406 C 272.814 194.519,272.443 195.587,272.007 196.780 C 271.571 197.972,271.296 199.030,271.396 199.130 C 271.607 199.340,272.400 197.384,272.400 196.654 C 272.400 196.382,272.600 195.960,272.845 195.715 C 273.090 195.470,273.194 195.029,273.077 194.735 C 272.959 194.441,272.849 194.293,272.832 194.406 M172.000 195.353 C 172.000 195.683,172.180 196.064,172.400 196.200 C 172.620 196.336,172.800 196.177,172.800 195.847 C 172.800 195.517,172.620 195.136,172.400 195.000 C 172.180 194.864,172.000 195.023,172.000 195.353 M249.285 196.413 C 249.018 196.840,248.807 197.417,248.816 197.695 C 248.825 197.973,249.109 197.689,249.447 197.065 C 250.150 195.768,250.018 195.238,249.285 196.413 M172.809 196.992 C 172.799 197.443,174.608 202.422,175.428 204.200 C 176.337 206.170,176.074 204.817,174.963 201.808 C 173.739 198.495,172.822 196.444,172.809 196.992 M301.225 197.476 C 301.283 198.252,303.137 201.733,303.167 201.124 C 303.185 200.752,303.034 200.345,302.831 200.219 C 302.628 200.094,302.344 199.455,302.200 198.800 C 301.968 197.744,301.162 196.650,301.225 197.476 M166.393 199.698 C 166.097 200.634,165.732 201.580,165.581 201.800 C 165.430 202.020,164.935 203.280,164.480 204.600 C 164.026 205.920,163.108 208.520,162.439 210.379 C 161.771 212.237,161.284 213.818,161.358 213.891 C 161.432 213.965,161.715 213.435,161.987 212.713 C 162.258 211.991,162.629 211.040,162.809 210.600 C 162.990 210.160,163.441 208.900,163.811 207.800 C 164.521 205.692,164.796 204.949,165.588 203.000 C 166.505 200.743,167.258 198.324,167.093 198.160 C 167.003 198.070,166.688 198.762,166.393 199.698 M96.800 198.962 C 96.800 199.051,97.577 199.579,98.526 200.136 C 100.681 201.399,104.219 205.192,105.012 207.091 C 105.341 207.879,105.703 208.431,105.815 208.318 C 106.238 207.895,104.128 204.606,102.200 202.682 C 99.909 200.394,96.800 198.253,96.800 198.962 M143.244 200.044 C 142.952 200.705,142.798 201.331,142.902 201.436 C 143.007 201.540,143.321 201.074,143.600 200.400 C 144.262 198.801,143.938 198.477,143.244 200.044 M247.801 199.995 C 247.657 200.653,247.372 201.294,247.169 201.419 C 246.966 201.545,246.811 202.042,246.825 202.524 C 246.849 203.357,246.872 203.351,247.291 202.400 C 248.272 200.169,248.688 198.800,248.385 198.800 C 248.208 198.800,247.945 199.338,247.801 199.995 M197.213 199.705 C 197.206 199.873,197.358 200.323,197.552 200.705 C 197.746 201.087,198.184 202.030,198.526 202.800 C 198.869 203.570,199.160 203.896,199.174 203.524 C 199.188 203.152,199.020 202.736,198.800 202.600 C 198.580 202.464,198.400 202.038,198.400 201.653 C 198.400 200.982,197.239 199.077,197.213 199.705 M270.500 200.685 C 269.783 202.226,269.886 203.228,270.617 201.825 C 270.954 201.179,271.178 200.417,271.115 200.131 C 271.052 199.844,270.775 200.094,270.500 200.685 M278.830 200.200 C 278.828 201.037,279.961 203.336,279.986 202.546 C 279.994 202.296,279.737 201.486,279.416 200.746 C 279.012 199.817,278.831 199.648,278.830 200.200 M142.003 203.045 C 141.495 204.445,141.075 205.446,140.386 206.899 C 140.100 207.504,139.961 208.095,140.078 208.212 C 140.196 208.329,140.856 207.039,141.545 205.345 C 142.235 203.652,142.715 202.181,142.611 202.078 C 142.507 201.974,142.234 202.409,142.003 203.045 M303.200 202.115 C 303.200 202.349,303.678 203.613,304.442 205.400 C 304.630 205.840,304.972 206.720,305.203 207.355 C 305.434 207.991,305.709 208.424,305.815 208.319 C 305.920 208.213,305.462 206.804,304.795 205.188 C 303.652 202.417,303.200 201.545,303.200 202.115 M280.012 203.620 C 280.005 203.961,280.149 204.411,280.330 204.620 C 280.512 204.829,280.901 205.766,281.195 206.702 C 281.489 207.638,281.803 208.330,281.893 208.240 C 282.080 208.053,280.952 204.586,280.394 203.631 C 280.065 203.069,280.023 203.068,280.012 203.620 M199.200 204.521 C 199.200 204.662,202.486 212.825,203.580 215.400 C 203.766 215.840,204.142 216.791,204.413 217.513 C 204.685 218.235,204.998 218.735,205.109 218.625 C 205.219 218.514,204.115 215.552,202.655 212.043 C 201.195 208.534,200.000 205.480,200.000 205.255 C 200.000 205.031,199.820 204.736,199.600 204.600 C 199.380 204.464,199.200 204.429,199.200 204.521 M245.285 206.173 C 244.586 207.708,244.692 208.417,245.413 207.033 C 245.748 206.391,245.965 205.696,245.896 205.488 C 245.827 205.280,245.552 205.588,245.285 206.173 M268.454 206.387 C 268.204 207.054,267.796 208.146,267.546 208.813 C 267.297 209.480,267.189 210.122,267.306 210.240 C 267.424 210.357,267.731 209.767,267.988 208.927 C 268.245 208.087,268.653 206.995,268.895 206.501 C 269.137 206.006,269.238 205.505,269.121 205.388 C 269.004 205.270,268.703 205.720,268.454 206.387 M36.868 207.200 C 37.041 207.721,39.810 207.814,58.004 207.904 C 69.519 207.961,78.819 207.886,78.671 207.738 C 78.523 207.590,69.301 207.511,58.177 207.563 C 41.889 207.639,37.827 207.555,37.311 207.129 C 36.770 206.683,36.701 206.694,36.868 207.200 M176.816 208.054 C 176.807 208.414,177.069 209.224,177.398 209.854 C 178.166 211.328,178.180 210.506,177.416 208.746 C 177.094 208.006,176.824 207.694,176.816 208.054 M80.339 208.678 C 81.075 209.041,81.770 209.577,81.882 209.869 C 81.994 210.161,82.280 210.400,82.518 210.400 C 82.755 210.400,82.432 209.860,81.800 209.200 C 81.168 208.540,80.279 208.004,79.825 208.009 C 79.193 208.016,79.312 208.172,80.339 208.678 M106.271 210.000 C 106.663 211.788,106.670 218.569,106.281 220.400 C 106.066 221.411,106.150 221.300,106.585 220.000 C 107.375 217.641,107.369 212.274,106.576 210.200 C 105.985 208.656,105.974 208.649,106.271 210.000 M139.299 209.591 C 139.024 210.030,138.801 210.707,138.802 211.095 C 138.804 211.568,139.005 211.417,139.413 210.633 C 140.125 209.269,140.031 208.418,139.299 209.591 M282.026 209.220 C 282.012 209.561,282.143 210.011,282.318 210.220 C 282.493 210.429,282.878 211.320,283.173 212.200 C 284.136 215.068,284.419 215.714,284.626 215.507 C 284.738 215.395,284.621 214.785,284.365 214.152 C 284.110 213.518,283.767 212.640,283.605 212.200 C 282.863 210.193,282.049 208.656,282.026 209.220 M306.009 209.105 C 306.004 209.383,306.168 209.923,306.373 210.305 C 306.578 210.687,307.307 212.440,307.994 214.200 C 309.420 217.855,309.671 218.465,310.548 220.400 C 311.593 222.709,311.281 221.048,310.157 218.326 C 309.583 216.937,308.966 215.440,308.784 215.000 C 306.750 210.068,306.020 208.517,306.009 209.105 M243.244 211.244 C 242.952 211.905,242.798 212.531,242.902 212.636 C 243.007 212.740,243.321 212.274,243.600 211.600 C 244.262 210.001,243.938 209.677,243.244 211.244 M82.920 212.800 C 82.920 214.010,82.995 214.505,83.087 213.900 C 83.178 213.295,83.178 212.305,83.087 211.700 C 82.995 211.095,82.920 211.590,82.920 212.800 M266.800 210.839 C 266.800 210.934,266.443 211.987,266.007 213.180 C 265.571 214.372,265.277 215.411,265.354 215.487 C 265.430 215.563,265.715 215.035,265.987 214.313 C 266.258 213.591,266.673 212.595,266.908 212.101 C 267.142 211.606,267.214 211.081,267.067 210.934 C 266.920 210.787,266.800 210.744,266.800 210.839 M178.825 213.705 C 178.811 214.093,178.980 214.723,179.200 215.105 C 179.420 215.487,179.785 216.320,180.011 216.955 C 180.237 217.591,180.499 218.034,180.593 217.940 C 180.759 217.774,180.180 216.021,179.291 214.000 C 178.970 213.270,178.844 213.191,178.825 213.705 M242.003 214.245 C 241.772 214.880,241.430 215.760,241.242 216.200 C 240.282 218.444,239.985 219.318,240.131 219.464 C 240.219 219.552,240.856 218.239,241.545 216.545 C 242.235 214.852,242.715 213.381,242.611 213.278 C 242.507 213.174,242.234 213.609,242.003 214.245 M137.300 214.693 C 136.588 216.211,136.684 216.833,137.413 215.433 C 137.748 214.791,137.972 214.122,137.911 213.946 C 137.850 213.770,137.575 214.106,137.300 214.693 M160.393 216.098 C 160.097 217.034,159.732 217.980,159.581 218.200 C 159.430 218.420,158.936 219.680,158.484 221.000 C 158.031 222.320,157.531 223.760,157.372 224.200 C 157.175 224.743,157.214 224.871,157.492 224.600 C 157.717 224.380,158.276 223.120,158.734 221.800 C 159.192 220.480,159.952 218.353,160.423 217.073 C 160.894 215.793,161.200 214.667,161.104 214.571 C 161.008 214.475,160.688 215.162,160.393 216.098 M264.410 217.646 C 264.105 218.611,263.691 219.619,263.490 219.887 C 263.289 220.154,263.197 220.590,263.285 220.855 C 263.374 221.121,263.679 220.722,263.963 219.969 C 264.248 219.216,264.663 218.213,264.887 217.739 C 265.110 217.266,265.219 216.657,265.128 216.385 C 265.038 216.114,264.715 216.681,264.410 217.646 M284.830 216.600 C 284.828 217.437,285.961 219.736,285.986 218.946 C 285.994 218.696,285.737 217.886,285.416 217.146 C 285.012 216.217,284.831 216.048,284.830 216.600 M136.003 217.845 C 135.772 218.480,135.377 219.405,135.124 219.899 C 134.872 220.394,134.760 220.893,134.875 221.009 C 134.991 221.124,135.473 220.286,135.947 219.147 C 136.420 218.007,136.721 216.988,136.615 216.882 C 136.509 216.776,136.234 217.209,136.003 217.845 M180.832 218.851 C 180.814 219.209,181.043 220.109,181.341 220.851 C 181.638 221.593,182.003 222.541,182.150 222.957 C 182.298 223.374,182.511 223.622,182.624 223.509 C 182.737 223.396,182.621 222.785,182.365 222.152 C 181.390 219.735,181.253 219.383,181.061 218.800 C 180.897 218.304,180.858 218.313,180.832 218.851 M56.800 219.202 C 45.910 219.321,36.955 219.460,36.900 219.509 C 36.260 220.089,39.652 220.167,56.900 219.971 C 69.835 219.823,77.428 219.586,78.200 219.305 L 79.400 218.869 78.000 218.927 C 77.230 218.959,67.690 219.083,56.800 219.202 M239.317 220.901 C 238.386 222.906,237.981 224.114,238.174 224.307 C 238.286 224.419,238.566 223.991,238.797 223.355 C 239.028 222.720,239.423 221.795,239.676 221.301 C 239.928 220.806,240.045 220.311,239.935 220.201 C 239.825 220.091,239.547 220.406,239.317 220.901 M206.009 221.037 C 206.002 221.393,207.405 224.996,209.579 230.200 C 210.528 232.472,211.183 233.752,211.191 233.351 C 211.196 233.105,210.281 230.675,209.157 227.951 C 206.610 221.779,206.021 220.484,206.009 221.037 M262.684 222.210 C 262.544 222.645,262.160 223.713,261.832 224.585 C 261.504 225.456,261.313 226.246,261.407 226.340 C 261.610 226.543,262.400 224.564,262.400 223.854 C 262.400 223.582,262.600 223.160,262.845 222.915 C 263.090 222.670,263.211 222.234,263.115 221.945 C 263.001 221.603,262.851 221.695,262.684 222.210 M286.816 221.854 C 286.807 222.104,287.063 222.914,287.384 223.654 C 287.706 224.394,287.976 224.796,287.984 224.546 C 287.993 224.296,287.737 223.486,287.416 222.746 C 287.094 222.006,286.824 221.604,286.816 221.854 M104.669 223.860 C 102.715 227.707,99.448 230.624,95.019 232.478 C 93.939 232.930,93.676 233.163,94.227 233.178 C 95.808 233.220,101.264 229.436,103.270 226.905 C 104.299 225.608,106.061 222.328,105.846 222.112 C 105.740 222.007,105.210 222.793,104.669 223.860 M133.299 224.391 C 133.024 224.830,132.801 225.507,132.802 225.895 C 132.804 226.368,133.005 226.217,133.413 225.433 C 134.125 224.069,134.031 223.218,133.299 224.391 M312.002 223.854 C 312.001 224.104,312.269 224.824,312.598 225.454 C 312.926 226.084,313.196 226.396,313.198 226.146 C 313.199 225.896,312.931 225.176,312.602 224.546 C 312.274 223.916,312.004 223.604,312.002 223.854 M182.816 224.454 C 182.807 224.814,183.069 225.624,183.398 226.254 C 184.166 227.728,184.180 226.906,183.416 225.146 C 183.094 224.406,182.824 224.094,182.816 224.454 M237.244 226.044 C 236.952 226.705,236.798 227.331,236.902 227.436 C 237.007 227.540,237.321 227.074,237.600 226.400 C 238.262 224.801,237.938 224.477,237.244 226.044 M156.330 227.000 C 155.969 228.100,155.536 229.345,155.369 229.766 C 155.165 230.279,155.208 230.442,155.501 230.261 C 155.742 230.112,156.063 229.408,156.215 228.695 C 156.368 227.983,156.666 227.184,156.879 226.919 C 157.092 226.655,157.203 226.115,157.127 225.719 C 157.044 225.291,156.722 225.808,156.330 227.000 M288.026 225.620 C 288.012 225.961,288.143 226.411,288.318 226.620 C 288.493 226.829,288.878 227.720,289.173 228.600 C 290.136 231.468,290.419 232.114,290.626 231.907 C 290.738 231.795,290.621 231.185,290.365 230.552 C 290.110 229.918,289.767 229.040,289.605 228.600 C 288.863 226.593,288.049 225.056,288.026 225.620 M260.410 228.446 C 260.105 229.411,259.691 230.419,259.490 230.687 C 259.289 230.954,259.197 231.390,259.285 231.655 C 259.374 231.921,259.679 231.522,259.963 230.769 C 260.248 230.016,260.663 229.013,260.887 228.539 C 261.110 228.066,261.219 227.457,261.128 227.185 C 261.038 226.914,260.715 227.481,260.410 228.446 M131.299 229.191 C 131.024 229.630,130.801 230.307,130.802 230.695 C 130.804 231.168,131.005 231.017,131.413 230.233 C 132.125 228.869,132.031 228.018,131.299 229.191 M314.009 228.689 C 314.004 228.957,314.460 230.216,315.021 231.486 C 315.583 232.756,315.957 234.122,315.853 234.520 C 315.737 234.961,315.847 235.181,316.131 235.081 C 316.854 234.828,316.585 233.851,314.563 229.400 C 314.263 228.740,314.014 228.420,314.009 228.689 M184.833 230.000 C 184.848 230.330,185.344 231.770,185.935 233.200 L 187.009 235.800 199.260 235.906 C 212.064 236.016,212.745 235.928,211.735 234.296 C 211.576 234.038,211.339 234.213,211.147 234.732 C 210.827 235.595,210.764 235.600,199.262 235.600 C 186.587 235.600,187.293 235.742,186.354 233.000 C 185.631 230.890,184.798 229.246,184.833 230.000 M235.244 230.844 C 234.952 231.505,234.798 232.131,234.902 232.236 C 235.007 232.340,235.321 231.874,235.600 231.200 C 236.262 229.601,235.938 229.277,235.244 230.844 M154.500 231.893 C 154.225 232.479,154.007 233.239,154.016 233.580 C 154.024 233.921,154.299 233.584,154.626 232.830 C 155.334 231.199,155.221 230.356,154.500 231.893 M258.269 233.938 L 257.539 235.400 258.408 234.550 C 258.887 234.082,259.215 233.425,259.139 233.088 C 259.052 232.704,258.728 233.020,258.269 233.938 M290.859 233.000 C 290.824 233.836,291.659 235.200,292.206 235.200 C 292.381 235.200,292.245 234.885,291.903 234.500 C 291.562 234.115,291.195 233.440,291.088 233.000 L 290.893 232.200 290.859 233.000 M91.400 233.600 L 90.600 233.944 91.400 233.966 C 91.840 233.978,92.470 233.813,92.800 233.600 C 93.595 233.086,92.596 233.086,91.400 233.600 M129.370 234.177 C 129.235 234.715,129.242 235.345,129.386 235.577 C 129.778 236.212,152.883 236.157,153.520 235.520 C 154.297 234.743,154.069 234.214,153.269 234.938 C 152.625 235.520,151.208 235.600,141.492 235.600 C 129.983 235.600,129.663 235.553,129.935 233.900 C 130.110 232.838,129.650 233.063,129.370 234.177 M86.330 234.203 C 86.218 234.315,84.523 234.575,82.563 234.780 L 79.000 235.153 82.600 234.965 C 84.580 234.861,87.190 234.627,88.400 234.445 L 90.600 234.113 88.567 234.056 C 87.448 234.025,86.442 234.092,86.330 234.203 " stroke="none" fill="#9b9795" fill-rule="evenodd"></path><path id="path3" d="M37.200 165.500 C 37.200 165.665,48.282 165.800,61.826 165.800 C 75.370 165.800,86.035 165.683,85.526 165.540 C 84.221 165.173,37.200 165.135,37.200 165.500 M261.865 166.871 C 261.504 167.790,261.272 168.606,261.350 168.684 C 261.428 168.762,261.731 168.235,262.023 167.513 C 262.811 165.566,262.480 165.613,275.451 165.606 C 287.494 165.600,287.503 165.601,288.148 166.500 C 288.784 167.387,288.787 167.385,288.333 166.300 L 287.872 165.200 275.196 165.200 L 262.521 165.200 261.865 166.871 M157.900 166.032 C 157.515 166.256,157.200 166.639,157.200 166.882 C 157.200 167.126,157.523 167.032,157.923 166.670 C 158.541 166.110,160.011 165.998,168.023 165.900 L 177.400 165.785 168.000 165.704 C 162.189 165.655,158.333 165.780,157.900 166.032 M182.711 166.223 C 183.200 166.565,183.614 167.150,183.632 167.523 C 183.653 167.975,183.733 168.026,183.873 167.677 C 184.103 167.102,182.929 165.600,182.249 165.600 C 182.014 165.600,182.222 165.880,182.711 166.223 M340.000 165.900 C 339.999 166.065,343.374 166.154,347.500 166.098 C 361.670 165.904,362.981 165.769,351.500 165.684 C 345.175 165.638,340.000 165.735,340.000 165.900 M88.400 166.411 C 89.170 166.587,90.250 166.846,90.800 166.987 C 91.447 167.153,91.325 167.024,90.454 166.622 C 89.714 166.280,88.634 166.021,88.054 166.046 C 87.147 166.086,87.196 166.137,88.400 166.411 M92.800 167.800 C 93.350 168.114,93.980 168.372,94.200 168.372 C 94.420 168.372,94.150 168.114,93.600 167.800 C 93.050 167.486,92.420 167.228,92.200 167.228 C 91.980 167.228,92.250 167.486,92.800 167.800 M156.455 168.921 C 156.168 169.625,155.776 170.560,155.584 171.000 C 154.653 173.137,154.001 174.941,154.013 175.349 C 154.020 175.597,154.576 174.450,155.248 172.800 C 155.920 171.150,156.665 169.395,156.902 168.901 C 157.140 168.406,157.254 167.921,157.155 167.822 C 157.057 167.724,156.742 168.218,156.455 168.921 M288.830 168.000 C 288.828 168.576,289.957 170.866,289.986 170.346 C 289.994 170.206,289.737 169.486,289.416 168.746 C 289.094 168.006,288.831 167.670,288.830 168.000 M96.022 169.480 C 96.053 169.922,98.395 171.739,98.631 171.503 C 98.736 171.398,98.187 170.827,97.411 170.235 C 96.635 169.644,96.010 169.303,96.022 169.480 M260.053 171.253 C 258.935 173.946,259.187 174.198,260.373 171.573 C 260.876 170.462,261.203 169.469,261.100 169.367 C 260.998 169.265,260.527 170.114,260.053 171.253 M184.802 170.254 C 184.801 170.504,185.069 171.224,185.398 171.854 C 185.726 172.484,185.996 172.796,185.998 172.546 C 185.999 172.296,185.731 171.576,185.402 170.946 C 185.074 170.316,184.804 170.004,184.802 170.254 M290.033 171.233 C 290.015 171.582,290.135 172.002,290.300 172.167 C 290.465 172.331,290.905 173.216,291.278 174.133 C 291.650 175.050,291.954 175.530,291.953 175.200 C 291.950 174.346,290.073 170.468,290.033 171.233 M99.753 173.303 C 100.299 174.019,101.027 175.144,101.371 175.803 C 101.714 176.461,101.996 176.778,101.998 176.506 C 102.001 175.790,99.602 172.000,99.145 172.000 C 98.933 172.000,99.206 172.586,99.753 173.303 M258.485 174.973 C 257.786 176.508,257.892 177.217,258.613 175.833 C 258.948 175.191,259.165 174.496,259.096 174.288 C 259.027 174.080,258.752 174.388,258.485 174.973 M186.828 175.400 C 186.828 175.620,187.086 176.250,187.400 176.800 C 187.714 177.350,187.972 177.620,187.972 177.400 C 187.972 177.180,187.714 176.550,187.400 176.000 C 187.086 175.450,186.828 175.180,186.828 175.400 M152.485 178.573 C 151.786 180.108,151.892 180.817,152.613 179.433 C 152.948 178.791,153.165 178.096,153.096 177.888 C 153.027 177.680,152.752 177.988,152.485 178.573 M292.802 177.854 C 292.801 178.104,293.069 178.824,293.398 179.454 C 293.726 180.084,293.996 180.396,293.998 180.146 C 293.999 179.896,293.731 179.176,293.402 178.546 C 293.074 177.916,292.804 177.604,292.802 177.854 M37.200 180.100 C 37.200 180.265,45.705 180.402,56.100 180.405 C 66.495 180.408,75.450 180.525,76.000 180.665 C 76.583 180.812,76.861 180.768,76.667 180.559 C 76.266 180.126,37.200 179.672,37.200 180.100 M102.931 182.600 C 102.933 184.140,103.005 184.721,103.092 183.891 C 103.179 183.061,103.177 181.801,103.089 181.091 C 103.000 180.381,102.929 181.060,102.931 182.600 M188.833 180.305 C 188.815 180.583,188.980 181.123,189.200 181.505 C 189.420 181.887,189.785 182.720,190.011 183.355 C 190.237 183.991,190.514 184.419,190.626 184.307 C 190.738 184.195,190.388 183.135,189.848 181.952 C 189.308 180.768,188.851 180.027,188.833 180.305 M78.281 181.584 C 81.023 183.256,81.710 188.437,79.408 190.094 C 79.144 190.284,79.166 190.390,79.471 190.394 C 80.201 190.403,81.200 188.048,81.200 186.319 C 81.200 183.841,79.242 180.847,77.600 180.815 C 77.270 180.808,77.576 181.154,78.281 181.584 M255.700 182.100 C 255.270 183.275,255.280 183.326,255.812 182.624 C 256.321 181.952,256.621 180.800,256.288 180.800 C 256.226 180.800,255.961 181.385,255.700 182.100 M150.413 183.687 C 150.142 184.409,149.766 185.360,149.580 185.800 C 147.636 190.377,145.222 196.556,145.334 196.668 C 145.412 196.745,146.598 194.062,147.971 190.704 C 149.343 187.347,150.661 184.195,150.900 183.701 C 151.139 183.206,151.238 182.705,151.121 182.588 C 151.004 182.470,150.685 182.965,150.413 183.687 M294.830 182.800 C 294.828 183.376,295.957 185.666,295.986 185.146 C 295.994 185.006,295.737 184.286,295.416 183.546 C 295.094 182.806,294.831 182.470,294.830 182.800 M190.802 185.054 C 190.801 185.304,191.069 186.024,191.398 186.654 C 191.726 187.284,191.996 187.596,191.998 187.346 C 191.999 187.096,191.731 186.376,191.402 185.746 C 191.074 185.116,190.804 184.804,190.802 185.054 M253.915 186.210 C 253.792 186.645,253.569 187.360,253.420 187.800 C 253.271 188.240,253.442 188.094,253.800 187.476 C 254.158 186.858,254.381 186.142,254.295 185.886 C 254.210 185.630,254.039 185.776,253.915 186.210 M296.817 187.451 C 296.808 187.699,297.043 188.509,297.341 189.251 C 297.638 189.993,298.003 190.941,298.150 191.357 C 298.298 191.774,298.504 192.029,298.609 191.924 C 298.714 191.820,298.357 190.669,297.817 189.367 C 297.276 188.065,296.826 187.203,296.817 187.451 M101.308 189.497 C 100.594 191.106,98.500 193.523,96.673 194.846 C 95.797 195.481,95.225 196.000,95.402 196.000 C 95.813 196.000,98.438 194.029,99.110 193.216 C 100.551 191.473,102.042 189.127,101.928 188.783 C 101.856 188.569,101.578 188.890,101.308 189.497 M252.485 189.773 C 251.786 191.308,251.892 192.017,252.613 190.633 C 252.948 189.991,253.165 189.296,253.096 189.088 C 253.027 188.880,252.752 189.188,252.485 189.773 M169.661 190.029 C 169.187 190.470,168.811 191.139,168.825 191.516 C 168.845 192.043,168.930 192.003,169.197 191.341 C 169.665 190.183,170.413 189.776,170.839 190.449 C 171.117 190.889,171.189 190.864,171.194 190.324 C 171.203 189.268,170.602 189.153,169.661 190.029 M274.000 189.596 C 274.000 189.844,274.188 189.931,274.418 189.789 C 274.647 189.647,275.126 189.772,275.483 190.066 C 276.031 190.518,276.100 190.508,275.934 190.000 C 275.702 189.293,274.000 188.937,274.000 189.596 M192.800 190.078 C 192.800 190.205,193.069 190.824,193.398 191.454 C 193.726 192.084,193.990 192.330,193.985 192.000 C 193.979 191.670,193.710 191.051,193.387 190.624 C 193.064 190.196,192.800 189.951,192.800 190.078 M77.776 191.387 C 77.349 191.710,77.180 191.975,77.400 191.975 C 77.620 191.975,78.149 191.710,78.576 191.387 C 79.004 191.064,79.173 190.800,78.953 190.800 C 78.733 190.800,78.204 191.064,77.776 191.387 M273.237 191.911 C 272.953 192.598,272.814 193.393,272.928 193.680 C 273.046 193.974,273.151 193.844,273.168 193.380 C 273.186 192.929,273.400 192.360,273.645 192.115 C 273.890 191.870,274.014 191.443,273.922 191.166 C 273.830 190.889,273.521 191.224,273.237 191.911 M276.017 191.200 C 276.031 191.917,277.165 194.000,277.186 193.346 C 277.194 193.096,276.931 192.376,276.602 191.746 C 276.274 191.116,276.010 190.870,276.017 191.200 M171.406 191.800 C 171.553 192.240,171.955 193.457,172.299 194.504 C 172.643 195.552,172.999 196.334,173.091 196.242 C 173.297 196.037,172.114 192.494,171.551 191.631 C 171.216 191.118,171.189 191.149,171.406 191.800 M47.128 192.300 C 52.698 192.363,61.698 192.362,67.128 192.300 C 72.558 192.237,68.000 192.185,57.000 192.186 C 46.000 192.186,41.558 192.237,47.128 192.300 M298.814 192.454 C 298.806 192.594,299.063 193.314,299.384 194.054 C 299.706 194.794,299.969 195.130,299.970 194.800 C 299.972 194.224,298.843 191.934,298.814 192.454 M250.462 194.921 C 250.179 195.625,249.767 196.533,249.546 196.939 C 249.325 197.345,249.240 197.774,249.357 197.891 C 249.474 198.008,249.779 197.585,250.035 196.952 C 250.290 196.318,250.687 195.395,250.917 194.901 C 251.147 194.406,251.254 193.921,251.155 193.822 C 251.057 193.724,250.745 194.218,250.462 194.921 M167.291 195.700 C 166.610 197.584,166.704 198.094,167.426 196.430 C 167.753 195.677,167.966 194.899,167.901 194.702 C 167.835 194.505,167.560 194.954,167.291 195.700 M277.200 194.482 C 277.200 194.793,278.789 198.923,278.984 199.117 C 279.103 199.236,279.200 199.044,279.200 198.690 C 279.200 198.337,279.040 197.949,278.845 197.828 C 278.650 197.707,278.373 196.983,278.230 196.218 C 278.031 195.157,277.200 193.756,277.200 194.482 M194.827 195.200 C 194.826 195.530,195.090 196.149,195.413 196.576 C 196.160 197.564,196.152 196.915,195.400 195.600 C 195.068 195.020,194.828 194.852,194.827 195.200 M271.291 197.300 C 270.610 199.184,270.704 199.694,271.426 198.030 C 271.753 197.277,271.966 196.499,271.901 196.302 C 271.835 196.105,271.560 196.554,271.291 197.300 M92.628 197.155 C 92.322 197.649,93.462 198.520,94.087 198.269 C 94.394 198.146,94.301 198.050,93.857 198.032 C 93.367 198.011,93.193 197.796,93.345 197.400 C 93.590 196.761,92.997 196.558,92.628 197.155 M144.485 198.173 C 143.786 199.708,143.892 200.417,144.613 199.033 C 144.948 198.391,145.165 197.696,145.096 197.488 C 145.027 197.280,144.752 197.588,144.485 198.173 M300.802 197.454 C 300.801 197.704,301.069 198.424,301.398 199.054 C 301.726 199.684,301.996 199.996,301.998 199.746 C 301.999 199.496,301.731 198.776,301.402 198.146 C 301.074 197.516,300.804 197.204,300.802 197.454 M174.032 199.000 C 174.030 199.440,174.286 200.250,174.600 200.800 C 175.330 202.078,175.334 201.804,174.612 199.800 C 174.295 198.920,174.034 198.560,174.032 199.000 M96.800 199.623 C 96.800 199.822,97.250 200.098,97.800 200.236 C 98.350 200.374,98.800 200.604,98.800 200.747 C 98.800 200.890,99.205 201.256,99.700 201.560 C 100.598 202.112,100.598 202.111,99.835 201.254 C 98.940 200.247,96.800 199.098,96.800 199.623 M196.814 199.854 C 196.806 200.104,197.069 200.824,197.398 201.454 C 197.726 202.084,197.990 202.330,197.983 202.000 C 197.969 201.283,196.835 199.200,196.814 199.854 M165.244 201.244 C 164.952 201.905,164.798 202.531,164.902 202.636 C 165.007 202.740,165.321 202.274,165.600 201.600 C 166.262 200.001,165.938 199.677,165.244 201.244 M247.915 201.010 C 247.792 201.445,247.569 202.160,247.420 202.600 C 247.271 203.040,247.442 202.894,247.800 202.276 C 248.158 201.658,248.381 200.942,248.295 200.686 C 248.210 200.430,248.039 200.576,247.915 201.010 M269.291 202.900 C 268.610 204.784,268.704 205.294,269.426 203.630 C 269.753 202.877,269.966 202.099,269.901 201.902 C 269.835 201.705,269.560 202.154,269.291 202.900 M280.030 202.000 C 280.028 202.576,281.157 204.866,281.186 204.346 C 281.194 204.206,280.937 203.486,280.616 202.746 C 280.294 202.006,280.031 201.670,280.030 202.000 M100.800 202.130 C 100.800 202.518,102.435 204.099,102.632 203.902 C 102.723 203.811,102.348 203.314,101.798 202.799 C 101.249 202.283,100.800 201.982,100.800 202.130 M302.832 202.267 C 302.793 202.837,304.293 206.400,304.572 206.400 C 304.682 206.400,304.446 205.635,304.048 204.700 C 303.650 203.765,303.220 202.730,303.094 202.400 C 302.967 202.070,302.849 202.010,302.832 202.267 M246.465 204.617 C 246.209 205.178,246.007 205.854,246.016 206.119 C 246.024 206.383,246.297 205.988,246.622 205.239 C 247.305 203.665,247.161 203.090,246.465 204.617 M103.600 205.600 C 104.070 206.260,104.544 206.800,104.654 206.800 C 104.764 206.800,104.470 206.260,104.000 205.600 C 103.530 204.940,103.056 204.400,102.946 204.400 C 102.836 204.400,103.130 204.940,103.600 205.600 M198.802 204.654 C 198.801 204.904,199.069 205.624,199.398 206.254 C 199.726 206.884,199.996 207.196,199.998 206.946 C 199.999 206.696,199.731 205.976,199.402 205.346 C 199.074 204.716,198.804 204.404,198.802 204.654 M281.226 205.206 C 281.187 205.517,282.737 209.670,282.984 209.917 C 283.330 210.263,283.233 209.255,282.848 208.495 C 282.654 208.113,282.216 207.170,281.874 206.400 C 281.531 205.630,281.240 205.093,281.226 205.206 M163.300 206.693 C 162.588 208.211,162.684 208.833,163.413 207.433 C 163.748 206.791,163.972 206.122,163.911 205.946 C 163.850 205.770,163.575 206.106,163.300 206.693 M57.800 207.206 C 69.240 207.329,79.050 207.575,79.600 207.752 C 80.475 208.034,80.457 207.994,79.454 207.437 C 78.441 206.874,75.912 206.811,57.654 206.891 L 37.000 206.983 57.800 207.206 M267.277 208.138 C 267.015 208.864,266.809 209.714,266.819 210.028 C 266.830 210.343,267.112 209.818,267.447 208.861 C 267.782 207.905,267.988 207.055,267.905 206.971 C 267.822 206.888,267.539 207.413,267.277 208.138 M104.814 207.454 C 104.806 207.704,105.069 208.424,105.398 209.054 C 105.726 209.684,105.990 209.930,105.983 209.600 C 105.969 208.883,104.835 206.800,104.814 207.454 M304.833 207.505 C 304.815 207.783,304.980 208.323,305.200 208.705 C 305.420 209.087,305.785 209.920,306.011 210.555 C 306.237 211.191,306.514 211.619,306.626 211.507 C 306.738 211.395,306.388 210.335,305.848 209.152 C 305.308 207.968,304.851 207.227,304.833 207.505 M244.485 209.373 C 243.786 210.908,243.892 211.617,244.613 210.233 C 244.948 209.591,245.165 208.896,245.096 208.688 C 245.027 208.480,244.752 208.788,244.485 209.373 M139.915 209.410 C 139.792 209.845,139.569 210.560,139.420 211.000 C 139.271 211.440,139.442 211.294,139.800 210.676 C 140.158 210.058,140.381 209.342,140.295 209.086 C 140.210 208.830,140.039 208.976,139.915 209.410 M200.828 209.800 C 200.827 210.240,201.090 210.949,201.413 211.376 C 202.156 212.359,202.157 212.053,201.416 210.346 C 201.011 209.414,200.830 209.246,200.828 209.800 M178.016 209.854 C 178.007 210.104,178.263 210.914,178.584 211.654 C 178.906 212.394,179.176 212.796,179.184 212.546 C 179.193 212.296,178.937 211.486,178.616 210.746 C 178.294 210.006,178.024 209.604,178.016 209.854 M83.261 212.800 C 83.271 214.790,83.307 214.879,83.637 213.739 C 83.861 212.967,83.857 212.113,83.627 211.539 C 83.325 210.785,83.253 211.034,83.261 212.800 M106.200 215.239 C 106.200 217.663,106.317 219.232,106.460 218.724 C 106.806 217.494,106.815 212.379,106.472 211.515 C 106.322 211.138,106.200 212.814,106.200 215.239 M161.291 212.100 C 160.610 213.984,160.704 214.494,161.426 212.830 C 161.753 212.077,161.966 211.299,161.901 211.102 C 161.835 210.905,161.560 211.354,161.291 212.100 M283.226 210.806 C 283.187 211.117,284.737 215.270,284.984 215.517 C 285.330 215.863,285.233 214.855,284.848 214.095 C 284.654 213.713,284.216 212.770,283.874 212.000 C 283.531 211.230,283.240 210.693,283.226 210.806 M138.465 213.017 C 138.209 213.578,138.007 214.254,138.016 214.519 C 138.024 214.783,138.297 214.388,138.622 213.639 C 139.305 212.065,139.161 211.490,138.465 213.017 M306.802 212.254 C 306.801 212.504,307.069 213.224,307.398 213.854 C 307.726 214.484,307.996 214.796,307.998 214.546 C 307.999 214.296,307.731 213.576,307.402 212.946 C 307.074 212.316,306.804 212.004,306.802 212.254 M265.291 213.700 C 264.610 215.584,264.704 216.094,265.426 214.430 C 265.753 213.677,265.966 212.899,265.901 212.702 C 265.835 212.505,265.560 212.954,265.291 213.700 M179.226 213.206 C 179.187 213.517,180.737 217.670,180.984 217.917 C 181.330 218.263,181.233 217.255,180.848 216.495 C 180.654 216.113,180.216 215.170,179.874 214.400 C 179.531 213.630,179.240 213.093,179.226 213.206 M242.420 214.487 C 242.153 215.209,241.756 216.133,241.539 216.539 C 241.322 216.945,241.240 217.374,241.357 217.491 C 241.474 217.608,241.779 217.185,242.035 216.552 C 242.290 215.918,242.687 214.995,242.917 214.501 C 243.147 214.006,243.238 213.505,243.121 213.388 C 243.004 213.270,242.688 213.765,242.420 214.487 M202.827 214.800 C 202.826 215.130,203.090 215.749,203.413 216.176 C 204.160 217.164,204.152 216.515,203.400 215.200 C 203.068 214.620,202.828 214.452,202.827 214.800 M82.608 215.975 C 82.472 216.402,81.734 217.302,80.967 217.975 C 80.200 218.649,79.728 219.200,79.919 219.200 C 80.475 219.200,83.200 216.320,83.200 215.733 C 83.200 214.955,82.892 215.081,82.608 215.975 M159.244 217.644 C 158.952 218.305,158.798 218.931,158.902 219.036 C 159.007 219.140,159.321 218.674,159.600 218.000 C 160.262 216.401,159.938 216.077,159.244 217.644 M136.485 217.773 C 135.786 219.308,135.892 220.017,136.613 218.633 C 136.948 217.991,137.165 217.296,137.096 217.088 C 137.027 216.880,136.752 217.188,136.485 217.773 M308.828 217.400 C 308.828 217.620,309.086 218.250,309.400 218.800 C 309.714 219.350,309.972 219.620,309.972 219.400 C 309.972 219.180,309.714 218.550,309.400 218.000 C 309.086 217.450,308.828 217.180,308.828 217.400 M240.100 220.300 C 239.613 221.537,239.278 222.611,239.355 222.689 C 239.432 222.766,239.902 221.826,240.400 220.600 C 240.898 219.374,241.233 218.299,241.145 218.211 C 241.057 218.124,240.587 219.063,240.100 220.300 M263.291 219.300 C 262.610 221.184,262.704 221.694,263.426 220.030 C 263.753 219.277,263.966 218.499,263.901 218.302 C 263.835 218.105,263.560 218.554,263.291 219.300 M77.000 219.600 L 75.800 219.905 77.000 219.947 C 77.660 219.969,78.470 219.813,78.800 219.600 C 79.543 219.120,78.887 219.120,77.000 219.600 M204.814 219.454 C 204.806 219.704,205.069 220.424,205.398 221.054 C 205.726 221.684,205.990 221.930,205.983 221.600 C 205.969 220.883,204.835 218.800,204.814 219.454 M46.528 220.300 C 51.768 220.363,60.228 220.363,65.328 220.300 C 70.427 220.236,66.140 220.185,55.800 220.185 C 45.460 220.185,41.287 220.237,46.528 220.300 M105.646 220.676 C 105.621 221.158,105.420 221.664,105.200 221.800 C 104.980 221.936,104.807 222.352,104.816 222.724 C 104.827 223.176,105.034 223.028,105.441 222.277 C 105.776 221.659,105.969 220.849,105.871 220.477 C 105.741 219.982,105.680 220.036,105.646 220.676 M157.265 223.017 C 157.009 223.578,156.807 224.254,156.816 224.519 C 156.824 224.783,157.097 224.388,157.422 223.639 C 158.105 222.065,157.961 221.490,157.265 223.017 M310.827 222.400 C 310.826 222.730,311.090 223.349,311.413 223.776 C 312.160 224.764,312.152 224.115,311.400 222.800 C 311.068 222.220,310.828 222.052,310.827 222.400 M238.465 224.217 C 238.209 224.778,238.007 225.454,238.016 225.719 C 238.024 225.983,238.297 225.588,238.622 224.839 C 239.305 223.265,239.161 222.690,238.465 224.217 M133.644 224.844 C 133.352 225.505,133.198 226.131,133.302 226.236 C 133.407 226.340,133.721 225.874,134.000 225.200 C 134.662 223.601,134.338 223.277,133.644 224.844 M261.484 224.210 C 261.344 224.645,260.960 225.713,260.632 226.585 C 260.304 227.456,260.113 228.246,260.207 228.340 C 260.410 228.543,261.200 226.564,261.200 225.854 C 261.200 225.582,261.400 225.160,261.645 224.915 C 261.890 224.670,262.011 224.234,261.915 223.945 C 261.801 223.603,261.651 223.695,261.484 224.210 M288.017 224.000 C 288.031 224.717,289.165 226.800,289.186 226.146 C 289.194 225.896,288.931 225.176,288.602 224.546 C 288.274 223.916,288.010 223.670,288.017 224.000 M183.406 224.600 C 183.553 225.040,183.955 226.257,184.299 227.304 C 184.643 228.352,184.999 229.134,185.091 229.042 C 185.297 228.837,184.114 225.294,183.551 224.431 C 183.216 223.918,183.189 223.949,183.406 224.600 M206.817 224.400 C 206.831 225.117,207.965 227.200,207.986 226.546 C 207.994 226.296,207.731 225.576,207.402 224.946 C 207.074 224.316,206.810 224.070,206.817 224.400 M103.200 225.400 C 102.917 225.741,102.776 226.109,102.886 226.219 C 102.996 226.329,103.317 226.141,103.600 225.800 C 103.883 225.459,104.024 225.091,103.914 224.981 C 103.804 224.871,103.483 225.059,103.200 225.400 M101.489 227.605 C 100.726 228.496,100.584 228.981,101.198 228.601 C 101.590 228.359,102.546 226.800,102.303 226.800 C 102.234 226.800,101.868 227.162,101.489 227.605 M312.814 227.054 C 312.806 227.304,313.069 228.024,313.398 228.654 C 313.726 229.284,313.990 229.530,313.983 229.200 C 313.969 228.483,312.835 226.400,312.814 227.054 M155.300 228.293 C 155.025 228.879,154.807 229.639,154.816 229.980 C 154.824 230.321,155.099 229.984,155.426 229.230 C 156.134 227.599,156.021 226.756,155.300 228.293 M289.226 227.206 C 289.187 227.517,290.737 231.670,290.984 231.917 C 291.330 232.263,291.233 231.255,290.848 230.495 C 290.654 230.113,290.216 229.170,289.874 228.400 C 289.531 227.630,289.240 227.093,289.226 227.206 M236.485 228.973 C 235.786 230.508,235.892 231.217,236.613 229.833 C 236.948 229.191,237.165 228.496,237.096 228.288 C 237.027 228.080,236.752 228.388,236.485 228.973 M131.915 229.010 C 131.792 229.445,131.569 230.160,131.420 230.600 C 131.271 231.040,131.442 230.894,131.800 230.276 C 132.158 229.658,132.381 228.942,132.295 228.686 C 132.210 228.430,132.039 228.576,131.915 229.010 M98.400 230.217 C 97.410 230.967,96.477 231.585,96.326 231.590 C 95.650 231.614,93.912 232.445,94.114 232.647 C 94.545 233.079,99.854 230.156,100.180 229.309 C 100.429 228.660,100.511 228.618,98.400 230.217 M259.291 230.100 C 258.610 231.984,258.704 232.494,259.426 230.830 C 259.753 230.077,259.966 229.299,259.901 229.102 C 259.835 228.905,259.560 229.354,259.291 230.100 M208.950 229.600 C 209.301 230.899,210.509 233.624,210.665 233.468 C 210.756 233.378,210.370 232.335,209.809 231.152 C 209.247 229.968,208.861 229.270,208.950 229.600 M185.226 229.606 C 185.187 229.917,186.737 234.070,186.984 234.317 C 187.330 234.663,187.233 233.655,186.848 232.895 C 186.654 232.513,186.216 231.570,185.874 230.800 C 185.531 230.030,185.240 229.493,185.226 229.606 M130.485 232.573 C 129.621 234.470,129.844 235.197,131.300 235.228 C 149.839 235.628,154.011 235.274,153.994 233.304 C 153.990 232.784,153.856 232.862,153.482 233.600 L 152.977 234.600 141.688 234.706 C 129.742 234.819,129.055 234.705,130.845 232.915 C 131.090 232.670,131.218 232.254,131.130 231.990 C 131.042 231.725,130.752 231.988,130.485 232.573 M314.814 232.054 C 314.806 232.194,315.063 232.914,315.384 233.654 C 315.706 234.394,315.969 234.730,315.970 234.400 C 315.972 233.824,314.843 231.534,314.814 232.054 M91.093 233.041 C 90.961 233.173,89.896 233.420,88.726 233.591 C 87.060 233.833,86.903 233.909,88.000 233.942 C 88.770 233.966,90.300 233.734,91.400 233.428 C 92.781 233.044,93.080 232.860,92.367 232.836 C 91.798 232.816,91.225 232.908,91.093 233.041 M81.600 234.400 C 80.218 234.843,82.860 234.843,84.600 234.400 C 85.742 234.110,85.722 234.094,84.200 234.087 C 83.320 234.083,82.150 234.224,81.600 234.400 M210.800 234.333 C 210.800 234.678,207.708 234.800,198.933 234.800 C 192.407 234.800,187.158 234.892,187.271 235.004 C 187.838 235.572,210.360 235.530,210.833 234.961 C 211.097 234.642,211.198 234.265,211.057 234.124 C 210.916 233.982,210.800 234.077,210.800 234.333 M340.346 234.906 C 340.515 235.075,345.681 235.165,351.826 235.106 L 363.000 234.999 351.520 234.800 C 345.205 234.690,340.177 234.738,340.346 234.906 " stroke="none" fill="#7c7474" fill-rule="evenodd"></path><path id="path4" d="M345.924 165.499 C 349.073 165.567,354.113 165.567,357.124 165.499 C 360.136 165.431,357.560 165.376,351.400 165.376 C 345.240 165.376,342.776 165.432,345.924 165.499 M177.700 165.876 C 178.085 165.976,178.715 165.976,179.100 165.876 C 179.485 165.775,179.170 165.693,178.400 165.693 C 177.630 165.693,177.315 165.775,177.700 165.876 M36.965 172.800 C 36.965 176.650,37.025 178.225,37.098 176.300 C 37.171 174.375,37.171 171.225,37.098 169.300 C 37.025 167.375,36.965 168.950,36.965 172.800 M339.694 200.476 C 339.642 219.328,339.735 234.836,339.900 234.938 C 340.172 235.106,340.169 211.055,339.893 178.600 C 339.836 171.780,339.746 181.624,339.694 200.476 M362.991 200.400 C 362.991 219.210,363.040 226.905,363.100 217.500 C 363.160 208.095,363.160 192.705,363.100 183.300 C 363.040 173.895,362.991 181.590,362.991 200.400 M36.966 199.600 C 36.966 203.670,37.025 205.335,37.098 203.300 C 37.171 201.265,37.171 197.935,37.098 195.900 C 37.025 193.865,36.966 195.530,36.966 199.600 M46.727 207.500 C 51.858 207.563,60.138 207.563,65.127 207.500 C 70.117 207.436,65.920 207.384,55.800 207.384 C 45.680 207.384,41.597 207.436,46.727 207.500 M36.966 227.600 C 36.966 231.670,37.025 233.335,37.098 231.300 C 37.171 229.265,37.171 225.935,37.098 223.900 C 37.025 221.865,36.966 223.530,36.966 227.600 M47.900 235.100 C 53.675 235.162,63.125 235.162,68.900 235.100 C 74.675 235.037,69.950 234.986,58.400 234.986 C 46.850 234.986,42.125 235.037,47.900 235.100 M240.700 235.099 C 243.835 235.167,248.965 235.167,252.100 235.099 C 255.235 235.032,252.670 234.976,246.400 234.976 C 240.130 234.976,237.565 235.032,240.700 235.099 M298.100 235.099 C 301.345 235.166,306.655 235.166,309.900 235.099 C 313.145 235.032,310.490 234.977,304.000 234.977 C 297.510 234.977,294.855 235.032,298.100 235.099 M130.900 235.476 C 131.285 235.576,131.915 235.576,132.300 235.476 C 132.685 235.375,132.370 235.293,131.600 235.293 C 130.830 235.293,130.515 235.375,130.900 235.476 M138.100 235.494 C 139.145 235.576,140.855 235.576,141.900 235.494 C 142.945 235.412,142.090 235.344,140.000 235.344 C 137.910 235.344,137.055 235.412,138.100 235.494 M147.491 235.489 C 148.201 235.577,149.461 235.579,150.291 235.492 C 151.121 235.405,150.540 235.333,149.000 235.331 C 147.460 235.329,146.781 235.400,147.491 235.489 M192.482 235.496 C 193.958 235.573,196.478 235.573,198.082 235.497 C 199.687 235.421,198.480 235.358,195.400 235.358 C 192.320 235.357,191.007 235.419,192.482 235.496 " stroke="none" fill="#84847c" fill-rule="evenodd"></path></g></svg>