<?xml version="1.0" encoding="UTF-8"?>
<svg version="1.1" xmlns="http://www.w3.org/2000/svg" width="450" height="450">
<path d="M0 0 C148.5 0 297 0 450 0 C450 148.5 450 297 450 450 C301.5 450 153 450 0 450 C0 301.5 0 153 0 0 Z " fill="#FBFCFC" transform="translate(0,0)"/>
<path d="M0 0 C0 1.32 0 2.64 0 4 C-70.95 4 -141.9 4 -215 4 C-215 2.68 -215 1.36 -215 0 C-213.38890099 0.00333092 -213.38890099 0.00333092 -211.74525452 0.00672913 C-201.41257904 0.02737491 -191.07990796 0.04216516 -180.74721622 0.05181217 C-175.44043656 0.05693909 -170.13367407 0.0638403 -164.8269043 0.07543945 C-139.0199556 0.13035618 -113.24950036 -0.0932191 -87.45283031 -0.83602238 C-58.31325725 -1.64337942 -29.13371246 -0.6546133 0 0 Z " fill="#126488" transform="translate(442,191)"/>
<path d="M0 0 C0 1.98 0 3.96 0 6 C-36.27182225 6.12578932 -72.53679548 6.01016081 -108.80659485 5.59428024 C-111.62280033 5.5625248 -114.43901978 5.53252604 -117.25524902 5.50296021 C-121.72209003 5.45566813 -126.18884563 5.40338498 -130.65558243 5.34712219 C-132.30616675 5.32691105 -133.95676936 5.30813392 -135.60738754 5.29090881 C-137.88107771 5.26672097 -140.15462271 5.23676136 -142.42822266 5.20532227 C-144.3413475 5.18200584 -144.3413475 5.18200584 -146.29312134 5.15821838 C-150.25445323 4.98913933 -154.07422411 4.54228463 -158 4 C-158 3.34 -158 2.68 -158 2 C-149.43426425 1.05881905 -140.91602441 0.79068431 -132.3046875 0.68359375 C-130.85953418 0.66280441 -129.41438451 0.64176031 -127.96923828 0.6204834 C-124.07930552 0.56473504 -120.18931755 0.51524074 -116.29927826 0.46757126 C-113.86797821 0.4374129 -111.43670516 0.40557914 -109.00543213 0.37332153 C-72.6706561 -0.10452274 -36.33716133 -0.10755546 0 0 Z " fill="#166588" transform="translate(168,177)"/>
<path d="M0 0 C73.59 0 147.18 0 223 0 C223 1.32 223 2.64 223 4 C149.41 4 75.82 4 0 4 C0 2.68 0 1.36 0 0 Z " fill="#136387" transform="translate(219,178)"/>
<path d="M0 0 C0 1.32 0 2.64 0 4 C-2.8656849 4.81696208 -5.4074015 5.12549676 -8.38356018 5.12698364 C-9.25562103 5.12980347 -10.12768188 5.13262329 -11.02616882 5.13552856 C-11.97603165 5.13350433 -12.92589447 5.1314801 -13.90454102 5.12939453 C-14.91204407 5.13114685 -15.91954712 5.13289917 -16.95758057 5.13470459 C-20.30637313 5.13912082 -23.65511309 5.13617908 -27.00390625 5.1328125 C-29.35814931 5.13348722 -31.71239231 5.13445865 -34.06663513 5.13571167 C-39.02742163 5.13718964 -43.98819019 5.13503684 -48.94897461 5.13037109 C-55.19951671 5.12476935 -61.45001533 5.12797713 -67.7005558 5.13382339 C-94.48313039 5.15493851 -121.23499236 5.03736104 -148 4 C-148 3.01 -148 2.02 -148 1 C-98.72006664 -1.18112151 -49.299322 -2.41016059 0 0 Z " fill="#0C6085" transform="translate(442,216)"/>
<path d="M0 0 C5.32571996 0.01051033 10.65144536 0.01485481 15.97717285 0.01983643 C26.2968476 0.03033886 36.61649974 0.04724026 46.93615723 0.06866455 C46.93615723 2.04866455 46.93615723 4.02866455 46.93615723 6.06866455 C34.39450088 6.09935716 21.85284577 6.11967389 9.31115723 6.13116455 C8.38344765 6.13202057 7.45573807 6.13287659 6.49991608 6.13375854 C-25.36694014 6.1597304 -57.20586088 5.86862456 -89.06384277 5.06866455 C-89.06384277 3.74866455 -89.06384277 2.42866455 -89.06384277 1.06866455 C-59.37070784 0.21721516 -29.70447439 -0.06521096 0 0 Z " fill="#136589" transform="translate(99.0638427734375,189.93133544921875)"/>
<path d="M0 0 C0.65982644 0.00084846 1.31965287 0.00169693 1.99947405 0.00257111 C19.16637193 0.02501471 36.33318932 0.0662898 53.5 0.125 C53.5 1.445 53.5 2.765 53.5 4.125 C48.43964981 5.14689658 43.61011441 5.26690874 38.47460938 5.25439453 C37.1330876 5.25698902 37.1330876 5.25698902 35.76446438 5.25963593 C32.79087416 5.26399128 29.81734095 5.26104407 26.84375 5.2578125 C24.73165367 5.25882821 22.61955748 5.2601677 20.50746155 5.2618103 C14.84287113 5.26451183 9.17830805 5.26004446 3.51372147 5.25357056 C0.00824145 5.25000837 -3.49723447 5.2483835 -7.00271606 5.24731445 C-46.50867104 5.23233666 -86.00152623 4.88835632 -125.5 4.125 C-125.5 3.465 -125.5 2.805 -125.5 2.125 C-117.23091013 1.74582447 -108.9599386 1.42167568 -100.6875 1.125 C-99.69494705 1.08936825 -99.69494705 1.08936825 -98.68234253 1.05301666 C-65.79609438 -0.10825311 -32.90271894 -0.04296446 0 0 Z " fill="#106387" transform="translate(388.5,202.875)"/>
<path d="M0 0 C5.80138568 0.00639219 11.60277231 0.00684953 17.40416098 0.00802541 C28.31442675 0.01109318 39.22468211 0.0192429 50.13494337 0.0293749 C62.587916 0.04068037 75.04088922 0.04608227 87.49386573 0.05107033 C113.04072155 0.06143117 138.58756824 0.07893908 164.1344161 0.10139394 C164.1344161 1.09139394 164.1344161 2.08139394 164.1344161 3.10139394 C80.6444161 3.10139394 -2.8455839 3.10139394 -88.8655839 3.10139394 C-88.8655839 2.44139394 -88.8655839 1.78139394 -88.8655839 1.10139394 C-59.23909839 0.2270396 -29.63835009 -0.03837905 0 0 Z " fill="#206B8D" transform="translate(98.86558389663696,139.89860606193542)"/>
<path d="M0 0 C75.14847389 -0.25455079 75.14847389 -0.25455079 107 2 C107 3.32 107 4.64 107 6 C71.31356149 7.67967715 35.72431836 8.27661664 0 8 C0 5.36 0 2.72 0 0 Z " fill="#146589" transform="translate(136,240)"/>
<path d="M0 0 C0 2.31 0 4.62 0 7 C-9.95659242 7.04718992 -19.91315653 7.0822943 -29.86983967 7.10362434 C-34.49749627 7.11388258 -39.12507422 7.12769385 -43.75268555 7.15087891 C-67.91410109 7.26878162 -91.89628858 6.72649098 -116 5 C-116 4.01 -116 3.02 -116 2 C-110.67803961 0.92610832 -105.48485241 0.78158021 -100.078125 0.68359375 C-99.08864868 0.66276733 -98.09917236 0.64194092 -97.07971191 0.6204834 C-93.80322223 0.55400904 -90.52665485 0.49522342 -87.25 0.4375 C-86.12726685 0.41632111 -85.00453369 0.39514221 -83.84777832 0.37332153 C-55.899299 -0.14695137 -27.95221447 -0.10156318 0 0 Z " fill="#1A698B" transform="translate(126,202)"/>
<path d="M0 0 C26.83400983 -0.02336777 53.66801814 -0.04099825 80.50203609 -0.05181217 C92.9617287 -0.05696688 105.42141497 -0.06399388 117.88110352 -0.07543945 C128.741863 -0.08541148 139.6026179 -0.09185944 150.46338183 -0.09408849 C156.21321814 -0.09539131 161.96304135 -0.0984501 167.71287346 -0.10573006 C173.12756453 -0.11252998 178.54223713 -0.11460887 183.95693207 -0.11310768 C185.94143588 -0.11338222 187.92594033 -0.11536374 189.91044044 -0.11920547 C192.62671238 -0.1242048 195.3429152 -0.12297537 198.05918884 -0.12025452 C198.83839957 -0.12316736 199.61761029 -0.1260802 200.42043346 -0.12908131 C205.68060222 -0.11490878 210.77952684 0.3476605 216 1 C216 1.99 216 2.98 216 4 C144.72 4 73.44 4 0 4 C0 2.68 0 1.36 0 0 Z " fill="#1F6D8F" transform="translate(226,165)"/>
<path d="M0 0 C4.11847627 0.00640457 8.23695393 0.00685045 12.35543442 0.00802541 C20.09630621 0.01108974 27.83716327 0.01923444 35.57802868 0.0293749 C44.41535993 0.04069155 53.25269203 0.04608498 62.09002876 0.05107033 C80.21537079 0.06142333 98.34069926 0.078924 116.46603012 0.10139394 C116.46603012 1.42139394 116.46603012 2.74139394 116.46603012 4.10139394 C94.9509975 4.12481307 73.43596699 4.14241724 51.92092419 4.15320611 C41.92985163 4.15834998 31.93878703 4.16535608 21.94771957 4.17683339 C13.23376668 4.18683879 4.51981954 4.19326124 -4.19413894 4.19548243 C-8.80286652 4.19677964 -13.41157764 4.19980224 -18.02029991 4.20712399 C-22.36964386 4.21397685 -26.71896476 4.2159923 -31.0683136 4.21450162 C-32.65360833 4.21477382 -34.23890394 4.21672345 -35.82419395 4.22059941 C-45.77469559 4.24370798 -55.61234457 3.89573082 -65.53396988 3.10139394 C-65.53396988 2.44139394 -65.53396988 1.78139394 -65.53396988 1.10139394 C-43.68151724 0.26829181 -21.86688937 -0.03998678 0 0 Z " fill="#116387" transform="translate(75.53396987915039,164.89860606193542)"/>
<path d="M0 0 C10.86758846 -0.0233617 21.73517076 -0.04103479 32.60277939 -0.05181217 C37.65121103 -0.05698959 42.69962525 -0.06399155 47.74804688 -0.07543945 C52.63696713 -0.08645393 57.52587083 -0.09231533 62.41480255 -0.09487724 C64.26272084 -0.09669858 66.11063842 -0.10025329 67.9585495 -0.10573006 C80.6712762 -0.14184483 93.30909334 0.25031655 106 1 C106 2.32 106 3.64 106 5 C101.89250803 6.13335952 97.88200309 6.22668357 93.64453125 6.31640625 C92.80673126 6.33727798 91.96893127 6.35814972 91.10574341 6.37965393 C88.34142576 6.44620167 85.57701991 6.50500391 82.8125 6.5625 C81.86448517 6.58334656 80.91647034 6.60419312 79.93972778 6.62567139 C65.60610145 6.93720339 51.27443322 7.10463384 36.9375 7.125 C35.6956041 7.12888229 35.6956041 7.12888229 34.42861938 7.13284302 C22.91839346 7.16141007 11.48553029 6.75250322 0 6 C0 4.02 0 2.04 0 0 Z " fill="#0E6286" transform="translate(336,228)"/>
<path d="M0 0 C0.78317093 0.00085602 1.56634186 0.00171204 2.37324524 0.00259399 C12.18635333 0.01410556 21.99942513 0.03435305 31.8125 0.0625 C31.8125 2.3725 31.8125 4.6825 31.8125 7.0625 C7.89068691 7.17570843 -16.01952121 7.10056903 -39.9375 6.625 C-40.99129852 6.60535187 -42.04509705 6.58570374 -43.13082886 6.56546021 C-46.14463495 6.50813998 -49.15824302 6.44469211 -52.171875 6.37890625 C-53.05450516 6.36218872 -53.93713531 6.34547119 -54.84651184 6.32824707 C-60.34783862 6.19713303 -65.72570524 5.73954502 -71.1875 5.0625 C-71.1875 3.7425 -71.1875 2.4225 -71.1875 1.0625 C-47.46129864 0.0417847 -23.7432338 -0.02613454 0 0 Z " fill="#085E83" transform="translate(81.1875,214.9375)"/>
<path d="M0 0 C2.03100585 0.00028238 4.06201179 0.00012315 6.09301758 -0.0004425 C11.58399484 -0.0007285 17.0749501 0.00513621 22.56592226 0.01213145 C28.31277637 0.01839798 34.05963103 0.0189714 39.80648804 0.02015686 C50.67886181 0.02326046 61.55122549 0.03146074 72.42359483 0.04150635 C84.80569378 0.05269767 97.18779323 0.05818554 109.56989598 0.06320179 C135.03146619 0.07364418 160.49302745 0.09122479 185.95458984 0.11352539 C185.95458984 1.10352539 185.95458984 2.09352539 185.95458984 3.11352539 C161.63070733 3.13699753 137.30682655 3.15457432 112.98293495 3.16533756 C101.68621057 3.17047034 90.38949327 3.17745475 79.09277344 3.18896484 C69.23423297 3.19900471 59.37569763 3.20540071 49.51715219 3.20761389 C44.30836054 3.20890537 39.09958356 3.21189023 33.89079666 3.21925545 C12.55664221 3.24829716 -8.7348681 3.25363793 -30.04541016 2.11352539 C-30.04541016 1.78352539 -30.04541016 1.45352539 -30.04541016 1.11352539 C-20.04688875 -0.2016881 -10.06431778 -0.01961763 0 0 Z " fill="#065D83" transform="translate(40.04541015625,152.886474609375)"/>
<path d="M0 0 C0 2.64 0 5.28 0 8 C-45.55475201 8.19070386 -45.55475201 8.19070386 -66.1875 7.5625 C-66.87641327 7.54285187 -67.56532654 7.52320374 -68.27511597 7.50296021 C-80.08074766 7.15631759 -80.08074766 7.15631759 -84 6 C-84 4.68 -84 3.36 -84 2 C-70.07349624 1.2623578 -56.15731775 0.77172922 -42.21411133 0.49731445 C-39.17195641 0.43719281 -36.12993218 0.37222604 -33.08789062 0.30664062 C-22.05669003 0.07585396 -11.03371138 -0.06321031 0 0 Z " fill="#0B6085" transform="translate(94,227)"/>
<path d="M0 0 C25.39613472 -0.32837652 50.6442852 0.59612005 76 2 C75.67 3.65 75.34 5.3 75 7 C49.99244684 7.85472593 25.02130411 8.1319689 0 8 C0 5.36 0 2.72 0 0 Z " fill="#146689" transform="translate(150,227)"/>
<path d="M0 0 C2.475 0.495 2.475 0.495 5 1 C5.061875 1.556875 5.12375 2.11375 5.1875 2.6875 C6.52117079 6.48333226 9.42340827 9.21170413 13 11 C12.67 11.99 12.34 12.98 12 14 C9.29561004 13.63594751 8.25593617 13.31857318 6.515625 11.15234375 C6.09796875 10.42144531 5.6803125 9.69054687 5.25 8.9375 C4.82203125 8.20402344 4.3940625 7.47054688 3.953125 6.71484375 C3.63859375 6.14894531 3.3240625 5.58304687 3 5 C0.35247996 7.57784846 -1.94432065 9.91648098 -4 13 C-0.7 12.67 2.6 12.34 6 12 C6.99 13.485 6.99 13.485 8 15 C5.69 15 3.38 15 1 15 C2.32 17.64 3.64 20.28 5 23 C5.99 19.535 5.99 19.535 7 16 C8.32 16.33 9.64 16.66 11 17 C10.54636829 18.58468677 10.08688548 20.16769924 9.625 21.75 C9.24214844 23.07257813 9.24214844 23.07257813 8.8515625 24.421875 C8.0790066 26.76080572 7.16374324 28.83442562 6 31 C7.65 30.34 9.3 29.68 11 29 C11.66 29.99 12.32 30.98 13 32 C9.41673516 32.16816121 5.83337798 32.33426877 2.25 32.5 C1.23421875 32.54769531 0.2184375 32.59539062 -0.828125 32.64453125 C-1.8078125 32.68964844 -2.7875 32.73476563 -3.796875 32.78125 C-4.69760742 32.82314453 -5.59833984 32.86503906 -6.52636719 32.90820312 C-8.68297724 32.98823524 -10.84190546 33 -13 33 C-13.66 32.01 -14.32 31.02 -15 30 C-13.68 29.67 -12.36 29.34 -11 29 C-11.020625 27.9275 -11.04125 26.855 -11.0625 25.75 C-11.0142016 22.85209576 -10.86844115 20.71387859 -10 18 C-12.31 18.33 -14.62 18.66 -17 19 C-18.3609623 16.2780754 -17.70366248 14.8168043 -17.0625 11.875 C-16.86785156 10.96492188 -16.67320312 10.05484375 -16.47265625 9.1171875 C-16.31667969 8.41851562 -16.16070312 7.71984375 -16 7 C-14.68 7.33 -13.36 7.66 -12 8 C-12.66 10.97 -13.32 13.94 -14 17 C-13.01 17 -12.02 17 -11 17 C-10.67 12.71 -10.34 8.42 -10 4 C-12.64 4 -15.28 4 -18 4 C-18 3.34 -18 2.68 -18 2 C-14.37 2 -10.74 2 -7 2 C-5.68374806 4.63250388 -6.25186342 5.80179056 -6.9375 8.625 C-7.13214844 9.44226563 -7.32679688 10.25953125 -7.52734375 11.1015625 C-7.68332031 11.72804688 -7.83929688 12.35453125 -8 13 C-3.68614204 9.45647382 -2.0278602 5.04807753 0 0 Z " fill="#C2C2C2" transform="translate(379,282)"/>
<path d="M0 0 C64.35 0 128.7 0 195 0 C195 0.99 195 1.98 195 3 C130.65 3 66.3 3 0 3 C0 2.01 0 1.02 0 0 Z " fill="#055D83" transform="translate(247,153)"/>
<path d="M0 0 C1.32 0.33 2.64 0.66 4 1 C3.67 1.99 3.34 2.98 3 4 C4.60379341 4.05416188 6.20811406 4.09286638 7.8125 4.125 C8.70582031 4.14820313 9.59914063 4.17140625 10.51953125 4.1953125 C13.25402714 4.18285827 13.25402714 4.18285827 16 2 C16.66 3.32 17.32 4.64 18 6 C9.585 6.495 9.585 6.495 1 7 C1 7.33 1 7.66 1 8 C1.91523437 7.96519531 2.83046875 7.93039062 3.7734375 7.89453125 C4.96195313 7.86746094 6.15046875 7.84039062 7.375 7.8125 C8.55835937 7.77769531 9.74171875 7.74289062 10.9609375 7.70703125 C12.46527344 7.85205078 12.46527344 7.85205078 14 8 C16.1519437 11.22791555 16.20086443 12.28400809 16 16 C16.66 16 17.32 16 18 16 C18.33 16.99 18.66 17.98 19 19 C17.35 19 15.7 19 14 19 C14.33 20.98 14.66 22.96 15 25 C15.99 25.33 16.98 25.66 18 26 C18 26.66 18 27.32 18 28 C16.68 28 15.36 28 14 28 C13.7525 28.804375 13.505 29.60875 13.25 30.4375 C12 33 12 33 9.875 33.8125 C9.25625 33.874375 8.6375 33.93625 8 34 C7.01 32.68 6.02 31.36 5 30 C6.65 30 8.3 30 10 30 C10 29.34 10 28.68 10 28 C9.15695313 28.08378906 8.31390625 28.16757812 7.4453125 28.25390625 C6.34960938 28.35574219 5.25390625 28.45757812 4.125 28.5625 C2.48917969 28.71912109 2.48917969 28.71912109 0.8203125 28.87890625 C-2 29 -2 29 -4 28 C-3.505 23.545 -3.505 23.545 -3 19 C-3.99 18.67 -4.98 18.34 -6 18 C-4.68 18 -3.36 18 -2 18 C-2 15.69 -2 13.38 -2 11 C-2.99 11.495 -2.99 11.495 -4 12 C-3.52309796 10.37433394 -3.04340334 8.74948689 -2.5625 7.125 C-2.29566406 6.22007812 -2.02882813 5.31515625 -1.75390625 4.3828125 C-1 2 -1 2 0 0 Z " fill="#3A3A3A" transform="translate(74,282)"/>
<path d="M0 0 C2.74472153 -0.00161758 5.48943475 -0.00517659 8.23415375 -0.00918579 C12.57346833 -0.01502607 16.91274768 -0.01527601 21.25206375 -0.01093674 C22.85317084 -0.00994388 24.45427978 -0.01051856 26.05538559 -0.01277542 C28.25256379 -0.01532789 30.44964166 -0.01152306 32.64681244 -0.00601196 C34.49520721 -0.00481857 34.49520721 -0.00481857 36.3809433 -0.00360107 C39.58921917 0.11752141 42.59517109 0.51738114 45.74446869 1.12338257 C45.74446869 1.78338257 45.74446869 2.44338257 45.74446869 3.12338257 C-6.39553131 3.12338257 -58.53553131 3.12338257 -112.25553131 3.12338257 C-112.25553131 2.46338257 -112.25553131 1.80338257 -112.25553131 1.12338257 C-74.83745176 0.44876278 -37.42458338 0.01452765 0 0 Z " fill="#297191" transform="translate(396.25553131103516,139.87661743164063)"/>
<path d="M0 0 C1.9375 0.3125 1.9375 0.3125 4 1 C4.33 1.99 4.66 2.98 5 4 C7.97 4.33 10.94 4.66 14 5 C14 4.34 14 3.68 14 3 C15.32 3.66 16.64 4.32 18 5 C14.23367082 10.71024102 14.23367082 10.71024102 10.8046875 11.515625 C9.23052377 11.62992072 7.65473944 11.72378691 6.078125 11.796875 C3.32625023 12.06585524 2.00052655 13.1476606 0 15 C-1.98 15.99 -1.98 15.99 -4 17 C0.29 17 4.58 17 9 17 C9 16.34 9 15.68 9 15 C8.34 15 7.68 15 7 15 C7.33 14.34 7.66 13.68 8 13 C10.62901288 14.52206009 12.84365964 15.84365964 15 18 C15 18.99 15 19.98 15 21 C13.68 20.67 12.36 20.34 11 20 C11 19.34 11 18.68 11 18 C9.02 18.66 7.04 19.32 5 20 C4.67 21.65 4.34 23.3 4 25 C6.97 24.34 9.94 23.68 13 23 C13.66 23.99 14.32 24.98 15 26 C11.37 26 7.74 26 4 26 C4 27.65 4 29.3 4 31 C4.60328125 30.9278125 5.2065625 30.855625 5.828125 30.78125 C7.02695312 30.64203125 7.02695312 30.64203125 8.25 30.5 C9.03890625 30.4071875 9.8278125 30.314375 10.640625 30.21875 C13 30 13 30 17 30 C17.33 30.66 17.66 31.32 18 32 C7.77 32 -2.46 32 -13 32 C-13 31.67 -13 31.34 -13 31 C-8.71 31 -4.42 31 0 31 C0 29.35 0 27.7 0 26 C-3.3 26 -6.6 26 -10 26 C-10 25.67 -10 25.34 -10 25 C-6.7 25 -3.4 25 0 25 C0 23.35 0 21.7 0 20 C-3.96 20.495 -3.96 20.495 -8 21 C-8.33 19.68 -8.66 18.36 -9 17 C-6.69 15.35 -4.38 13.7 -2 12 C-5.63 11.67 -9.26 11.34 -13 11 C-12.07377893 7.29511572 -11.32789515 5.83395931 -9 3 C-9 3.66 -9 4.32 -9 5 C-5.7 4.67 -2.4 4.34 1 4 C0.67 2.68 0.34 1.36 0 0 Z " fill="#353535" transform="translate(424,282)"/>
<path d="M0 0 C1.65 0.33 3.3 0.66 5 1 C5 2.32 5 3.64 5 5 C7.97 5.33 10.94 5.66 14 6 C14 5.34 14 4.68 14 4 C15.32 4.66 16.64 5.32 18 6 C16.35 7.65 14.7 9.3 13 11 C13 9.68 13 8.36 13 7 C11.02 7.33 9.04 7.66 7 8 C6.34 12.29 5.68 16.58 5 21 C10.1693489 20.59443869 10.1693489 20.59443869 15 19 C15.99 19.66 16.98 20.32 18 21 C18 21.66 18 22.32 18 23 C11.565 23.495 11.565 23.495 5 24 C6.8871875 24.6496875 6.8871875 24.6496875 8.8125 25.3125 C11.86884754 26.36468522 14.08406427 27.32023608 16 30 C15.6875 32.1875 15.6875 32.1875 15 34 C14.46890625 33.59007812 13.9378125 33.18015625 13.390625 32.7578125 C12.68421875 32.21898437 11.9778125 31.68015625 11.25 31.125 C10.55390625 30.59132813 9.8578125 30.05765625 9.140625 29.5078125 C7.15277397 28.10761086 5.20156614 27.02144735 3 26 C1.7625 27.1446875 1.7625 27.1446875 0.5 28.3125 C-3.09399512 31.30891873 -6.51772862 32.67736254 -11 34 C-11.99 33.67 -12.98 33.34 -14 33 C-13.32453125 32.69707031 -12.6490625 32.39414062 -11.953125 32.08203125 C-10.61507813 31.45361328 -10.61507813 31.45361328 -9.25 30.8125 C-7.92742187 30.20341797 -7.92742187 30.20341797 -6.578125 29.58203125 C-3.40534389 27.83550862 -3.40534389 27.83550862 0 23 C-4.29 23 -8.58 23 -13 23 C-13 22.34 -13 21.68 -13 21 C-10.36 21 -7.72 21 -5 21 C-6.32 18.69 -7.64 16.38 -9 14 C-4.25 14.875 -4.25 14.875 -2 16 C-2.66 15.05125 -3.32 14.1025 -4 13.125 C-6 10 -6 10 -6 8 C-6.86625 9.0209375 -6.86625 9.0209375 -7.75 10.0625 C-8.86375 11.0215625 -8.86375 11.0215625 -10 12 C-12.25 11.75 -12.25 11.75 -14 11 C-13.67 10.01 -13.34 9.02 -13 8 C-12.34 7.67 -11.68 7.34 -11 7 C-10.34 6.01 -9.68 5.02 -9 4 C-9 4.66 -9 5.32 -9 6 C-3.555 5.505 -3.555 5.505 2 5 C1.34 3.35 0.68 1.7 0 0 Z " fill="#E7E7E7" transform="translate(324,282)"/>
<path d="M0 0 C0 2.64 0 5.28 0 8 C-17.35774662 8.15661487 -34.65774309 7.72710622 -52 7 C-52 5.02 -52 3.04 -52 1 C-34.65639784 0.14699877 -17.36348869 -0.13235918 0 0 Z " fill="#1A698C" transform="translate(62,240)"/>
<path d="M0 0 C11.6988337 -0.06668641 23.37006788 0.12253875 35.0625 0.5 C36.62303946 0.54841653 38.18358635 0.59659447 39.74414062 0.64453125 C43.49618275 0.76028934 47.24811608 0.87920983 51 1 C51 2.65 51 4.3 51 6 C48.58093209 7.20953395 46.97833692 7.15679908 44.27490234 7.20532227 C43.29403656 7.22526749 42.31317078 7.24521271 41.30258179 7.26576233 C39.71034286 7.29083107 39.71034286 7.29083107 38.0859375 7.31640625 C37.00116119 7.33718735 35.91638489 7.35796844 34.79873657 7.37937927 C31.32422379 7.44490634 27.84963376 7.50377447 24.375 7.5625 C22.02342942 7.60568221 19.67186674 7.6492964 17.3203125 7.69335938 C11.5469573 7.80059093 5.7735248 7.90235144 0 8 C0 5.36 0 2.72 0 0 Z " fill="#1B698C" transform="translate(391,240)"/>
<path d="M0 0 C1.65 0.33 3.3 0.66 5 1 C4.01 1.495 4.01 1.495 3 2 C3 2.66 3 3.32 3 4 C5.64 3.34 8.28 2.68 11 2 C11.99 3.485 11.99 3.485 13 5 C11.02 5 9.04 5 7 5 C7 6.32 7 7.64 7 9 C8.32 8.34 9.64 7.68 11 7 C11.99 7.66 12.98 8.32 14 9 C14 6.69 14 4.38 14 2 C14.62648437 2.08378906 15.25296875 2.16757812 15.8984375 2.25390625 C17.12433594 2.40666016 17.12433594 2.40666016 18.375 2.5625 C19.18710938 2.66691406 19.99921875 2.77132813 20.8359375 2.87890625 C23.04899186 3.18237328 23.04899186 3.18237328 25 2 C26.51953125 3.14453125 26.51953125 3.14453125 28 5 C28.07421875 7.69921875 28.07421875 7.69921875 27.6875 10.6875 C27.56761719 11.68136719 27.44773438 12.67523438 27.32421875 13.69921875 C27.21722656 14.45847656 27.11023438 15.21773438 27 16 C25.68 16.33 24.36 16.66 23 17 C23 16.34 23 15.68 23 15 C21.02 15 19.04 15 17 15 C16.67 15.99 16.34 16.98 16 18 C15.34 18 14.68 18 14 18 C14 15.36 14 12.72 14 10 C11.36 10 8.72 10 6 10 C7.39195915 12.7839183 9.15575779 12.97898997 12 14 C12 15.32 12 16.64 12 18 C11.4225 17.67 10.845 17.34 10.25 17 C7.80116138 15.72924102 7.80116138 15.72924102 4 16 C1.77256213 17.41977909 1.77256213 17.41977909 0 19 C-0.66 18.67 -1.32 18.34 -2 18 C-1.360625 17.236875 -0.72125 16.47375 -0.0625 15.6875 C2.14232781 13.11753287 2.14232781 13.11753287 3 10 C1.02 10 -0.96 10 -3 10 C-2.01 6.7 -1.02 3.4 0 0 Z " fill="#484848" transform="translate(213,282)"/>
<path d="M0 0 C6.6 0 13.2 0 20 0 C21.14229879 3.42689636 20.90861076 5.61102218 20.5625 9.1875 C20.46066406 10.27417969 20.35882813 11.36085938 20.25390625 12.48046875 C20.17011719 13.31191406 20.08632812 14.14335937 20 15 C19.01 15.33 18.02 15.66 17 16 C17 15.34 17 14.68 17 14 C14.9163691 14.14151828 12.83310062 14.28837936 10.75 14.4375 C9.58984375 14.51871094 8.4296875 14.59992188 7.234375 14.68359375 C3.84154434 14.9355392 3.84154434 14.9355392 0 16 C0 10.72 0 5.44 0 0 Z " fill="#555555" transform="translate(215,300)"/>
<path d="M0 0 C5.51757479 -0.02467609 11.03511761 -0.04284856 16.55273438 -0.05493164 C18.43066975 -0.05996763 20.3086012 -0.06679671 22.18652344 -0.07543945 C24.88217132 -0.08753713 27.57776747 -0.09323557 30.2734375 -0.09765625 C31.11619232 -0.10281754 31.95894714 -0.10797882 32.82723999 -0.11329651 C38.77225659 -0.11387171 38.77225659 -0.11387171 41 1 C41 2.65 41 4.3 41 6 C36.60431345 6.17068864 32.20843299 6.33579049 27.8125 6.5 C26.58595703 6.54769531 25.35941406 6.59539062 24.09570312 6.64453125 C16.05942249 6.94138594 8.04154898 7.0608504 0 7 C0 4.69 0 2.38 0 0 Z " fill="#095E83" transform="translate(163,215)"/>
<path d="M0 0 C3.9374838 -0.02946879 7.87493856 -0.04695407 11.8125 -0.0625 C13.46282227 -0.07506836 13.46282227 -0.07506836 15.14648438 -0.08789062 C22.15732634 -0.10857157 29.03175126 0.22322023 36 1 C36 2.98 36 4.96 36 7 C24.12 7 12.24 7 0 7 C0 4.69 0 2.38 0 0 Z " fill="#236E90" transform="translate(158,202)"/>
<path d="M0 0 C1.32 0.66 2.64 1.32 4 2 C3.67 7.94 3.34 13.88 3 20 C1.02 20.99 1.02 20.99 -1 22 C-1.66 20.68 -2.32 19.36 -3 18 C-2.34 18 -1.68 18 -1 18 C-1 16.35 -1 14.7 -1 13 C-2.65 13 -4.3 13 -6 13 C-6 15.64 -6 18.28 -6 21 C-6.99 21.33 -7.98 21.66 -9 22 C-9 15.07 -9 8.14 -9 1 C-6.36 1 -3.72 1 -1 1 C-0.67 0.67 -0.34 0.34 0 0 Z " fill="#555555" transform="translate(272,294)"/>
<path d="M0 0 C1.55512445 0.00186888 3.1102495 0.00329056 4.66537476 0.00428772 C8.72590813 0.00807588 12.78640479 0.01787385 16.84692383 0.0289917 C21.00341292 0.03928609 25.15990804 0.04380242 29.31640625 0.04882812 C37.44793337 0.05950004 45.57943085 0.0765311 53.7109375 0.09765625 C53.7109375 1.08765625 53.7109375 2.07765625 53.7109375 3.09765625 C46.49659007 3.12354632 39.28225508 3.14074239 32.06787109 3.15258789 C29.62646029 3.15753907 27.18505233 3.16430175 24.74365234 3.1730957 C7.70692953 3.23281205 -9.27042711 2.89734909 -26.2890625 2.09765625 C-26.2890625 1.76765625 -26.2890625 1.43765625 -26.2890625 1.09765625 C-17.53889138 -0.06906079 -8.80815625 -0.03135532 0 0 Z " fill="#045D83" transform="translate(36.2890625,152.90234375)"/>
<path d="M0 0 C1.65 0.33 3.3 0.66 5 1 C4.67 5.29 4.34 9.58 4 14 C6.3431213 13.74438677 8.67843403 13.40729228 11 13 C11.33 12.34 11.66 11.68 12 11 C15.875 12.75 15.875 12.75 17 15 C12.71 15 8.42 15 4 15 C4 20.28 4 25.56 4 31 C7.3 31 10.6 31 14 31 C14.33 30.01 14.66 29.02 15 28 C16.32 28.66 17.64 29.32 19 30 C19 30.66 19 31.32 19 32 C8.77 32 -1.46 32 -12 32 C-12 31.67 -12 31.34 -12 31 C-8.04 31 -4.08 31 0 31 C0 20.77 0 10.54 0 0 Z " fill="#414141" transform="translate(23,282)"/>
<path d="M0 0 C1.65 0 3.3 0 5 0 C4.34 4.29 3.68 8.58 3 13 C8.1693489 12.59443869 8.1693489 12.59443869 13 11 C13.99 11.66 14.98 12.32 16 13 C16 13.66 16 14.32 16 15 C9.565 15.495 9.565 15.495 3 16 C4.8871875 16.6496875 4.8871875 16.6496875 6.8125 17.3125 C9.86884754 18.36468522 12.08406427 19.32023608 14 22 C13.6875 24.1875 13.6875 24.1875 13 26 C12.46890625 25.59007812 11.9378125 25.18015625 11.390625 24.7578125 C10.68421875 24.21898437 9.9778125 23.68015625 9.25 23.125 C8.55390625 22.59132813 7.8578125 22.05765625 7.140625 21.5078125 C5.15277397 20.10761086 3.20156614 19.02144735 1 18 C-0.2375 19.1446875 -0.2375 19.1446875 -1.5 20.3125 C-5.09399512 23.30891873 -8.51772862 24.67736254 -13 26 C-13.99 25.67 -14.98 25.34 -16 25 C-15.32453125 24.69707031 -14.6490625 24.39414062 -13.953125 24.08203125 C-8.89368037 21.705847 -5.07052221 19.8849217 -2 15 C-5.96 15 -9.92 15 -14 15 C-14 14.67 -14 14.34 -14 14 C-9.71 14 -5.42 14 -1 14 C-0.67 9.38 -0.34 4.76 0 0 Z " fill="#424242" transform="translate(326,290)"/>
<path d="M0 0 C1.32 0.66 2.64 1.32 4 2 C4 2.33 4 2.66 4 3 C0.04 3 -3.92 3 -8 3 C-8 10.92 -8 18.84 -8 27 C-5.03 27 -2.06 27 1 27 C1.33 26.01 1.66 25.02 2 24 C3.32 24.66 4.64 25.32 6 26 C6 26.66 6 27.32 6 28 C-4.56 28 -15.12 28 -26 28 C-26 27.67 -26 27.34 -26 27 C-21.38 27 -16.76 27 -12 27 C-12 19.41 -12 11.82 -12 4 C-15.63 4 -19.26 4 -23 4 C-23 3.34 -23 2.68 -23 2 C-22.00818726 1.96241577 -22.00818726 1.96241577 -20.99633789 1.92407227 C-18.01817695 1.80846898 -15.0403608 1.68558246 -12.0625 1.5625 C-10.50112305 1.50352539 -10.50112305 1.50352539 -8.90820312 1.44335938 C-7.42416992 1.38051758 -7.42416992 1.38051758 -5.91015625 1.31640625 C-4.53549194 1.26141968 -4.53549194 1.26141968 -3.13305664 1.20532227 C-1.0179272 1.22996136 -1.0179272 1.22996136 0 0 Z " fill="#2F2F2F" transform="translate(186,285)"/>
<path d="M0 0 C28.71 0.33 57.42 0.66 87 1 C87 1.33 87 1.66 87 2 C86.45178085 2.01030746 85.90356171 2.02061493 85.33872986 2.03123474 C79.61185883 2.13975729 73.8851307 2.25431538 68.15844727 2.37231445 C66.02371218 2.41551723 63.88894579 2.45720211 61.75415039 2.49731445 C58.67845241 2.55537354 55.60290984 2.61896384 52.52734375 2.68359375 C51.57915268 2.70030624 50.63096161 2.71701874 49.65403748 2.73423767 C44.6775996 2.84447266 39.93169426 3.28688045 35 4 C32.21883201 4.12616161 29.44368955 4.11735129 26.66015625 4.09765625 C25.89319931 4.0962413 25.12624237 4.09482635 24.33604431 4.09336853 C21.9114881 4.08781766 19.48702781 4.07527463 17.0625 4.0625 C15.40820447 4.05747864 13.75390747 4.05291685 12.09960938 4.04882812 C8.06636988 4.03786438 4.03320114 4.02063424 0 4 C0 2.68 0 1.36 0 0 Z " fill="#257090" transform="translate(226,165)"/>
<path d="M0 0 C3.32310483 1.16757737 5.83361132 2.14948857 8 5 C8 5.99 8 6.98 8 8 C6.68 7.67 5.36 7.34 4 7 C4 6.34 4 5.68 4 5 C2.02 5.66 0.04 6.32 -2 7 C-2.33 8.65 -2.66 10.3 -3 12 C-0.03 11.34 2.94 10.68 6 10 C6.99 11.485 6.99 11.485 8 13 C4.37 13 0.74 13 -3 13 C-3 14.65 -3 16.3 -3 18 C-2.39671875 17.9278125 -1.7934375 17.855625 -1.171875 17.78125 C0.02695312 17.64203125 0.02695312 17.64203125 1.25 17.5 C2.03890625 17.4071875 2.8278125 17.314375 3.640625 17.21875 C6 17 6 17 10 17 C10.33 17.66 10.66 18.32 11 19 C0.77 19 -9.46 19 -20 19 C-20 18.67 -20 18.34 -20 18 C-15.71 18 -11.42 18 -7 18 C-7 16.35 -7 14.7 -7 13 C-10.3 13 -13.6 13 -17 13 C-17 12.67 -17 12.34 -17 12 C-13.7 12 -10.4 12 -7 12 C-7 10.35 -7 8.7 -7 7 C-9.64 7.33 -12.28 7.66 -15 8 C-15.33 6.68 -15.66 5.36 -16 4 C-10.06 4 -4.12 4 2 4 C2 3.34 2 2.68 2 2 C1.34 2 0.68 2 0 2 C0 1.34 0 0.68 0 0 Z " fill="#4F4F4F" transform="translate(431,295)"/>
<path d="M0 0 C2.3125 1 2.3125 1 4 2 C4.66 1.34 5.32 0.68 6 0 C8.5 0.125 8.5 0.125 11 1 C12.3125 3.0625 12.3125 3.0625 13 5 C10.36 5 7.72 5 5 5 C5.66 6.32 6.32 7.64 7 9 C8.98 8.67 10.96 8.34 13 8 C12.67 8.99 12.34 9.98 12 11 C6.25 12.125 6.25 12.125 4 11 C4 10.34 4 9.68 4 9 C3.113125 9.515625 2.22625 10.03125 1.3125 10.5625 C-2.1914242 12.08307088 -3.47924335 12.30770961 -7 11 C-8.39935013 8.20129973 -8.25265405 6.09501208 -8 3 C-5.88382638 -0.34132677 -3.78188667 -0.46120569 0 0 Z " fill="#DEDEDE" transform="translate(311,336)"/>
<path d="M0 0 C9.24 0 18.48 0 28 0 C28 1.98 28 3.96 28 6 C18.76 6 9.52 6 0 6 C0 4.02 0 2.04 0 0 Z " fill="#1A688A" transform="translate(170,190)"/>
<path d="M0 0 C3.63 0 7.26 0 11 0 C12.4552777 2.9105554 11.63516661 4.95849052 11.0625 8.125 C10.86785156 9.22070312 10.67320312 10.31640625 10.47265625 11.4453125 C10.31667969 12.28835938 10.16070312 13.13140625 10 14 C10.66 14 11.32 14 12 14 C11.9127395 16.25071906 11.80455885 18.50063388 11.6875 20.75 C11.62949219 22.00296875 11.57148438 23.2559375 11.51171875 24.546875 C10.99544099 28.03076463 10.3746744 29.47889796 8 32 C4.125 30.25 4.125 30.25 3 28 C4.32 27.67 5.64 27.34 7 27 C6.979375 25.9275 6.95875 24.855 6.9375 23.75 C6.9857984 20.85209576 7.13155885 18.71387859 8 16 C5.69 16.33 3.38 16.66 1 17 C-0.3609623 14.2780754 0.29633752 12.8168043 0.9375 9.875 C1.13214844 8.96492188 1.32679688 8.05484375 1.52734375 7.1171875 C1.68332031 6.41851562 1.83929688 5.71984375 2 5 C3.32 5.33 4.64 5.66 6 6 C5.34 8.97 4.68 11.94 4 15 C4.99 15 5.98 15 7 15 C7.33 10.71 7.66 6.42 8 2 C5.36 2 2.72 2 0 2 C0 1.34 0 0.68 0 0 Z " fill="#585858" transform="translate(361,284)"/>
<path d="M0 0 C1.32 0.33 2.64 0.66 4 1 C3.54636829 2.58468677 3.08688548 4.16769924 2.625 5.75 C2.24214844 7.07257813 2.24214844 7.07257813 1.8515625 8.421875 C1.0790066 10.76080572 0.16374324 12.83442562 -1 15 C0.65 14.34 2.3 13.68 4 13 C4.99 14.485 4.99 14.485 6 16 C-0.93 16 -7.86 16 -15 16 C-14.67 11.38 -14.34 6.76 -14 2 C-13.34 2 -12.68 2 -12 2 C-10.57741188 5.82320557 -9.75957724 8.91281305 -10 13 C-9.34 13 -8.68 13 -8 13 C-8 10.69 -8 8.38 -8 6 C-7.34 6 -6.68 6 -6 6 C-5.67 7.65 -5.34 9.3 -5 11 C-4.34 11 -3.68 11 -3 11 C-2.87625 10.484375 -2.7525 9.96875 -2.625 9.4375 C-1.81358372 6.27297649 -0.9054087 3.13875015 0 0 Z " fill="#ECECEC" transform="translate(386,298)"/>
<path d="M0 0 C4.40673482 -0.02519685 8.81342867 -0.04308799 13.22021484 -0.05493164 C14.71143323 -0.05988214 16.20264699 -0.06664426 17.69384766 -0.07543945 C28.17252562 -0.13558041 38.55006651 0.21554748 49 1 C48.67 1.66 48.34 2.32 48 3 C31.98937135 3.76154287 16.02862903 4.14834983 0 4 C0 2.68 0 1.36 0 0 Z " fill="#1D6B8D" transform="translate(227,191)"/>
<path d="M0 0 C1.98 0 3.96 0 6 0 C5.67 5.28 5.34 10.56 5 16 C6.65 16 8.3 16 10 16 C10 13.03 10 10.06 10 7 C9.34 6.67 8.68 6.34 8 6 C11.63922283 5.25561351 14.46124467 4.68934988 18 6 C19.66342837 7.66342837 19.36048097 9.7825709 19.5625 12.0625 C19.68818359 13.44115234 19.68818359 13.44115234 19.81640625 14.84765625 C19.87699219 15.55792969 19.93757813 16.26820313 20 17 C18.35 17 16.7 17 15 17 C15.33 13.7 15.66 10.4 16 7 C15.01 7.33 14.02 7.66 13 8 C12.67 10.64 12.34 13.28 12 16 C12.66 16.33 13.32 16.66 14 17 C9.38 17 4.76 17 0 17 C0.66 16.67 1.32 16.34 2 16 C2 11.05 2 6.1 2 1 C1.34 0.67 0.68 0.34 0 0 Z " fill="#4D4D4D" transform="translate(206,331)"/>
<path d="M0 0 C1.98 0 3.96 0 6 0 C6.33 0.66 6.66 1.32 7 2 C4.03 1.505 4.03 1.505 1 1 C0.67 2.32 0.34 3.64 0 5 C2.31 5 4.62 5 7 5 C7 8.63 7 12.26 7 16 C7.66 16.33 8.32 16.66 9 17 C5.04 17 1.08 17 -3 17 C-2.67 13.37 -2.34 9.74 -2 6 C-2.66 5.67 -3.32 5.34 -4 5 C-3.34 5 -2.68 5 -2 5 C-1.34 3.35 -0.68 1.7 0 0 Z " fill="#AFAFAF" transform="translate(153,331)"/>
<path d="M0 0 C2.72869407 0.03287583 5.2966618 0.56397771 8 1 C7.01 1.495 7.01 1.495 6 2 C5.34444881 4.52733235 5.34444881 4.52733235 5 7 C3.35 7.33 1.7 7.66 0 8 C0 8.66 0 9.32 0 10 C1.98 10 3.96 10 6 10 C6.66 11.32 7.32 12.64 8 14 C5.44931155 16.35448165 4.28982642 16.98327924 0.75 17.1875 C-0.61125 17.0946875 -0.61125 17.0946875 -2 17 C-3.12745936 13.61762193 -2.73788558 11.44346603 -2 8 C-2.020625 6.948125 -2.04125 5.89625 -2.0625 4.8125 C-2 2 -2 2 0 0 Z " fill="#F3F3F3" transform="translate(270,336)"/>
<path d="M0 0 C1.65 0 3.3 0 5 0 C4.67 1.98 4.34 3.96 4 6 C4.7425 5.319375 5.485 4.63875 6.25 3.9375 C9 2 9 2 11.25 2.125 C13 3 13 3 14 5 C9.545 6.485 9.545 6.485 5 8 C4.67 9.65 4.34 11.3 4 13 C7.43230448 12.73606499 7.43230448 12.73606499 11 12 C11.66 11.01 12.32 10.02 13 9 C13.33 11.31 13.66 13.62 14 16 C11.85423363 16.02685938 9.70837355 16.04633088 7.5625 16.0625 C6.36753906 16.07410156 5.17257812 16.08570313 3.94140625 16.09765625 C1 16 1 16 0 15 C-0.07313567 12.46950598 -0.09247527 9.96695163 -0.0625 7.4375 C-0.05798828 6.72658203 -0.05347656 6.01566406 -0.04882812 5.28320312 C-0.03700864 3.52209987 -0.01907263 1.76103964 0 0 Z " fill="#3A3A3A" transform="translate(278,299)"/>
<path d="M0 0 C0.99 0 1.98 0 3 0 C3.33 1.98 3.66 3.96 4 6 C5.2065625 5.7215625 5.2065625 5.7215625 6.4375 5.4375 C7.7059375 5.2209375 7.7059375 5.2209375 9 5 C10 6 10 6 10.09765625 8.28515625 C10.08605469 9.20167969 10.07445313 10.11820312 10.0625 11.0625 C10.05347656 11.98160156 10.04445313 12.90070313 10.03515625 13.84765625 C10.02355469 14.55792969 10.01195313 15.26820313 10 16 C10.66 16.33 11.32 16.66 12 17 C8.04 17 4.08 17 0 17 C0 11.39 0 5.78 0 0 Z " fill="#EFEFEF" transform="translate(73,331)"/>
<path d="M0 0 C1.32 0.66 2.64 1.32 4 2 C3.67 5.96 3.34 9.92 3 14 C1.68 14.33 0.36 14.66 -1 15 C-1 14.34 -1 13.68 -1 13 C-2.98 13 -4.96 13 -7 13 C-7 9.7 -7 6.4 -7 3 C-5.02 3 -3.04 3 -1 3 C-0.67 2.01 -0.34 1.02 0 0 Z " fill="#595959" transform="translate(237,284)"/>
<path d="M0 0 C1.32 0 2.64 0 4 0 C4 1.98 4 3.96 4 6 C5.65 5.34 7.3 4.68 9 4 C9 3.34 9 2.68 9 2 C10.32 2.66 11.64 3.32 13 4 C10.06171403 6.50298434 7.82097239 7.46930939 4 8 C4 9.65 4 11.3 4 13 C6.31 13 8.62 13 11 13 C11.66 11.68 12.32 10.36 13 9 C13.33 10.98 13.66 12.96 14 15 C11.17283905 15.94238698 9.36823877 16.13465647 6.4375 16.125 C5.25994141 16.12886719 5.25994141 16.12886719 4.05859375 16.1328125 C2 16 2 16 0 15 C0 10.05 0 5.1 0 0 Z " fill="#323232" transform="translate(278,282)"/>
<path d="M0 0 C0.33 0.99 0.66 1.98 1 3 C3.31 3.33 5.62 3.66 8 4 C8 7.3 8 10.6 8 14 C8.66 14.33 9.32 14.66 10 15 C8.37536158 15.05395478 6.75021459 15.09277195 5.125 15.125 C4.22007812 15.14820313 3.31515625 15.17140625 2.3828125 15.1953125 C0 15 0 15 -2 13 C-2.265625 10.72265625 -2.265625 10.72265625 -2.25 8.0625 C-2.25515625 7.18722656 -2.2603125 6.31195313 -2.265625 5.41015625 C-2 3 -2 3 0 0 Z " fill="#B2B2B2" transform="translate(138,333)"/>
<path d="M0 0 C0.66 0 1.32 0 2 0 C2.42152344 0.91523438 2.84304687 1.83046875 3.27734375 2.7734375 C3.82519531 3.96195312 4.37304688 5.15046875 4.9375 6.375 C5.48277344 7.55835938 6.02804688 8.74171875 6.58984375 9.9609375 C7.37354023 11.6499011 8.1673202 13.33464041 9 15 C9.99 15.33 10.98 15.66 12 16 C11.67 12.7 11.34 9.4 11 6 C12.32 6.33 13.64 6.66 15 7 C14.96744792 9.01822917 14.93489583 11.03645833 14.90234375 13.0546875 C14.87350758 15.08185404 14.87350758 15.08185404 16 17 C12.04 17 8.08 17 4 17 C4 15.02 4 13.04 4 11 C1.36 11.33 -1.28 11.66 -4 12 C-2.66666667 8 -1.33333333 4 0 0 Z " fill="#484848" transform="translate(116,331)"/>
<path d="M0 0 C4.40252698 -0.09063884 8.80446515 -0.1557557 13.20776367 -0.19995117 C14.24658691 -0.2212207 15.28541016 -0.24249023 16.35571289 -0.2644043 C17.75587646 -0.27117187 17.75587646 -0.27117187 19.18432617 -0.27807617 C20.36502686 -0.29209473 20.36502686 -0.29209473 21.56958008 -0.30639648 C23.58276367 0.05004883 23.58276367 0.05004883 26.58276367 3.05004883 C-10.04723633 2.55504883 -10.04723633 2.55504883 -47.41723633 2.05004883 C-47.41723633 1.72004883 -47.41723633 1.39004883 -47.41723633 1.05004883 C-33.32649235 0.70217491 -19.23537444 0.38194704 -5.14306641 0.10400391 C-3.42869626 0.07006967 -1.71433854 0.03549534 0 0 Z " fill="#0F6285" transform="translate(315.417236328125,165.949951171875)"/>
<path d="M0 0 C1.8125 1.125 1.8125 1.125 3 3 C3.39769128 6.18153026 3.55198782 8.12844028 1.8125 10.875 C-0.65507108 12.40659584 -2.14519831 12.42822025 -5 12 C-6.8125 10.875 -6.8125 10.875 -8 9 C-8.39769128 5.81846974 -8.55198782 3.87155972 -6.8125 1.125 C-4.34492892 -0.40659584 -2.85480169 -0.42822025 0 0 Z " fill="#4B4B4B" transform="translate(418,336)"/>
<path d="M0 0 C-0.33 0.99 -0.66 1.98 -1 3 C-17.83 3 -34.66 3 -52 3 C-51.67 2.34 -51.34 1.68 -51 1 C-44.86192131 0.85655307 -38.72381918 0.71416986 -32.58569336 0.57275391 C-30.49942363 0.52454077 -28.41316049 0.47604166 -26.3269043 0.42724609 C-23.32081784 0.35698698 -20.31470886 0.28777079 -17.30859375 0.21875 C-16.38227646 0.19687622 -15.45595917 0.17500244 -14.50157166 0.15246582 C-9.66610451 0.04250284 -4.83671067 -0.02315601 0 0 Z " fill="#085D82" transform="translate(327,191)"/>
<path d="M0 0 C1.875 1.0625 1.875 1.0625 3 3 C2.66666667 9.33333333 2.66666667 9.33333333 0 12 C-2.80984248 12.36023622 -4.38241919 12.38332602 -6.8125 10.875 C-8.55198782 8.12844028 -8.39769128 6.18153026 -8 3 C-5.90534242 -0.30735407 -3.75951639 -0.56392746 0 0 Z " fill="#F0F0F0" transform="translate(379,336)"/>
<path d="M0 0 C1.65 0.33 3.3 0.66 5 1 C2.50539328 22.51051233 2.50539328 22.51051233 -4 29 C-5.31142236 30.02856656 -6.64001693 31.03655627 -8 32 C-8.66 31.67 -9.32 31.34 -10 31 C-9.60167969 30.53851563 -9.20335938 30.07703125 -8.79296875 29.6015625 C-1.46595639 20.58095848 -0.5166895 11.36716908 0 0 Z " fill="#3B3B3B" transform="translate(123,282)"/>
<path d="M0 0 C0.99 0.33 1.98 0.66 3 1 C3 2.98 3 4.96 3 7 C3.66 7 4.32 7 5 7 C5.33 7.99 5.66 8.98 6 10 C4.35 10 2.7 10 1 10 C1.33 11.98 1.66 13.96 2 16 C2.99 16.33 3.98 16.66 5 17 C5 17.66 5 18.32 5 19 C3.68 19 2.36 19 1 19 C0.7525 19.804375 0.505 20.60875 0.25 21.4375 C-1 24 -1 24 -3.125 24.8125 C-3.74375 24.874375 -4.3625 24.93625 -5 25 C-5.99 23.68 -6.98 22.36 -8 21 C-6.35 21 -4.7 21 -3 21 C-2.94465088 20.39937744 -2.88930176 19.79875488 -2.83227539 19.17993164 C-2.58029218 16.47366869 -2.3214883 13.76810116 -2.0625 11.0625 C-1.93198242 9.64420898 -1.93198242 9.64420898 -1.79882812 8.19726562 C-1.66831055 6.84858398 -1.66831055 6.84858398 -1.53515625 5.47265625 C-1.456604 4.64000244 -1.37805176 3.80734863 -1.29711914 2.94946289 C-1 1 -1 1 0 0 Z " fill="#373737" transform="translate(87,291)"/>
<path d="M0 0 C19.8 0 39.6 0 60 0 C60 0.33 60 0.66 60 1 C59.45178085 1.01030746 58.90356171 1.02061493 58.33872986 1.03123474 C52.61185883 1.13975729 46.8851307 1.25431538 41.15844727 1.37231445 C39.02371218 1.41551723 36.88894579 1.45720211 34.75415039 1.49731445 C31.67845241 1.55537354 28.60290984 1.61896384 25.52734375 1.68359375 C24.57915268 1.70030624 23.63096161 1.71701874 22.65403748 1.73423767 C17.68436242 1.84432286 12.91940876 2.21879287 8 3 C5.68829193 3.06400078 3.37497096 3.08633991 1.0625 3.0625 C-0.08089844 3.05347656 -1.22429687 3.04445312 -2.40234375 3.03515625 C-3.25957031 3.02355469 -4.11679688 3.01195312 -5 3 C-5 2.67 -5 2.34 -5 2 C-3.35 2 -1.7 2 0 2 C0 1.34 0 0.68 0 0 Z " fill="#367693" transform="translate(253,166)"/>
<path d="M0 0 C1.66611905 -0.042721 3.33382885 -0.04063832 5 0 C6 1 6 1 6.09765625 3.06640625 C6.08605469 3.89011719 6.07445312 4.71382813 6.0625 5.5625 C6.05347656 6.38878906 6.04445313 7.21507812 6.03515625 8.06640625 C6.02355469 8.70449219 6.01195312 9.34257812 6 10 C6.66 10.33 7.32 10.66 8 11 C4.8035914 12.06546953 2.34252724 12.07427838 -1 12 C-1.625 9.6875 -1.625 9.6875 -2 7 C-1.34 6.01 -0.68 5.02 0 4 C-0.66 4 -1.32 4 -2 4 C-1.34 2.68 -0.68 1.36 0 0 Z " fill="#B1B1B1" transform="translate(39,336)"/>
<path d="M0 0 C1.65 0.33 3.3 0.66 5 1 C5 2.32 5 3.64 5 5 C7.97 5.33 10.94 5.66 14 6 C14 5.34 14 4.68 14 4 C15.32 4.66 16.64 5.32 18 6 C16.35 7.65 14.7 9.3 13 11 C13 9.68 13 8.36 13 7 C6.07 7 -0.86 7 -8 7 C-8.66 8.65 -9.32 10.3 -10 12 C-11.32 11.67 -12.64 11.34 -14 11 C-13.67 10.01 -13.34 9.02 -13 8 C-12.34 7.67 -11.68 7.34 -11 7 C-10.34 6.01 -9.68 5.02 -9 4 C-9 4.66 -9 5.32 -9 6 C-3.555 5.505 -3.555 5.505 2 5 C1.34 3.35 0.68 1.7 0 0 Z " fill="#363636" transform="translate(324,282)"/>
<path d="M0 0 C7.59 0 15.18 0 23 0 C22.67 0.99 22.34 1.98 22 3 C17.37540756 4.17700048 12.92133538 4.11408412 8.1875 4.0625 C7.00510742 4.05573242 7.00510742 4.05573242 5.79882812 4.04882812 C3.86585239 4.03711312 1.93291607 4.01917998 0 4 C0 2.68 0 1.36 0 0 Z " fill="#F8F8F8" transform="translate(415,288)"/>
<path d="M0 0 C1.69190821 2.53786232 2.61924649 4.51377247 3.6875 7.3125 C6.03137531 12.73437007 9.72078568 16.36039284 15 19 C14.01 21.475 14.01 21.475 13 24 C6.45958824 20.63635967 2.83011689 15.85192789 0.4921875 9.03515625 C-0.25724668 5.93630537 -0.19842751 3.17484019 0 0 Z " fill="#3C3C3C" transform="translate(127,292)"/>
<path d="M0 0 C1.65 0.33 3.3 0.66 5 1 C3 3 1 5 -1 7 C1.31 7 3.62 7 6 7 C5.67 6.01 5.34 5.02 5 4 C7.4375 4.6875 7.4375 4.6875 10 6 C10.8125 8.625 10.8125 8.625 11 11 C10.01 11 9.02 11 8 11 C8 10.34 8 9.68 8 9 C6.783125 9.33 5.56625 9.66 4.3125 10 C1.12789396 10.80322213 -1.6972843 11.20641973 -5 11 C-5.33 10.01 -5.66 9.02 -6 8 C-4.4045651 5.94272868 -2.73473712 3.94125344 -1 2 C-0.67 1.34 -0.34 0.68 0 0 Z " fill="#2F2F2F" transform="translate(266,282)"/>
<path d="M0 0 C1.32 0.33 2.64 0.66 4 1 C3.67 2.32 3.34 3.64 3 5 C5.97 4.34 8.94 3.68 12 3 C12.99 4.485 12.99 4.485 14 6 C10.37 6 6.74 6 3 6 C3 7.65 3 9.3 3 11 C3.60328125 10.9278125 4.2065625 10.855625 4.828125 10.78125 C5.62734375 10.6884375 6.4265625 10.595625 7.25 10.5 C8.03890625 10.4071875 8.8278125 10.314375 9.640625 10.21875 C12 10 12 10 16 10 C16.33 10.66 16.66 11.32 17 12 C11.39 12 5.78 12 0 12 C0 8.04 0 4.08 0 0 Z " fill="#2D2D2D" transform="translate(425,302)"/>
<path d="M0 0 C-0.33 5.94 -0.66 11.88 -1 18 C-2.98 18.99 -2.98 18.99 -5 20 C-5.66 18.68 -6.32 17.36 -7 16 C-6.01 16 -5.02 16 -4 16 C-4 11.05 -4 6.1 -4 1 C-5.98 1 -7.96 1 -10 1 C-10 0.67 -10 0.34 -10 0 C-4.5 -2.25 -4.5 -2.25 0 0 Z " fill="#383838" transform="translate(276,296)"/>
<path d="M0 0 C3.63 0 7.26 0 11 0 C12.4552777 2.9105554 11.63516661 4.95849052 11.0625 8.125 C10.86785156 9.22070312 10.67320312 10.31640625 10.47265625 11.4453125 C10.31667969 12.28835938 10.16070312 13.13140625 10 14 C10.66 14 11.32 14 12 14 C11.67 17.3 11.34 20.6 11 24 C10.34 24 9.68 24 9 24 C8.00137301 16.63512596 7.89668969 9.42686315 8 2 C5.36 2 2.72 2 0 2 C0 1.34 0 0.68 0 0 Z " fill="#434343" transform="translate(361,284)"/>
<path d="M0 0 C2.375 -0.125 2.375 -0.125 5 0 C7.39763185 2.39763185 7.34280586 3.33273498 7.625 6.625 C7.69976562 7.44226563 7.77453125 8.25953125 7.8515625 9.1015625 C7.92503906 10.04128906 7.92503906 10.04128906 8 11 C6.68 11 5.36 11 4 11 C2.65835921 11.2981424 1.32148827 11.62243192 0 12 C-0.66 10.68 -1.32 9.36 -2 8 C-1.195625 7.401875 -0.39125 6.80375 0.4375 6.1875 C3.22327984 4.19052724 3.22327984 4.19052724 4 1 C3.01 1 2.02 1 1 1 C1 1.99 1 2.98 1 4 C0.34 4 -0.32 4 -1 4 C-0.67 2.68 -0.34 1.36 0 0 Z " fill="#747474" transform="translate(349,336)"/>
<path d="M0 0 C1.32 0 2.64 0 4 0 C4.33 1.65 4.66 3.3 5 5 C5.804375 5.144375 6.60875 5.28875 7.4375 5.4375 C10 6 10 6 11 7 C11.25 10.4375 11.25 10.4375 11 14 C10.01 14.66 9.02 15.32 8 16 C8 13.36 8 10.72 8 8 C6.68 8 5.36 8 4 8 C3.74984127 11.41642759 3.74984127 11.41642759 4 15 C4.99 15.66 5.98 16.32 7 17 C5.02 16.67 3.04 16.34 1 16 C0.67 10.72 0.34 5.44 0 0 Z " fill="#5E5E5E" transform="translate(358,331)"/>
<path d="M0 0 C1.65 0.33 3.3 0.66 5 1 C5.061875 1.556875 5.12375 2.11375 5.1875 2.6875 C6.52117079 6.48333226 9.42340827 9.21170413 13 11 C12.67 11.99 12.34 12.98 12 14 C9.29561004 13.63594751 8.25593617 13.31857318 6.515625 11.15234375 C6.09796875 10.42144531 5.6803125 9.69054687 5.25 8.9375 C4.82203125 8.20402344 4.3940625 7.47054688 3.953125 6.71484375 C3.63859375 6.14894531 3.3240625 5.58304687 3 5 C0.06799526 7.85276137 -2.64315404 10.65079784 -5 14 C-5.66 13.67 -6.32 13.34 -7 13 C-6.66226562 12.48050781 -6.32453125 11.96101563 -5.9765625 11.42578125 C-3.60108299 7.71151993 -1.44237185 4.19599085 0 0 Z " fill="#4E4E4E" transform="translate(379,282)"/>
<path d="M0 0 C1.16982422 -0.020625 2.33964844 -0.04125 3.54492188 -0.0625 C4.66318359 -0.06765625 5.78144531 -0.0728125 6.93359375 -0.078125 C7.94349365 -0.0874707 8.95339355 -0.09681641 9.99389648 -0.10644531 C12.91646039 0.29911911 13.78386549 0.95815966 15.5625 3.25 C6.61037377 3.31673083 -2.30617472 3.12711856 -11.25 2.75 C-12.43142578 2.70230469 -13.61285156 2.65460938 -14.83007812 2.60546875 C-17.6993223 2.48930502 -20.56844746 2.37078869 -23.4375 2.25 C-23.4375 1.92 -23.4375 1.59 -23.4375 1.25 C-15.61987158 0.29296648 -7.87161098 0.0355177 0 0 Z " fill="#266D8E" transform="translate(33.4375,152.75)"/>
<path d="M0 0 C1.98 0 3.96 0 6 0 C5.01 0.495 5.01 0.495 4 1 C4 5.95 4 10.9 4 16 C6.64 15.67 9.28 15.34 12 15 C12.33 14.01 12.66 13.02 13 12 C13.33 12.99 13.66 13.98 14 15 C13.67 15.66 13.34 16.32 13 17 C8.38 17 3.76 17 -1 17 C-0.34 16.67 0.32 16.34 1 16 C0.67 10.72 0.34 5.44 0 0 Z " fill="#474747" transform="translate(332,331)"/>
<path d="M0 0 C2.5625 -0.25 2.5625 -0.25 5 0 C6 1 6 1 6.09765625 3.06640625 C6.08605469 3.89011719 6.07445312 4.71382813 6.0625 5.5625 C6.05347656 6.38878906 6.04445313 7.21507812 6.03515625 8.06640625 C6.02355469 8.70449219 6.01195312 9.34257812 6 10 C6.66 10.33 7.32 10.66 8 11 C6.68 11 5.36 11 4 11 C2.32774271 11.30404678 0.65919896 11.63128912 -1 12 C-1.33 10.35 -1.66 8.7 -2 7 C-1.195625 6.566875 -0.39125 6.13375 0.4375 5.6875 C3.27846354 4.19525998 3.27846354 4.19525998 4 1 C3.01 1 2.02 1 1 1 C1 1.99 1 2.98 1 4 C0.01 3.67 -0.98 3.34 -2 3 C-1.34 2.01 -0.68 1.02 0 0 Z " fill="#CACACA" transform="translate(394,336)"/>
<path d="M0 0 C2.05078125 0.03255208 4.1015625 0.06510417 6.15234375 0.09765625 C6.15234375 1.74765625 6.15234375 3.39765625 6.15234375 5.09765625 C5.53359375 4.35515625 5.53359375 4.35515625 4.90234375 3.59765625 C3.03032037 1.66379533 3.03032037 1.66379533 -0.84765625 2.09765625 C0.25909488 5.01545469 0.96306595 5.98685949 3.71484375 7.59765625 C6.15234375 9.09765625 6.15234375 9.09765625 7.15234375 11.03515625 C7.15234375 13.09765625 7.15234375 13.09765625 6.02734375 15.34765625 C4.15234375 17.09765625 4.15234375 17.09765625 1.46484375 17.34765625 C0.70171875 17.26515625 -0.06140625 17.18265625 -0.84765625 17.09765625 C0.47234375 16.43765625 1.79234375 15.77765625 3.15234375 15.09765625 C2.9760854 12.71816853 2.45514602 11.39539776 0.75 9.71875 C-0.75414717 8.47650139 -2.29895476 7.28389569 -3.84765625 6.09765625 C-2.77957394 0.14691194 -2.77957394 0.14691194 0 0 Z " fill="#434343" transform="translate(14.84765625,330.90234375)"/>
<path d="M0 0 C1.32 0.66 2.64 1.32 4 2 C4 2.33 4 2.66 4 3 C-0.95 3 -5.9 3 -11 3 C-11 10.92 -11 18.84 -11 27 C-11.33 27 -11.66 27 -12 27 C-12 19.41 -12 11.82 -12 4 C-15.63 4 -19.26 4 -23 4 C-23 3.34 -23 2.68 -23 2 C-22.00818726 1.96241577 -22.00818726 1.96241577 -20.99633789 1.92407227 C-18.01817695 1.80846898 -15.0403608 1.68558246 -12.0625 1.5625 C-10.50112305 1.50352539 -10.50112305 1.50352539 -8.90820312 1.44335938 C-7.42416992 1.38051758 -7.42416992 1.38051758 -5.91015625 1.31640625 C-4.53549194 1.26141968 -4.53549194 1.26141968 -3.13305664 1.20532227 C-1.0179272 1.22996136 -1.0179272 1.22996136 0 0 Z " fill="#686868" transform="translate(186,285)"/>
<path d="M0 0 C1.16293963 3.48881888 0.43757305 5.03077846 -0.51953125 8.4609375 C-1.48715971 13.57442125 -1.14220809 18.81730515 -1 24 C-2.32 24.33 -3.64 24.66 -5 25 C-5 21.7 -5 18.4 -5 15 C-5.66 14.67 -6.32 14.34 -7 14 C-6.34 13.67 -5.68 13.34 -5 13 C-4.05431417 10.84211688 -3.19047955 8.64787878 -2.375 6.4375 C-1.92898437 5.23996094 -1.48296875 4.04242188 -1.0234375 2.80859375 C-0.68570313 1.88175781 -0.34796875 0.95492188 0 0 Z " fill="#434343" transform="translate(68,291)"/>
<path d="M0 0 C5.4611399 0.35233161 5.4611399 0.35233161 8 1 C9.5 3.0625 9.5 3.0625 10 5 C7.55448092 7.25740223 6.23143959 7.97222725 2.875 8.375 C1.451875 8.189375 1.451875 8.189375 0 8 C-0.66 7.01 -1.32 6.02 -2 5 C-1.125 2.3125 -1.125 2.3125 0 0 Z " fill="#5D5D5D" transform="translate(62,345)"/>
<path d="M0 0 C0.721875 0.00257813 1.44375 0.00515625 2.1875 0.0078125 C2.909375 0.00523437 3.63125 0.00265625 4.375 0 C6.1875 0.1328125 6.1875 0.1328125 7.1875 1.1328125 C7.39518229 2.60677989 7.55466017 4.0877251 7.6875 5.5703125 C7.97896944 8.97778755 7.97896944 8.97778755 9.1875 12.1328125 C7.5375 12.1328125 5.8875 12.1328125 4.1875 12.1328125 C4.5175 8.8328125 4.8475 5.5328125 5.1875 2.1328125 C4.1975 2.4628125 3.2075 2.7928125 2.1875 3.1328125 C2.1875 6.1028125 2.1875 9.0728125 2.1875 12.1328125 C0.5375 12.1328125 -1.1125 12.1328125 -2.8125 12.1328125 C-2.1525 8.8328125 -1.4925 5.5328125 -0.8125 2.1328125 C-1.4725 1.8028125 -2.1325 1.4728125 -2.8125 1.1328125 C-1.8125 0.1328125 -1.8125 0.1328125 0 0 Z " fill="#575757" transform="translate(292.8125,335.8671875)"/>
<path d="M0 0 C0 0.66 0 1.32 0 2 C0.66 2 1.32 2 2 2 C1.67 2.99 1.34 3.98 1 5 C-3 5 -3 5 -11 4 C-11 10.93 -11 17.86 -11 25 C-11.33 25 -11.66 25 -12 25 C-12.33 17.41 -12.66 9.82 -13 2 C-4 0 -4 0 0 0 Z " fill="#E4E4E4" transform="translate(274,291)"/>
<path d="M0 0 C2.4375 0.9375 2.4375 0.9375 3.75 3 C4.0903125 3.9590625 4.0903125 3.9590625 4.4375 4.9375 C1.7975 4.9375 -0.8425 4.9375 -3.5625 4.9375 C-2.9025 6.2575 -2.2425 7.5775 -1.5625 8.9375 C0.4175 8.6075 2.3975 8.2775 4.4375 7.9375 C4.1075 8.9275 3.7775 9.9175 3.4375 10.9375 C-1.98715753 12.2635274 -1.98715753 12.2635274 -4.4375 10.875 C-6.06183741 8.07753001 -5.95954314 6.11384515 -5.5625 2.9375 C-3.89934113 0.22392501 -3.19467436 -0.07791889 0 0 Z " fill="#969696" transform="translate(319.5625,336.0625)"/>
<path d="M0 0 C3.125 0.375 3.125 0.375 6 1 C6.33 2.32 6.66 3.64 7 5 C4.36 5 1.72 5 -1 5 C-0.34 6.32 0.32 7.64 1 9 C2.98 8.67 4.96 8.34 7 8 C6.67 8.99 6.34 9.98 6 11 C0.6135721 12.31668238 0.6135721 12.31668238 -1.9375 11 C-3.62100864 7.83104255 -2.80173218 5.39194386 -2 2 C-1.34 1.34 -0.68 0.68 0 0 Z " fill="#939393" transform="translate(237,336)"/>
<path d="M0 0 C4.29 0 8.58 0 13 0 C13 1.65 13 3.3 13 5 C8.71 5 4.42 5 0 5 C0 3.35 0 1.7 0 0 Z " fill="#EFEFEF" transform="translate(219,302)"/>
<path d="M0 0 C3.63 0 7.26 0 11 0 C10.67 2.31 10.34 4.62 10 7 C9.01 7 8.02 7 7 7 C6.71125 6.195625 6.4225 5.39125 6.125 4.5625 C5.26737432 1.8673532 5.26737432 1.8673532 3 1 C3.66 2.98 4.32 4.96 5 7 C3.02 7 1.04 7 -1 7 C-0.67 4.69 -0.34 2.38 0 0 Z " fill="#E9E9E9" transform="translate(75,301)"/>
<path d="M0 0 C1.32 0.33 2.64 0.66 4 1 C3.54636829 2.58468677 3.08688548 4.16769924 2.625 5.75 C2.24214844 7.07257813 2.24214844 7.07257813 1.8515625 8.421875 C1.0790066 10.76080572 0.16374324 12.83442562 -1 15 C0.65 14.34 2.3 13.68 4 13 C4.99 14.485 4.99 14.485 6 16 C-0.6 16 -7.2 16 -14 16 C-14 15.67 -14 15.34 -14 15 C-10.37 15 -6.74 15 -3 15 C-2.01 10.05 -1.02 5.1 0 0 Z " fill="#393939" transform="translate(386,298)"/>
<path d="M0 0 C2.91488977 2.6234008 4.88503898 5.71816394 7 9 C6.67 9.66 6.34 10.32 6 11 C5.01 10.34 4.02 9.68 3 9 C0.71351152 8.75892674 0.71351152 8.75892674 -1.6875 8.875 C-2.49574219 8.89304687 -3.30398438 8.91109375 -4.13671875 8.9296875 C-4.75160156 8.95289063 -5.36648438 8.97609375 -6 9 C-4.38617243 5.59787701 -2.41396234 2.89675481 0 0 Z " fill="#F1F1F1" transform="translate(381,286)"/>
<path d="M0 0 C1.1446875 0.3403125 1.1446875 0.3403125 2.3125 0.6875 C2.6425 2.0075 2.9725 3.3275 3.3125 4.6875 C1.0025 4.6875 -1.3075 4.6875 -3.6875 4.6875 C-2.63875002 7.30937494 -2.03818687 8.48121361 0.4375 9.9375 C1.05625 10.185 1.675 10.4325 2.3125 10.6875 C0 11.375 0 11.375 -2.6875 11.6875 C-4.5 10.625 -4.5 10.625 -5.6875 8.6875 C-6.08861303 5.47859575 -6.20983914 3.53973754 -4.5 0.75 C-2.6875 -0.3125 -2.6875 -0.3125 0 0 Z " fill="#979797" transform="translate(284.6875,336.3125)"/>
<path d="M0 0 C2.05078125 0.03255208 4.1015625 0.06510417 6.15234375 0.09765625 C6.48234375 2.07765625 6.81234375 4.05765625 7.15234375 6.09765625 C7.81234375 6.09765625 8.47234375 6.09765625 9.15234375 6.09765625 C8.64198544 10.48673775 7.63020098 13.43473687 5.15234375 17.09765625 C3.83234375 16.76765625 2.51234375 16.43765625 1.15234375 16.09765625 C2.15234375 14.09765625 2.15234375 14.09765625 5.15234375 13.09765625 C4.60128466 9.14839945 3.76299004 5.74845451 2.15234375 2.09765625 C1.16234375 2.42765625 0.17234375 2.75765625 -0.84765625 3.09765625 C-1.50765625 2.43765625 -2.16765625 1.77765625 -2.84765625 1.09765625 C-1.84765625 0.09765625 -1.84765625 0.09765625 0 0 Z " fill="#555555" transform="translate(429.84765625,335.90234375)"/>
<path d="M0 0 C2.5625 -0.25 2.5625 -0.25 5 0 C6 1 6 1 6.09765625 3.06640625 C6.08605469 3.89011719 6.07445312 4.71382813 6.0625 5.5625 C6.05347656 6.38878906 6.04445312 7.21507812 6.03515625 8.06640625 C6.02355469 8.70449219 6.01195312 9.34257812 6 10 C6.66 10.33 7.32 10.66 8 11 C4.8035914 12.06546953 2.34252724 12.07427838 -1 12 C-1.33 10.35 -1.66 8.7 -2 7 C-1.01 7 -0.02 7 1 7 C0.67 7.99 0.34 8.98 0 10 C1.32 10 2.64 10 4 10 C3.814375 9.071875 3.62875 8.14375 3.4375 7.1875 C3 4 3 4 4 1 C3.01 1 2.02 1 1 1 C1 1.99 1 2.98 1 4 C0.01 3.67 -0.98 3.34 -2 3 C-1.34 2.01 -0.68 1.02 0 0 Z " fill="#3E3E3E" transform="translate(184,336)"/>
<path d="M0 0 C3.29150125 -0.08685287 6.5827096 -0.14033895 9.875 -0.1875 C10.81214844 -0.21263672 11.74929688 -0.23777344 12.71484375 -0.26367188 C14.05869141 -0.27817383 14.05869141 -0.27817383 15.4296875 -0.29296875 C16.25710449 -0.3086792 17.08452148 -0.32438965 17.93701172 -0.34057617 C18.61779785 -0.22818604 19.29858398 -0.1157959 20 0 C20.66 0.99 21.32 1.98 22 3 C14.74 3 7.48 3 0 3 C0 2.01 0 1.02 0 0 Z " fill="#1F6788" transform="translate(332,153)"/>
<path d="M0 0 C1.875 1.0625 1.875 1.0625 3 3 C2.66666667 9.33333333 2.66666667 9.33333333 0 12 C-2.80984248 12.36023622 -4.38241919 12.38332602 -6.8125 10.875 C-8.55198782 8.12844028 -8.39769128 6.18153026 -8 3 C-5.90534242 -0.30735407 -3.75951639 -0.56392746 0 0 Z M-4 1 C-4.66 1.66 -5.32 2.32 -6 3 C-5.67673447 6.59679066 -5.67673447 6.59679066 -5 10 C-3.10820797 10.6814823 -3.10820797 10.6814823 -1 11 C1.22966747 9.17796419 1.22966747 9.17796419 1.3125 6.5625 C1.21413525 3.96639046 1.21413525 3.96639046 -0.375 2.1875 C-1.93368783 0.8033278 -1.93368783 0.8033278 -4 1 Z " fill="#505050" transform="translate(379,336)"/>
<path d="M0 0 C2.4375 0.1875 2.4375 0.1875 3.4375 1.1875 C3.50929964 2.70678038 3.52142007 4.22917482 3.5 5.75 C3.49097656 6.57628906 3.48195313 7.40257812 3.47265625 8.25390625 C3.46105469 8.89199219 3.44945313 9.53007812 3.4375 10.1875 C4.0975 10.5175 4.7575 10.8475 5.4375 11.1875 C2.2410914 12.25296953 -0.21997276 12.26177838 -3.5625 12.1875 C-3.8925 10.5375 -4.2225 8.8875 -4.5625 7.1875 C-3.5725 7.1875 -2.5825 7.1875 -1.5625 7.1875 C-1.8925 8.1775 -2.2225 9.1675 -2.5625 10.1875 C-1.2425 10.1875 0.0775 10.1875 1.4375 10.1875 C1.251875 9.259375 1.06625 8.33125 0.875 7.375 C0.4375 4.1875 0.4375 4.1875 1.4375 1.1875 C0.4475 1.1875 -0.5425 1.1875 -1.5625 1.1875 C-1.8925 2.1775 -2.2225 3.1675 -2.5625 4.1875 C-3.2225 3.5275 -3.8825 2.8675 -4.5625 2.1875 C-2.5625 0.1875 -2.5625 0.1875 0 0 Z " fill="#464646" transform="translate(90.5625,335.8125)"/>
<path d="M0 0 C0.66 0 1.32 0 2 0 C3.01866229 1.65532623 4.01810813 3.32260138 5 5 C5.66 5.33 6.32 5.66 7 6 C6.0022242 3.00667261 5.2477975 2.05233685 3 0 C4.98 0 6.96 0 9 0 C9 2.31 9 4.62 9 7 C5.7 7 2.4 7 -1 7 C-0.67 4.69 -0.34 2.38 0 0 Z " fill="#E9E9E9" transform="translate(76,293)"/>
<path d="M0 0 C2.0625 0.4375 2.0625 0.4375 4 1 C5.125 7.75 5.125 7.75 4 10 C2.35 9.67 0.7 9.34 -1 9 C-1.09765625 2.84765625 -1.09765625 2.84765625 -1 1 C-0.67 0.67 -0.34 0.34 0 0 Z " fill="#F5F5F5" transform="translate(414,337)"/>
<path d="M0 0 C4.29 0 8.58 0 13 0 C13 1.32 13 2.64 13 4 C8.71 4 4.42 4 0 4 C0 2.68 0 1.36 0 0 Z " fill="#FFFFFF" transform="translate(219,308)"/>
<path d="M0 0 C6.27 0 12.54 0 19 0 C19 0.66 19 1.32 19 2 C22.3 2 25.6 2 29 2 C29 2.33 29 2.66 29 3 C19.26475712 3.13500337 9.70178229 2.7609241 0 2 C0 1.34 0 0.68 0 0 Z " fill="#176385" transform="translate(10,166)"/>
<path d="M0 0 C1.67542976 0.28604898 3.34385343 0.61781233 5 1 C4.67 3.97 4.34 6.94 4 10 C1.525 9.01 1.525 9.01 -1 8 C-1.04241723 5.66705225 -1.04092937 3.33297433 -1 1 C-0.67 0.67 -0.34 0.34 0 0 Z " fill="#EAEAEA" transform="translate(362,338)"/>
<path d="M0 0 C1.75 2 1.75 2 3 4 C-0.51187196 6.40814077 -2.72656908 7.36629408 -7 7 C-7 5.68 -7 4.36 -7 3 C-7.66 2.34 -8.32 1.68 -9 1 C-5.846632 0.29925156 -3.27275026 0 0 0 Z " fill="#F4F4F4" transform="translate(435,300)"/>
<path d="M0 0 C1.05960937 0.00676758 1.05960937 0.00676758 2.140625 0.01367188 C3.88545275 0.02546125 5.630237 0.04339676 7.375 0.0625 C7.375 1.0525 7.375 2.0425 7.375 3.0625 C1.765 3.0625 -3.845 3.0625 -9.625 3.0625 C-9.625 2.4025 -9.625 1.7425 -9.625 1.0625 C-6.55966836 -0.47016582 -3.35745728 -0.04026471 0 0 Z " fill="#136285" transform="translate(434.625,152.9375)"/>
<path d="M0 0 C1.98 0 3.96 0 6 0 C6 2.64 6 5.28 6 8 C4.02 8 2.04 8 0 8 C0 5.36 0 2.72 0 0 Z " fill="#F9F9F9" transform="translate(230,287)"/>
<path d="M0 0 C1.98 0 3.96 0 6 0 C6.33 0.66 6.66 1.32 7 2 C4.03 1.505 4.03 1.505 1 1 C0.97307516 3.29160319 0.95363876 5.58329546 0.9375 7.875 C0.92589844 9.15117187 0.91429687 10.42734375 0.90234375 11.7421875 C0.76823431 14.88664652 0.76823431 14.88664652 2 17 C0.35 17 -1.3 17 -3 17 C-2.67 13.37 -2.34 9.74 -2 6 C-2.66 5.67 -3.32 5.34 -4 5 C-3.34 5 -2.68 5 -2 5 C-1.34 3.35 -0.68 1.7 0 0 Z " fill="#575757" transform="translate(153,331)"/>
<path d="M0 0 C0.99 0 1.98 0 3 0 C2.67 4.62 2.34 9.24 2 14 C1.01 14.33 0.02 14.66 -1 15 C-1.91457003 9.43842552 -2.32086397 5.324335 0 0 Z " fill="#2E2E2E" transform="translate(233,301)"/>
<path d="M0 0 C1.32 0 2.64 0 4 0 C4 1.98 4 3.96 4 6 C5.65 5.34 7.3 4.68 9 4 C9 3.34 9 2.68 9 2 C10.32 2.66 11.64 3.32 13 4 C10.08025204 6.48719271 7.83206182 7.58572305 4 8 C3 7 3 7 2.9375 3.9375 C2.958125 2.968125 2.97875 1.99875 3 1 C2.34 1 1.68 1 1 1 C1 5.62 1 10.24 1 15 C0.67 15 0.34 15 0 15 C0 10.05 0 5.1 0 0 Z " fill="#5A5A5A" transform="translate(278,282)"/>
<path d="M0 0 C1.91015625 0.23046875 1.91015625 0.23046875 3.91015625 2.23046875 C1.3594678 4.5849504 0.19998267 5.21374799 -3.33984375 5.41796875 C-4.24734375 5.35609375 -5.15484375 5.29421875 -6.08984375 5.23046875 C-6.65234375 3.29296875 -6.65234375 3.29296875 -7.08984375 1.23046875 C-5.19495423 -0.66442077 -2.51845229 0.05027763 0 0 Z " fill="#F1F1F1" transform="translate(274.08984375,347.76953125)"/>
<path d="M0 0 C1.2375 0.1546875 1.2375 0.1546875 2.5 0.3125 C3.16 1.3025 3.82 2.2925 4.5 3.3125 C3.51 3.8075 3.51 3.8075 2.5 4.3125 C2.17 3.6525 1.84 2.9925 1.5 2.3125 C0.18 2.6425 -1.14 2.9725 -2.5 3.3125 C-2.5 5.2925 -2.5 7.2725 -2.5 9.3125 C1.12885324 9.46399298 1.12885324 9.46399298 4.5 8.3125 C4.17 9.3025 3.84 10.2925 3.5 11.3125 C1.52 11.6425 -0.46 11.9725 -2.5 12.3125 C-4.0625 10.6875 -4.0625 10.6875 -5.5 8.3125 C-5.23425139 3.88335651 -4.94849501 0.61856188 0 0 Z " fill="#4F4F4F" transform="translate(168.5,335.6875)"/>
<path d="M0 0 C0.33 0.99 0.66 1.98 1 3 C1.66 3.33 2.32 3.66 3 4 C2.34 4 1.68 4 1 4 C1 6.97 1 9.94 1 13 C1.66 13.33 2.32 13.66 3 14 C1.68 14 0.36 14 -1 14 C-2.65653686 12.34346314 -2.17106165 10.39349204 -2.1875 8.125 C-2.20167969 7.24070312 -2.21585938 6.35640625 -2.23046875 5.4453125 C-2 3 -2 3 0 0 Z " fill="#565656" transform="translate(138,333)"/>
<path d="M0 0 C1.32 0 2.64 0 4 0 C4.06058594 1.05960937 4.12117188 2.11921875 4.18359375 3.2109375 C4.26800127 4.59897221 4.35264917 5.98699232 4.4375 7.375 C4.47681641 8.07367188 4.51613281 8.77234375 4.55664062 9.4921875 C4.74280134 13.37360492 4.74280134 13.37360492 6 17 C4.02 17 2.04 17 0 17 C0.66 16.67 1.32 16.34 2 16 C2 11.05 2 6.1 2 1 C1.34 0.67 0.68 0.34 0 0 Z " fill="#474747" transform="translate(252,331)"/>
<path d="M0 0 C0.66 0 1.32 0 2 0 C2.66 1.98 3.32 3.96 4 6 C3.34 6 2.68 6 2 6 C2.33 7.32 2.66 8.64 3 10 C1.35 10 -0.3 10 -2 10 C-3.39195915 5.82412255 -1.82323219 3.86525224 0 0 Z " fill="#545454" transform="translate(116,331)"/>
<path d="M0 0 C1.65 0.33 3.3 0.66 5 1 C4.01 1.495 4.01 1.495 3 2 C3.33 4.31 3.66 6.62 4 9 C2.02 9 0.04 9 -2 9 C-1.34 6.03 -0.68 3.06 0 0 Z " fill="#7F7F7F" transform="translate(213,282)"/>
<path d="M0 0 C0.99 0 1.98 0 3 0 C3.71220795 5.07448161 4 9.86772798 4 15 C4.33 15.66 4.66 16.32 5 17 C3.35 17 1.7 17 0 17 C0 11.39 0 5.78 0 0 Z " fill="#454545" transform="translate(73,331)"/>
<path d="M0 0 C0.99 0 1.98 0 3 0 C3.91397824 5.68697571 3.91397824 10.31302429 3 16 C3.66 16.33 4.32 16.66 5 17 C3.02 17 1.04 17 -1 17 C-0.34 16.67 0.32 16.34 1 16 C0.67 10.72 0.34 5.44 0 0 Z " fill="#373737" transform="translate(24,331)"/>
<path d="M0 0 C3.63 0 7.26 0 11 0 C11 0.33 11 0.66 11 1 C13.64 1.33 16.28 1.66 19 2 C19 2.33 19 2.66 19 3 C12.73 3 6.46 3 0 3 C0 2.01 0 1.02 0 0 Z " fill="#206A8C" transform="translate(294,217)"/>
<path d="M0 0 C0 3.63 0 7.26 0 11 C0.66 11.33 1.32 11.66 2 12 C0.02 12 -1.96 12 -4 12 C-4 8.37 -4 4.74 -4 1 C-2 0 -2 0 0 0 Z " fill="#606060" transform="translate(101,336)"/>
<path d="M0 0 C2.31 0 4.62 0 7 0 C6.34 3.3 5.68 6.6 5 10 C0 3.33333333 0 3.33333333 0 0 Z " fill="#F7F7F7" transform="translate(380,297)"/>
<path d="M0 0 C0.33 0 0.66 0 1 0 C1.33 1.65 1.66 3.3 2 5 C2.66 4.67 3.32 4.34 4 4 C3.67 6.64 3.34 9.28 3 12 C1.35 12.33 -0.3 12.66 -2 13 C-1.85915204 11.20793453 -1.71216299 9.41635083 -1.5625 7.625 C-1.48128906 6.62726563 -1.40007812 5.62953125 -1.31640625 4.6015625 C-1 2 -1 2 0 0 Z " fill="#DADADA" transform="translate(69,288)"/>
<path d="M0 0 C2.97 0.33 5.94 0.66 9 1 C8.01 1.495 8.01 1.495 7 2 C6.34444881 4.52733235 6.34444881 4.52733235 6 7 C5.67 7 5.34 7 5 7 C4.67 5.35 4.34 3.7 4 2 C3.01 1.67 2.02 1.34 1 1 C1.57452746 4.93075644 1.57452746 4.93075644 4 8 C2.35 7.67 0.7 7.34 -1 7 C-1.625 5.1875 -1.625 5.1875 -2 3 C-1.34 2.01 -0.68 1.02 0 0 Z " fill="#4F4F4F" transform="translate(63,336)"/>
<path d="M0 0 C4.87362847 0.45336079 7.39042389 1.7089159 11 5 C10.67 6.32 10.34 7.64 10 9 C8.70391053 8.06862408 7.41328368 7.1296434 6.125 6.1875 C5.40570313 5.66542969 4.68640625 5.14335937 3.9453125 4.60546875 C2 3 2 3 0 0 Z " fill="#393939" transform="translate(329,307)"/>
<path d="M0 0 C0.33 0 0.66 0 1 0 C1.12375 0.78375 1.2475 1.5675 1.375 2.375 C1.79117993 5.14057822 1.79117993 5.14057822 4 7 C3.01 7 2.02 7 1 7 C1 7.66 1 8.32 1 9 C2.98 9 4.96 9 7 9 C7 9.99 7 10.98 7 12 C4.69 11.67 2.38 11.34 0 11 C-0.77675511 7.60169639 -1.19382275 4.48880949 -1 1 C-0.67 0.67 -0.34 0.34 0 0 Z " fill="#4D4D4D" transform="translate(269,337)"/>
<path d="M0 0 C1.66611905 -0.042721 3.33382885 -0.04063832 5 0 C6 1 6 1 6.09765625 3.06640625 C6.08605469 3.89011719 6.07445312 4.71382813 6.0625 5.5625 C6.05347656 6.38878906 6.04445313 7.21507812 6.03515625 8.06640625 C6.02355469 8.70449219 6.01195312 9.34257812 6 10 C6.66 10.33 7.32 10.66 8 11 C6.68 11 5.36 11 4 11 C2.875 4.375 2.875 4.375 4 1 C3.01 1 2.02 1 1 1 C0.67 1.99 0.34 2.98 0 4 C-0.66 4 -1.32 4 -2 4 C-1.34 2.68 -0.68 1.36 0 0 Z " fill="#464646" transform="translate(39,336)"/>
<path d="M0 0 C1.32 0.33 2.64 0.66 4 1 C3.34 4.3 2.68 7.6 2 11 C0.68 11 -0.64 11 -2 11 C-1.34 7.37 -0.68 3.74 0 0 Z " fill="#444444" transform="translate(363,289)"/>
<path d="M0 0 C0.99 0 1.98 0 3 0 C2.46719784 4.22489602 1.12321801 6.54080716 -1.5625 9.8125 C-2.20316406 10.60269531 -2.84382813 11.39289063 -3.50390625 12.20703125 C-3.99761719 12.79871094 -4.49132812 13.39039063 -5 14 C-5.66 13.67 -6.32 13.34 -7 13 C-6.66226562 12.48050781 -6.32453125 11.96101563 -5.9765625 11.42578125 C-3.60108299 7.71151993 -1.44237185 4.19599085 0 0 Z " fill="#3D3D3D" transform="translate(379,282)"/>
<path d="M0 0 C3 1 3 1 4.6875 3.875 C6 7 6 7 6 10 C5.34 10 4.68 10 4 10 C3.34 8.35 2.68 6.7 2 5 C-0.64 5.33 -3.28 5.66 -6 6 C-5.34 4.68 -4.68 3.36 -4 2 C-4 2.66 -4 3.32 -4 4 C-2.35 4 -0.7 4 1 4 C0.67 2.68 0.34 1.36 0 0 Z " fill="#383838" transform="translate(118,337)"/>
<path d="M0 0 C1.67542976 0.28604898 3.34385343 0.61781233 5 1 C5 4.3 5 7.6 5 11 C5.66 11.33 6.32 11.66 7 12 C5.02 12 3.04 12 1 12 C1.66 11.67 2.32 11.34 3 11 C3 8.03 3 5.06 3 2 C1.68 1.67 0.36 1.34 -1 1 C-0.67 0.67 -0.34 0.34 0 0 Z " fill="#464646" transform="translate(78,336)"/>
<path d="M0 0 C1.67542976 0.28604898 3.34385343 0.61781233 5 1 C5 4.3 5 7.6 5 11 C5.66 11.33 6.32 11.66 7 12 C5.02 12 3.04 12 1 12 C1.66 11.67 2.32 11.34 3 11 C3 8.03 3 5.06 3 2 C1.68 1.67 0.36 1.34 -1 1 C-0.67 0.67 -0.34 0.34 0 0 Z " fill="#414141" transform="translate(29,336)"/>
<path d="M0 0 C2.64 0.33 5.28 0.66 8 1 C8 1.33 8 1.66 8 2 C6.02 2 4.04 2 2 2 C2 5.96 2 9.92 2 14 C1.34 14 0.68 14 0 14 C0 9.38 0 4.76 0 0 Z " fill="#2D2D2D" transform="translate(228,285)"/>
<path d="M0 0 C3.69230769 0.69230769 3.69230769 0.69230769 5 2 C5.23287008 3.68183948 5.41264166 5.3712416 5.5625 7.0625 C5.64628906 7.98160156 5.73007812 8.90070313 5.81640625 9.84765625 C5.87699219 10.55792969 5.93757813 11.26820313 6 12 C4.35 12 2.7 12 1 12 C1.33 11.34 1.66 10.68 2 10 C2.33333333 6.5 2.33333333 6.5 2 3 C1.01 2.34 0.02 1.68 -1 1 C-0.67 0.67 -0.34 0.34 0 0 Z " fill="#4A4A4A" transform="translate(53,336)"/>
<path d="M0 0 C2.64 0 5.28 0 8 0 C8.125 2.875 8.125 2.875 8 6 C7.34 6.66 6.68 7.32 6 8 C6 6.68 6 5.36 6 4 C4.02 3.34 2.04 2.68 0 2 C0 1.34 0 0.68 0 0 Z " fill="#E6E6E6" transform="translate(219,292)"/>
<path d="M0 0 C1.65 0.33 3.3 0.66 5 1 C2.14723863 3.93200474 -0.65079784 6.64315404 -4 9 C-4.66 8.67 -5.32 8.34 -6 8 C-4.73046875 6.50260417 -3.4609375 5.00520833 -2.19140625 3.5078125 C-0.9121848 1.99405921 -0.9121848 1.99405921 0 0 Z " fill="#4A4A4A" transform="translate(266,282)"/>
<path d="M0 0 C0.33 0 0.66 0 1 0 C1.66 2.31 2.32 4.62 3 7 C4.98 6.67 6.96 6.34 9 6 C8.67 6.99 8.34 7.98 8 9 C2.57534247 10.3260274 2.57534247 10.3260274 0.125 8.9375 C-1.45713177 6.21271751 -1.26880582 4.09126692 -1 1 C-0.67 0.67 -0.34 0.34 0 0 Z " fill="#464646" transform="translate(315,338)"/>
<path d="M0 0 C0 3.63 0 7.26 0 11 C0.66 11.33 1.32 11.66 2 12 C-0.31 12 -2.62 12 -5 12 C-4.34 11.34 -3.68 10.68 -3 10 C-2.54188325 8.02764667 -2.54188325 8.02764667 -2.375 5.875 C-2.25125 4.59625 -2.1275 3.3175 -2 2 C-2.66 1.67 -3.32 1.34 -4 1 C-2 0 -2 0 0 0 Z " fill="#5A5A5A" transform="translate(179,336)"/>
<path d="M0 0 C0.99 0 1.98 0 3 0 C3 2.97 3 5.94 3 9 C1.68 9 0.36 9 -1 9 C-1.125 2.25 -1.125 2.25 0 0 Z " fill="#E9E9E9" transform="translate(89,337)"/>
<path d="M0 0 C0.33 0 0.66 0 1 0 C1 3.96 1 7.92 1 12 C1.99 12.33 2.98 12.66 4 13 C2.0625 13.5625 2.0625 13.5625 0 14 C-1.72818125 12.27181875 -1.45151518 9.9192835 -1.6875 7.5625 C-1.79449219 6.57378906 -1.90148437 5.58507812 -2.01171875 4.56640625 C-2 2 -2 2 0 0 Z " fill="#3C3C3C" transform="translate(405,334)"/>
<path d="M0 0 C1.32 0.66 2.64 1.32 4 2 C4 2.66 4 3.32 4 4 C-0.62 4 -5.24 4 -10 4 C-9.67 3.34 -9.34 2.68 -9 2 C-7.1875 1.62109375 -7.1875 1.62109375 -5 1.4375 C-2.21067942 1.37334592 -2.21067942 1.37334592 0 0 Z " fill="#616161" transform="translate(338,301)"/>
<path d="M0 0 C0.99 0.495 0.99 0.495 2 1 C1.67 2.65 1.34 4.3 1 6 C1.7425 5.319375 2.485 4.63875 3.25 3.9375 C6 2 6 2 8.25 2.125 C10 3 10 3 11 5 C6.05 6.485 6.05 6.485 1 8 C0 7 0 7 -0.0625 3.4375 C-0.041875 2.303125 -0.02125 1.16875 0 0 Z " fill="#494949" transform="translate(281,299)"/>
<path d="M0 0 C3.3 0 6.6 0 10 0 C10 2.64 10 5.28 10 8 C9.67 8 9.34 8 9 8 C9 5.69 9 3.38 9 1 C7.35 1.33 5.7 1.66 4 2 C4.99 2.66 5.98 3.32 7 4 C7 4.99 7 5.98 7 7 C5.0625 6.25 5.0625 6.25 3 5 C2.375 2.9375 2.375 2.9375 2 1 C1.34 0.67 0.68 0.34 0 0 Z " fill="#868686" transform="translate(76,292)"/>
<path d="M0 0 C0.33 0 0.66 0 1 0 C1.66 2.31 2.32 4.62 3 7 C4.98 6.67 6.96 6.34 9 6 C8.67 6.99 8.34 7.98 8 9 C2.6135721 10.31668238 2.6135721 10.31668238 0.0625 9 C-1.58971281 5.88995237 -0.69377357 3.34272722 0 0 Z " fill="#444444" transform="translate(235,338)"/>
<path d="M0 0 C0.33 0 0.66 0 1 0 C1.66 2.31 2.32 4.62 3 7 C4.98 6.67 6.96 6.34 9 6 C7.3125 8.0625 7.3125 8.0625 5 10 C2.3125 9.875 2.3125 9.875 0 9 C-1.36623674 6.26752652 -1.128426 4.01801098 -1 1 C-0.67 0.67 -0.34 0.34 0 0 Z " fill="#4C4C4C" transform="translate(304,338)"/>
<path d="M0 0 C0.66 0 1.32 0 2 0 C3.15774508 3.47323524 3 6.35812299 3 10 C3.33 10.66 3.66 11.32 4 12 C2.02 12 0.04 12 -2 12 C-1.34 11.67 -0.68 11.34 0 11 C-0.08378906 10.28972656 -0.16757812 9.57945312 -0.25390625 8.84765625 C-0.35574219 7.92855469 -0.45757812 7.00945312 -0.5625 6.0625 C-0.66691406 5.14597656 -0.77132813 4.22945313 -0.87890625 3.28515625 C-0.91886719 2.53105469 -0.95882813 1.77695312 -1 1 C-0.67 0.67 -0.34 0.34 0 0 Z " fill="#414141" transform="translate(424,336)"/>
<path d="M0 0 C0.33 0 0.66 0 1 0 C1 3.96 1 7.92 1 12 C1.99 12.33 2.98 12.66 4 13 C2.68 13.33 1.36 13.66 0 14 C-1.19307373 11.61385253 -1.39098049 9.64942103 -1.6875 7 C-1.79449219 6.113125 -1.90148437 5.22625 -2.01171875 4.3125 C-2 2 -2 2 0 0 Z " fill="#474747" transform="translate(229,334)"/>
<path d="M0 0 C0 3.63 0 7.26 0 11 C0.66 11.33 1.32 11.66 2 12 C0.02 12 -1.96 12 -4 12 C-3.34 11.67 -2.68 11.34 -2 11 C-2 8.03 -2 5.06 -2 2 C-2.66 1.67 -3.32 1.34 -4 1 C-2 0 -2 0 0 0 Z " fill="#3A3A3A" transform="translate(387,336)"/>
<path d="M0 0 C0.33 0 0.66 0 1 0 C1.2475 1.11375 1.495 2.2275 1.75 3.375 C2.61005339 7.04615198 2.61005339 7.04615198 5.125 8.4375 C5.74375 8.623125 6.3625 8.80875 7 9 C4.6875 9.6875 4.6875 9.6875 2 10 C0.1875 8.9375 0.1875 8.9375 -1 7 C-1.25 3.875 -1.25 3.875 -1 1 C-0.67 0.67 -0.34 0.34 0 0 Z " fill="#434343" transform="translate(280,338)"/>
<path d="M0 0 C2.5625 -0.25 2.5625 -0.25 5 0 C6 1 6 1 6.09765625 3.06640625 C6.08605469 3.89011719 6.07445312 4.71382813 6.0625 5.5625 C6.05347656 6.38878906 6.04445313 7.21507812 6.03515625 8.06640625 C6.02355469 8.70449219 6.01195312 9.34257812 6 10 C6.66 10.33 7.32 10.66 8 11 C7.01 11.33 6.02 11.66 5 12 C3.8422494 8.52674819 3.93133348 5.63932552 4 2 C3.01 1.67 2.02 1.34 1 1 C1 1.99 1 2.98 1 4 C0.01 3.67 -0.98 3.34 -2 3 C-1.34 2.01 -0.68 1.02 0 0 Z " fill="#474747" transform="translate(394,336)"/>
<path d="M0 0 C0.99 0 1.98 0 3 0 C3.06058594 0.62648438 3.12117188 1.25296875 3.18359375 1.8984375 C3.26738281 2.71570313 3.35117187 3.53296875 3.4375 4.375 C3.55931641 5.59316406 3.55931641 5.59316406 3.68359375 6.8359375 C3.89090114 9.04272805 3.89090114 9.04272805 5 11 C3.02 11 1.04 11 -1 11 C-0.34 10.67 0.32 10.34 1 10 C0.67 6.7 0.34 3.4 0 0 Z " fill="#3E3E3E" transform="translate(260,337)"/>
<path d="M0 0 C2.31 0 4.62 0 7 0 C7 1.32 7 2.64 7 4 C4.69 4 2.38 4 0 4 C0 2.68 0 1.36 0 0 Z " fill="#DCDCDC" transform="translate(265,301)"/>
<path d="M0 0 C0.99 0.33 1.98 0.66 3 1 C3.33 2.32 3.66 3.64 4 5 C1.03 5 -1.94 5 -5 5 C-3.35 3.35 -1.7 1.7 0 0 Z " fill="#F5F5F5" transform="translate(269,285)"/>
<path d="M0 0 C1.32 0.33 2.64 0.66 4 1 C3.67 3.97 3.34 6.94 3 10 C3.66 10.33 4.32 10.66 5 11 C3.35 11 1.7 11 0 11 C0 7.37 0 3.74 0 0 Z " fill="#353535" transform="translate(48,337)"/>
<path d="M0 0 C0.763125 0.165 1.52625 0.33 2.3125 0.5 C5.03596236 1.09145396 5.03596236 1.09145396 8 1 C8.33 1.66 8.66 2.32 9 3 C2.4 3 -4.2 3 -11 3 C-11 2.67 -11 2.34 -11 2 C-7.37 2 -3.74 2 0 2 C0 1.34 0 0.68 0 0 Z " fill="#4C4C4C" transform="translate(383,311)"/>
<path d="M0 0 C3.32310483 1.16757737 5.83361132 2.14948857 8 5 C8 5.99 8 6.98 8 8 C6.125 7.8125 6.125 7.8125 4 7 C2.75 4.4375 2.75 4.4375 2 2 C1.34 2 0.68 2 0 2 C0 1.34 0 0.68 0 0 Z " fill="#424242" transform="translate(431,295)"/>
<path d="M0 0 C0.66 0 1.32 0 2 0 C2.06058594 0.62648438 2.12117188 1.25296875 2.18359375 1.8984375 C2.26738281 2.71570313 2.35117187 3.53296875 2.4375 4.375 C2.51871094 5.18710937 2.59992188 5.99921875 2.68359375 6.8359375 C2.89090114 9.04272805 2.89090114 9.04272805 4 11 C2.35 11 0.7 11 -1 11 C-0.67 7.37 -0.34 3.74 0 0 Z " fill="#3F3F3F" transform="translate(298,337)"/>
<path d="M0 0 C1.32 0.66 2.64 1.32 4 2 C4 3.32 4 4.64 4 6 C4.99 6.33 5.98 6.66 7 7 C3.37 7 -0.26 7 -4 7 C-4 6.67 -4 6.34 -4 6 C-2.02 6 -0.04 6 2 6 C1.34 4.02 0.68 2.04 0 0 Z " fill="#7A7A7A" transform="translate(78,302)"/>
<path d="M0 0 C2.97 0 5.94 0 9 0 C8.67 0.99 8.34 1.98 8 3 C5.36 3 2.72 3 0 3 C0 2.01 0 1.02 0 0 Z " fill="#035D83" transform="translate(226,166)"/>
<path d="M0 0 C2.31 0 4.62 0 7 0 C7 1.32 7 2.64 7 4 C6.401875 3.814375 5.80375 3.62875 5.1875 3.4375 C2.83591238 2.77906313 2.83591238 2.77906313 0 4 C0 2.68 0 1.36 0 0 Z " fill="#F2F3F2" transform="translate(220,287)"/>
<path d="M0 0 C1.32 0.33 2.64 0.66 4 1 C4 2.98 4 4.96 4 7 C2.68 6.34 1.36 5.68 0 5 C0 3.35 0 1.7 0 0 Z " fill="#EBEBEB" transform="translate(64,337)"/>
<path d="M0 0 C2 1.5625 2 1.5625 4 4 C4.25 7.75 4.25 7.75 4 11 C3.34 11 2.68 11 2 11 C1.34 7.37 0.68 3.74 0 0 Z " fill="#404040" transform="translate(374,300)"/>
<path d="M0 0 C2.4375 0.6875 2.4375 0.6875 5 2 C5.8125 4.625 5.8125 4.625 6 7 C5.01 7 4.02 7 3 7 C3 6.34 3 5.68 3 5 C2.34 4.67 1.68 4.34 1 4 C0.375 1.9375 0.375 1.9375 0 0 Z " fill="#3C3C3C" transform="translate(271,286)"/>
<path d="M0 0 C2.625 -0.1875 2.625 -0.1875 5 0 C6.53445094 3.06890187 5.54984289 5.70094266 5 9 C3.57055055 6.64561267 2.91338739 5.51967567 3.375 2.75 C3.58125 2.1725 3.7875 1.595 4 1 C3.01 1 2.02 1 1 1 C1 1.99 1 2.98 1 4 C0.01 3.67 -0.98 3.34 -2 3 C-1.34 2.01 -0.68 1.02 0 0 Z " fill="#626262" transform="translate(184,336)"/>
<path d="M0 0 C2 1.625 2 1.625 4 4 C4.25 7.25 4.25 7.25 4 10 C3.34 10 2.68 10 2 10 C1.34 6.7 0.68 3.4 0 0 Z " fill="#353535" transform="translate(379,299)"/>
<path d="M0 0 C4.75 0.75 4.75 0.75 7 3 C7 3.99 7 4.98 7 6 C5.1875 5.8125 5.1875 5.8125 3 5 C1.25 2.4375 1.25 2.4375 0 0 Z " fill="#404040" transform="translate(315,296)"/>
<path d="M0 0 C2.31 0 4.62 0 7 0 C6.67 0.99 6.34 1.98 6 3 C4.02 3 2.04 3 0 3 C0 2.01 0 1.02 0 0 Z " fill="#FBFBFB" transform="translate(63,348)"/>
<path d="M0 0 C1.32 0.33 2.64 0.66 4 1 C4.1875 4.375 4.1875 4.375 4 8 C3.01 8.66 2.02 9.32 1 10 C1.03255208 7.98177083 1.06510417 5.96354167 1.09765625 3.9453125 C1.12649242 1.91814596 1.12649242 1.91814596 0 0 Z " fill="#3C3C3C" transform="translate(365,337)"/>
<path d="M0 0 C1.65 0 3.3 0 5 0 C5 1.98 5 3.96 5 6 C4.01 6 3.02 6 2 6 C1.34 4.02 0.68 2.04 0 0 Z " fill="#FDFDFD" transform="translate(80,302)"/>
<path d="M0 0 C0.99 0.66 1.98 1.32 3 2 C-1.29 2 -5.58 2 -10 2 C-10 1.67 -10 1.34 -10 1 C-3.57884427 -1.48090108 -3.57884427 -1.48090108 0 0 Z " fill="#2B6E8D" transform="translate(46,154)"/>
<path d="M0 0 C0.33 0.99 0.66 1.98 1 3 C3.31 3 5.62 3 8 3 C6 5 6 5 2.875 5.125 C1.451875 5.063125 1.451875 5.063125 0 5 C-0.5625 3.0625 -0.5625 3.0625 -1 1 C-0.67 0.67 -0.34 0.34 0 0 Z " fill="#656565" transform="translate(268,348)"/>
<path d="M0 0 C2.64 0.33 5.28 0.66 8 1 C7.01 1.495 7.01 1.495 6 2 C5.34444881 4.52733235 5.34444881 4.52733235 5 7 C3 3.25 3 3.25 3 1 C2.01 0.67 1.02 0.34 0 0 Z " fill="#4F4F4F" transform="translate(270,336)"/>
<path d="M0 0 C1.32 0.66 2.64 1.32 4 2 C4 2.33 4 2.66 4 3 C-0.62 3 -5.24 3 -10 3 C-10 2.67 -10 2.34 -10 2 C-9.04287109 1.90912109 -9.04287109 1.90912109 -8.06640625 1.81640625 C-6.82697266 1.69072266 -6.82697266 1.69072266 -5.5625 1.5625 C-4.73878906 1.48128906 -3.91507812 1.40007812 -3.06640625 1.31640625 C-1.01337975 1.21069185 -1.01337975 1.21069185 0 0 Z " fill="#4B4B4B" transform="translate(438,311)"/>
<path d="M0 0 C0.66 0 1.32 0 2 0 C2 0.99 2 1.98 2 3 C2.99 3.66 3.98 4.32 5 5 C3.35 5.33 1.7 5.66 0 6 C-0.38218767 4.34385343 -0.71395102 2.67542976 -1 1 C-0.67 0.67 -0.34 0.34 0 0 Z " fill="#535353" transform="translate(393,342)"/>
<path d="M0 0 C0.33 0.66 0.66 1.32 1 2 C-2.63 2 -6.26 2 -10 2 C-10 1.67 -10 1.34 -10 1 C-3.44680851 -1.53191489 -3.44680851 -1.53191489 0 0 Z " fill="#404040" transform="translate(438,306)"/>
<path d="M0 0 C2.475 0.495 2.475 0.495 5 1 C4.67 2.65 4.34 4.3 4 6 C1 4 1 4 0.3125 1.875 C0.209375 1.25625 0.10625 0.6375 0 0 Z " fill="#3F3F3F" transform="translate(324,282)"/>
<path d="M0 0 C2.475 0.99 2.475 0.99 5 2 C5 3.32 5 4.64 5 6 C4.01 5.67 3.02 5.34 2 5 C0.8125 2.4375 0.8125 2.4375 0 0 Z " fill="#3C3C3C" transform="translate(63,282)"/>
<path d="M0 0 C0.99 0 1.98 0 3 0 C3 1.65 3 3.3 3 5 C1.68 5 0.36 5 -1 5 C-0.67 3.35 -0.34 1.7 0 0 Z " fill="#E0E0E0" transform="translate(185,341)"/>
<path d="M0 0 C3 3.75 3 3.75 3 6 C1.35 6 -0.3 6 -2 6 C-1.34 4.02 -0.68 2.04 0 0 Z " fill="#F3F3F3" transform="translate(116,335)"/>
<path d="M0 0 C-1.65 1.65 -3.3 3.3 -5 5 C-5.66 4.67 -6.32 4.34 -7 4 C-7 3.01 -7 2.02 -7 1 C-4.53721199 -0.231394 -2.7204945 -0.07159196 0 0 Z " fill="#393939" transform="translate(368,305)"/>
<path d="M0 0 C2.18975773 3.28463659 2.99806563 6.20696275 4 10 C3.01 9.67 2.02 9.34 1 9 C-0.4783226 6.04335481 -0.06032783 3.25770263 0 0 Z " fill="#535353" transform="translate(127,292)"/>
<path d="M0 0 C1.98 0 3.96 0 6 0 C6 0.99 6 1.98 6 3 C4.02 3 2.04 3 0 3 C0 2.01 0 1.02 0 0 Z " fill="#F8F8F8" transform="translate(266,297)"/>
<path d="M0 0 C0.66 0 1.32 0 2 0 C2.66 1.98 3.32 3.96 4 6 C2.68 6 1.36 6 0 6 C0 4.02 0 2.04 0 0 Z " fill="#FEFEFE" transform="translate(76,293)"/>
<path d="M0 0 C2.475 0.495 2.475 0.495 5 1 C5.33 2.32 5.66 3.64 6 5 C5.01 5 4.02 5 3 5 C1.3125 2.5 1.3125 2.5 0 0 Z " fill="#3E3E3E" transform="translate(318,291)"/>
<path d="M0 0 C0.66 0.33 1.32 0.66 2 1 C0.515 3.475 0.515 3.475 -1 6 C-2.32 5.67 -3.64 5.34 -5 5 C-4 3 -4 3 -1 2 C-0.67 1.34 -0.34 0.68 0 0 Z " fill="#616161" transform="translate(436,347)"/>
<path d="M0 0 C0.33 0 0.66 0 1 0 C1.33 2.97 1.66 5.94 2 9 C1.01 8.34 0.02 7.68 -1 7 C-1.25 3.9375 -1.25 3.9375 -1 1 C-0.67 0.67 -0.34 0.34 0 0 Z " fill="#333333" transform="translate(372,338)"/>
</svg>
